<svg data-name="Group 80752" xmlns="http://www.w3.org/2000/svg" width="104.91" height="104.91" viewBox="0 0 104.91 104.91">
    <defs>
        <clipPath id="85ku4vd5qa">
            <path data-name="Rectangle 11998" style="fill:none" d="M0 0h104.91v104.91H0z"/>
        </clipPath>
    </defs>
    <g data-name="Group 80751" style="clip-path:url(#85ku4vd5qa)">
        <path data-name="Path 60468" d="M52.455 0a52.455 52.455 0 1 0 52.455 52.455A52.515 52.515 0 0 0 52.455 0m0 104.467a52.011 52.011 0 1 1 52.011-52.011 52.07 52.07 0 0 1-52.011 52.011" style="fill:#00b897"/>
        <path data-name="Path 60469" d="M108.6 64.983a6.13 6.13 0 0 0-4.715.271L88.4 72.738a10.785 10.785 0 0 0-10.4-.727L58.778 52.792l-4.705 4.7L73.11 76.533A10.8 10.8 0 0 0 75.229 89.8l-16.168 24.892 1.86 1.208 16.09-24.773a10.814 10.814 0 0 0 16.1-6.958l16.146-7.8a6.17 6.17 0 0 0-.656-11.382m1.7 7.127a3.925 3.925 0 0 1-2.013 2.258l-14.93 7.216a10.779 10.779 0 0 0-3.066-7.3l14.557-7.036a3.953 3.953 0 0 1 5.452 4.859" transform="translate(-30.087 -29.375)" style="fill:#00b897"/>
    </g>
</svg>
