<svg data-name="Group 80918" xmlns="http://www.w3.org/2000/svg" width="105.17" height="105.17" viewBox="0 0 105.17 105.17">
    <path data-name="Path 60595" d="M52.585 0a52.585 52.585 0 1 0 52.585 52.585A52.645 52.645 0 0 0 52.585 0zm0 104.725a52.14 52.14 0 1 1 52.14-52.14 52.2 52.2 0 0 1-52.14 52.14z" style="fill:#00b897"/>
    <path data-name="Path 60596" d="M138.608 77.844a17.987 17.987 0 1 0 17.987 17.986 18.007 18.007 0 0 0-17.987-17.986zm0 33.75a15.763 15.763 0 1 1 15.763-15.764 15.781 15.781 0 0 1-15.763 15.764z" transform="translate(-66.984 -43.228)" style="fill:#00b897"/>
    <path data-name="Path 60597" d="M155.833 95.508a1.059 1.059 0 0 0-1.5 0l-3.244 3.244a1.059 1.059 0 0 0 0 1.5l2.327 2.327-7.668 7.668-2.327-2.326a1.058 1.058 0 0 0-1.5 0l-3.244 3.244a1.059 1.059 0 0 0 0 1.5l1.408 1.408a4.775 4.775 0 0 0 6.024.606c3.613-2.412 6.3-3.921 11.618-11.768a4.789 4.789 0 0 0-.575-6.072z" transform="translate(-76.842 -52.865)" style="fill:#00b897"/>
    <g data-name="Group 80917">
        <path data-name="Path 60598" d="M52.976 77.768a17.986 17.986 0 1 0 17.986 17.986 18.007 18.007 0 0 0-17.986-17.986zm0 33.749a15.763 15.763 0 1 1 15.763-15.763 15.781 15.781 0 0 1-15.763 15.763z" transform="translate(-19.43 -43.186)" style="fill:#00b897"/>
        <path data-name="Path 60599" d="M70.769 104.89a2.947 2.947 0 0 0-2.944-2.944h-8.581a2.947 2.947 0 0 0-2.944 2.944v8.582a2.947 2.947 0 0 0 2.944 2.944h8.582a2.947 2.947 0 0 0 2.944-2.944V111.8l3.768 2.175v-10.049l-3.769 2.174zm-2.223 8.582a.721.721 0 0 1-.72.72h-8.582a.721.721 0 0 1-.72-.72v-8.582a.721.721 0 0 1 .72-.72h8.582a.721.721 0 0 1 .72.72z" transform="translate(-31.264 -56.613)" style="fill:#00b897"/>
    </g>
</svg>
