<svg data-name="Group 80740" xmlns="http://www.w3.org/2000/svg" width="104.912" height="104.912" viewBox="0 0 104.912 104.912">
    <path data-name="Path 60446" d="M1058.475 0a52.456 52.456 0 1 0 52.456 52.456A52.516 52.516 0 0 0 1058.475 0m0 104.468a52.012 52.012 0 1 1 52.012-52.012 52.071 52.071 0 0 1-52.012 52.012" transform="translate(-1006.019)" style="fill:#00b897"/>
    <path data-name="Path 60447" d="m1106.792 81.82 4.53-1.687-1.122-4.7 3.787-3-2.52-4.125 2.673-4.028-3.672-3.145 1.3-4.657-4.464-1.856-.2-4.83-4.819-.386-1.687-4.53-4.7 1.122-3.005-3.787-4.125 2.52-4.028-2.673-3.145 3.672-4.657-1.3-1.857 4.464-4.829.2-.387 4.819-4.53 1.687 1.122 4.7-3.787 3 2.52 4.125-2.673 4.028 3.672 3.145-1.3 4.657 4.463 1.856.134 3.154-10.308 17.509 12.726-3.41 3.41 12.726 10.729-18.955 1.854-1.132 3.139 2.083 9.742 18.085 3.431-12.806 12.74 3.414-10.359-17.429zm-22.51 8.792-2.664-3.357-2.813.671-1.841-.982-1.009-2.71-4.271-.342-.182-4.282-3.956-1.645 1.15-4.128-3.255-2.788 2.37-3.57-2.234-3.657 3.357-2.663-.995-4.168 4.016-1.5.342-4.271 4.282-.182 1.645-3.956 4.127 1.15 2.789-3.255 3.57 2.37 3.657-2.234 2.663 3.357 4.168-.995 1.5 4.016 4.271.342.181 4.281 3.957 1.645-1.151 4.128 3.255 2.788-2.37 3.57 2.234 3.657-3.358 2.663.995 4.168-4.015 1.5-.343 4.272-4.281.181-1.283 3.086-1.135.655-3.356-.935-2.787 3.254-3.57-2.37z" transform="translate(-1035.594 -23.397)" style="fill:#00b897"/>
    <path data-name="Path 60448" d="M1120.684 79.492a16.547 16.547 0 1 0-16.547 16.546 16.566 16.566 0 0 0 16.547-16.546m-16.546 14.328a14.329 14.329 0 1 1 14.329-14.328 14.345 14.345 0 0 1-14.329 14.328" transform="translate(-1051.406 -35.023)" style="fill:#00b897"/>
</svg>
