<svg data-name="Group 80828" xmlns="http://www.w3.org/2000/svg" width="105.172" height="105.172" viewBox="0 0 105.172 105.172">
    <defs>
        <clipPath id="jyalc0g0na">
            <path data-name="Rectangle 12046" style="fill:none" d="M0 0h105.172v105.172H0z"/>
        </clipPath>
    </defs>
    <g data-name="Group 80827" style="clip-path:url(#jyalc0g0na)">
        <path data-name="Path 60494" d="M52.586 0a52.586 52.586 0 1 0 52.586 52.586A52.645 52.645 0 0 0 52.586 0m0 104.727a52.141 52.141 0 1 1 52.141-52.141 52.2 52.2 0 0 1-52.141 52.141" style="fill:#00b897"/>
        <path data-name="Path 60495" d="m111.083 65.09-.394-.273c-.218-.151-5.445-3.728-14.55-5.54-8.358-1.664-21.7-2.07-37.812 5.446l-.54.252-.089.59A58.656 58.656 0 0 0 58.942 85.7a51.572 51.572 0 0 0 24.93 33.792l.555.32.555-.32A51.574 51.574 0 0 0 109.911 85.7a58.636 58.636 0 0 0 1.243-20.134zm-3.357 20.186c-3.268 14-11.106 24.749-23.3 31.964-12.194-7.214-20.032-17.965-23.3-31.964a58.909 58.909 0 0 1-1.3-18.8c15.258-6.969 27.851-6.6 35.765-5.045a41.835 41.835 0 0 1 13.426 4.95 58.792 58.792 0 0 1-1.29 18.891" transform="translate(-31.841 -32.362)" style="fill:#00b897"/>
        <path data-name="Path 60496" d="m113.309 81.675-.394-.273c-.587-.408-14.64-9.883-35.621-.094l-.54.252-.089.59a39.913 39.913 0 0 0 .843 13.695 35.084 35.084 0 0 0 16.96 22.988l.555.321.555-.321a35.086 35.086 0 0 0 16.96-22.988 39.914 39.914 0 0 0 .843-13.695zm-2.955 13.746a32.381 32.381 0 0 1-15.332 21.159 32.38 32.38 0 0 1-15.331-21.159 39.543 39.543 0 0 1-.9-12.356c10.085-4.556 18.4-4.316 23.637-3.293a28.192 28.192 0 0 1 8.807 3.2 39.463 39.463 0 0 1-.886 12.448" transform="translate(-42.436 -42.698)" style="fill:#00b897"/>
        <path data-name="Path 60497" d="M115.221 100.931a5.351 5.351 0 1 0-10.7 0v2.269h-1.451v11.436h13.506V103.2h-1.353zm-8.478 0a3.127 3.127 0 1 1 6.255 0v2.269h-6.255z" transform="translate(-57.235 -53.077)" style="fill:#00b897"/>
    </g>
</svg>
