<svg xmlns="http://www.w3.org/2000/svg" width="98.04" height="98.04" viewBox="0 0 98.04 98.04">
    <g data-name="Group 80736">
        <path data-name="Path 60436" d="M990.059 0a49.02 49.02 0 1 0 49.02 49.02A49.076 49.076 0 0 0 990.059 0m0 97.626a48.605 48.605 0 1 1 48.606-48.605 48.661 48.661 0 0 1-48.606 48.605" transform="translate(-941.039)" style="fill:#c25555"/>
        <path data-name="Path 60437" d="M1040.245 65.46h-26.774a13.921 13.921 0 0 0-13.9 13.905v34.117l33.732-3.207V92.6h15.786V74.385a8.937 8.937 0 0 0-8.839-8.925m-9.019 42.926-29.587 2.813V79.36a11.846 11.846 0 0 1 11.832-11.833h20.964a8.963 8.963 0 0 0-2.492 3.354l-.02.046a9.373 9.373 0 0 0-.308.855q-.112.367-.192.747c-.01.043-.018.087-.026.131a8.762 8.762 0 0 0-.12.779c0 .034 0 .068-.009.1a9.05 9.05 0 0 0-.042.844v34z" transform="translate(-975.304 -38.321)" style="fill:#c25555"/>
        <path data-name="Rectangle 11989" transform="translate(41.776 48.619)" style="fill:#c25555" d="M0 0h8.2v2.073H0z"/>
        <path data-name="Rectangle 11990" transform="translate(41.776 37.833)" style="fill:#c25555" d="M0 0h8.2v2.073H0z"/>
        <path data-name="Rectangle 11991" transform="translate(37.508 54.011)" style="fill:#c25555" d="M0 0h12.468v2.073H0z"/>
        <path data-name="Rectangle 11992" transform="translate(32.453 43.226)" style="fill:#c25555" d="M0 0h17.523v2.073H0z"/>
    </g>
</svg>
