<svg data-name="Group 80760" xmlns="http://www.w3.org/2000/svg" width="98.04" height="98.04" viewBox="0 0 98.04 98.04">
    <defs>
        <clipPath id="9rs9jxbaia">
            <path data-name="Rectangle 12002" style="fill:none" d="M0 0h98.04v98.04H0z"/>
        </clipPath>
    </defs>
    <g data-name="Group 80759" style="clip-path:url(#9rs9jxbaia)">
        <path data-name="Path 60478" d="M49.02 0a49.02 49.02 0 1 0 49.02 49.02A49.076 49.076 0 0 0 49.02 0m0 97.625A48.605 48.605 0 1 1 97.625 49.02 48.661 48.661 0 0 1 49.02 97.625" style="fill:#c25555"/>
        <path data-name="Path 60479" d="M64.136 77.468a8.13 8.13 0 1 0 8.13 8.13 8.139 8.139 0 0 0-8.13-8.13m0 14.188a6.058 6.058 0 1 1 6.058-6.056 6.064 6.064 0 0 1-6.058 6.058" transform="translate(-32.79 -45.355)" style="fill:#c25555"/>
        <path data-name="Path 60480" d="M106.771 77.468a8.13 8.13 0 1 0 8.13 8.13 8.139 8.139 0 0 0-8.13-8.13m0 14.188a6.058 6.058 0 1 1 6.058-6.058 6.064 6.064 0 0 1-6.058 6.058" transform="translate(-57.751 -45.355)" style="fill:#c25555"/>
        <path data-name="Path 60481" d="M149.407 77.468a8.13 8.13 0 1 0 8.13 8.13 8.139 8.139 0 0 0-8.13-8.13m0 14.188a6.058 6.058 0 1 1 6.058-6.058 6.064 6.064 0 0 1-6.058 6.058" transform="translate(-82.713 -45.355)" style="fill:#c25555"/>
        <path data-name="Path 60482" d="M64.136 119.813a8.13 8.13 0 1 0 8.13 8.131 8.14 8.14 0 0 0-8.13-8.131m0 14.188a6.058 6.058 0 1 1 6.058-6.058A6.064 6.064 0 0 1 64.136 134" transform="translate(-32.79 -70.147)" style="fill:#c25555"/>
        <path data-name="Path 60483" d="M106.771 119.813a8.13 8.13 0 1 0 8.13 8.131 8.14 8.14 0 0 0-8.13-8.131m0 14.188a6.058 6.058 0 1 1 6.058-6.058 6.064 6.064 0 0 1-6.058 6.057" transform="translate(-57.751 -70.147)" style="fill:#c25555"/>
        <path data-name="Path 60484" d="M149.407 119.813a8.13 8.13 0 1 0 8.13 8.13 8.139 8.139 0 0 0-8.13-8.13" transform="translate(-82.713 -70.147)" style="fill:#c25555"/>
    </g>
</svg>
