<svg class="svg-icon" style="width: 1.0927734375em; height: 1em;vertical-align: middle;fill: currentColor;overflow: hidden;" viewBox="0 0 1119 1024" version="1.1" xmlns="http://www.w3.org/2000/svg"><path d="M514.230058 0.063276c-1.429295 1.815592-2.647048 3.86664-4.332035 5.404467-4.782714 4.359627-9.019095 10.04002-11.296402 15.976103 4.372505-1.008049 6.671886-4.567492 9.962761-6.515528 3.296393-1.951715 6.603824-3.885035 10.326982-6.072207 1.78432 20.71283 13.553475 34.707787 27.743419 47.244015 1.267419 1.120259 2.744542 2.027134 3.923665 3.226492 4.151764 4.230862 9.37044 6.346293 14.868722 8.194996 16.066239 5.400788 32.325627 10.360094 48.022126 16.704548 22.817224 9.22328 44.177559 21.253645 62.407058 38.086958 5.702467 5.264664 10.814452 11.217303 15.819746 17.173622 7.082095 8.430453 13.242598 17.537844 17.73835 27.642246 2.601061 5.836751 5.371356 11.660624 7.221898 17.747547 2.582665 8.500354 4.565652 17.199375 6.43091 25.894716 0.949185 4.422171 1.164407 9.011736 1.534147 13.540599 0.542654 6.570713 1.458727 13.172698 1.2619 19.730534-0.33479 11.130847-1.111061 22.270891-2.260752 33.350232-1.002531 9.699712-2.26995 19.430695-4.330195 28.950135-2.34169 10.819971-5.687751 21.422879-8.586811 32.121442-0.305358 1.11658-0.577604 2.240518-0.870086 3.386529 8.518749 0.917913 9.751218 2.464937 12.409302 10.807094 2.321456 7.278922 1.285814 14.421722 0.478271 21.595792-0.715568 6.335256-2.001382 12.609809-3.165789 18.888041-0.790988 4.267652-1.699703 8.520589-2.755579 12.729377-1.71074 6.819046-2.623135 13.83492-5.698787 20.313657-2.86043 6.026219-6.265355 11.524501-11.263291 16.049684-1.267419 1.146012-2.310418 3.083011-2.510924 4.769837-2.225801 18.507263-8.06991 36.050625-14.636944 53.305186-4.010121 10.525649-9.33365 20.565669-14.329746 30.693985-7.356182 14.90919-16.632807 28.677888-26.542222 41.953598-9.826637 13.169019-20.716509 25.482667-32.840689 36.670539-13.485414 12.436896-27.975196 23.477606-43.973375 32.487504-10.764785 6.064849-22.134768 10.768464-33.878169 14.54129-3.811455 1.22511-7.832614 1.782481-11.730525 2.7519-7.369058 1.832147-14.903672 2.970801-22.427249 2.915616-8.713737-0.062543-17.392522-0.985975-26.003247-2.948727-23.214557-5.295936-43.417844-16.518758-62.009724-30.876096-21.748471-16.791005-39.908068-36.96118-55.711258-59.439936-9.767773-13.895623-18.341707-28.460826-25.627988-43.680893-8.045996-16.811239-14.813536-34.21112-18.878843-52.556507-1.924123-8.689824-4.315479-17.250881-5.012652-26.183519-0.115889-1.480802-1.180962-3.187863-2.315937-4.241899-9.054045-8.399181-13.38976-19.15109-15.862054-30.905529-1.033802-4.913319-2.382159-9.765934-3.320307-14.695808-1.19016-6.261676-2.200048-12.563821-3.114282-18.873325-0.603358-4.16464-0.664061-8.417576-1.392505-12.556464-1.138654-6.486096 0.923432-12.352278 3.178665-18.141202 1.26558-3.246727 4.100257-4.830541 7.705688-4.762479 1.826628 0.034951 3.653258 0.005519 5.939763 0.005519 0-1.913085 0.209703-3.419641-0.033111-4.848936-1.977468-11.592562-4.212467-23.146495-6.011503-34.766651-1.002531-6.480577-1.352037-13.064167-1.946196-19.605448-0.441482-4.869171-0.496666-9.793526-1.26558-14.605673-1.480802-9.276625-1.048518-18.590041-1.111061-27.899777-0.04047-6.276392-0.310876-12.57118 0.064383-18.823658 0.546333-9.072441 0.903197-18.244213 2.621295-27.127185 1.484481-7.670737 4.589566-15.054512 7.269725-22.45852 4.613479-12.749611 11.381019-24.454384 19.165806-35.430712 12.103945-17.061412 26.444728-32.172948 42.856795-45.211361 15.536462-12.34308 32.152714-23.045322 49.742063-32.248368 7.788466-4.076343 15.773759-7.678095 24.207891-10.163267 5.834911-1.721777 11.798587-2.93953 17.948053-2.363764 4.769837 0.447 9.168095 2.003221 12.799278 4.83606 2.854913-4.861812 5.411824-9.690514 8.417576-14.221216 4.558295-6.87607 10.97265-11.919995 17.491856-16.824116 2.961603-2.225801 5.845948-4.565652 8.673268-6.960688 4.254776-3.603591 8.454367-7.273404 12.615327-10.980007 0.844333-0.748679 1.421938-1.793517 2.12279-2.702233C511.516788 0.063276 512.872504 0.063276 514.230058 0.063276zM0.119593 1001.819245c283.719783 0 567.439565-0.003679 851.159347 0.025753 2.34169 0 4.714652 0.286963 7.02691 0.684296 10.325143 1.769604 20.63741 3.620147 30.944158 5.483565 0.584963 0.10853 1.107383 0.612555 1.655555 0.934469 13.57371 0 27.147419 0 40.724809 0 3.406764-0.66774 6.811688-1.331802 10.218452-1.999542 6.635096-1.307889 13.257315-2.698554 19.914484-3.894232 3.30927-0.59232 6.679244-1.131296 10.030822-1.182802 9.995872-0.154519 19.989905-0.055185 30.521073-0.055185 0-4.663146 0-8.993341 0-13.297784 4.556455-2.496208 8.74133-4.68522 12.82687-7.048984 13.397117-7.753515 25.753075-16.895856 37.117538-27.438062 28.394604-26.347235 47.8952-58.135726 58.56617-95.325005 3.128998-10.906427 5.8018-21.937941 6.182577-33.377824 0.033111-0.905037 0.603358-1.789839 0.923432-2.683838 0-13.912178 0-27.826197 0-41.738376-0.463555-3.434356-0.848012-6.87975-1.401703-10.297551-3.204419-19.833546-8.719255-38.984636-17.374128-57.149751-11.647748-24.43231-27.25779-45.949003-47.253213-64.296229-19.59441-17.981164-41.734697-31.742503-66.542265-41.27666-31.278948-12.024847-63.613773-15.628437-96.8334-12.265821-27.502444 2.781332-53.307025 11.048069-77.470767 24.384483-26.187198 14.451154-48.26862 33.662947-66.176204 57.642738-0.969419 1.30053-2.073123 2.505407-3.035184 3.664294-25.390692-10.29939-50.017989-20.939089-75.134595-30.338962-36.333909 75.839126-72.413966 151.146634-108.871123 227.239611-1.71074-3.999085-2.9009-6.975404-4.243738-9.881823-7.001157-15.13729-13.998635-30.2709-21.100966-45.358522-1.329962-2.827319-1.383308-5.203961 0.099333-8.101182 8.090145-15.832622 15.987141-31.764578 23.893334-47.689176 2.047369-4.124171 1.957234-4.177516-1.186481-7.319392-16.796523-16.794683-33.591207-33.587528-50.395088-50.376692-0.92895-0.92711-1.924123-1.791678-2.586345-2.407913-19.009448 19.013127-37.77792 37.77976-56.82232 56.825998 0.378938 0.833296 0.956543 2.227641 1.627962 3.575998 8.011045 16.053363 15.957709 32.139837 24.141667 48.103064 1.250864 2.441024 1.217753 4.298924 0.141642 6.625898-8.430453 18.196386-16.779967 36.431403-25.193865 54.636987-0.312716 0.676938-1.030123 1.168086-1.909406 2.131987-36.508662-76.19231-72.826015-151.983609-109.189357-227.868722-1.502876 0.391814-2.496208 0.538975-3.401245 0.903197-6.252479 2.521962-12.49392 5.073356-18.728003 7.644984-17.122116 7.061861-34.266305 14.070376-51.349791 21.227891-19.274337 8.077268-38.620414 16.001857-57.694245 24.526124-20.501287 9.166255-40.884845 18.626831-61.009033 28.582234-14.822734 7.330429-29.134085 15.694659-43.697449 23.551187-12.355958 6.666367-21.937941 16.382634-30.075912 27.583382-7.356182 10.128316-13.505648 21.038423-18.715127 32.382652C41.874524 836.184667 34.71149 855.433251 28.876579 875.147229c-2.711431 9.157058-5.108307 18.409769-7.591639 27.634889-2.222123 8.253861-4.561973 16.485647-6.491615 24.809408-2.010579 8.673268-3.465628 17.473461-5.393429 26.168803-2.507246 11.309278-5.02001 22.611199-6.316861 34.146737-0.18763 1.666592-0.126925 3.971492-2.965282 3.730517C0.119593 995.03331 0.119593 998.427197 0.119593 1001.819245zM1112.725991 803.37525c-0.798345 112.511503-92.880303 200.986191-203.688425 199.864093-108.161073-1.092666-200.686352-89.153465-199.212908-204.323054 1.429295-111.497936 92.488488-198.990328 201.889389-198.548846C1020.91996 600.282825 1113.537214 688.882599 1112.725991 803.37525zM861.493712 864.792653c-20.091078-20.114991-39.71492-39.762747-58.672862-58.744602-4.828701 4.427689-9.276625 8.505873-12.951957 11.877686 24.176618 24.1711 48.218953 48.213434 71.646893 71.639535 46.953374-46.949694 94.390537-94.386858 141.875527-141.873688-3.818813-3.691887-8.066231-7.790305-12.609809-12.184883C947.882401 778.405805 904.775433 821.509093 861.493712 864.792653z"  /></svg>