<svg class="svg-icon" style="width: 1em; height: 1em;vertical-align: middle;fill: currentColor;overflow: hidden;" viewBox="0 0 1024 1024" version="1.1" xmlns="http://www.w3.org/2000/svg"><path d="M893.456828 709.055005"  /><path d="M491.889987 337.939709"  /><path d="M568.154951 338.993714"  /><path d="M974.902792 272.420483c0-33.483602-28.740578-57.234539-61.887512-57.234539L138.397047 215.185944c-33.146934 0-57.863872 23.750937-57.863872 57.234539l0 440.505689c0 33.483602 24.715915 63.031569 57.863872 63.031569L913.01528 775.957741c33.146934 0 61.887512-29.547966 61.887512-63.031569L974.902792 272.420483 974.902792 272.420483zM148.278091 256.117169l767.420297 0 2.399653 0c11.443633 0 14.85022 9.41544 14.85022 20.859074l0 41.562605-810.458509 0 0-41.562605C122.488729 265.532609 136.834458 256.117169 148.278091 256.117169zM918.097018 735.024469 148.278091 735.024469c-11.44261 0-25.78834-9.6815-25.78834-21.123087L122.489752 360.494401l810.458509 0 0 353.406982C932.947238 725.342969 929.540651 735.024469 918.097018 735.024469z"  /><path d="M814.065663 538.780947c-17.280572 0-33.830503 6.186909-46.813189 17.0974-12.983709-10.910491-29.532617-17.0974-46.813189-17.0974-40.149419 0-72.820516 32.67212-72.820516 72.820516s32.67212 72.820516 72.820516 72.820516c17.280572 0 33.82948-6.186909 46.813189-17.0974 12.983709 10.910491 29.532617 17.0974 46.813189 17.0974 40.149419 0 72.820516-32.67212 72.820516-72.820516C886.886179 571.452044 854.215082 538.780947 814.065663 538.780947zM814.065663 653.213185c-13.511735 0-26.231431-6.634094-34.043351-17.748223-2.925632-4.154623-7.690146-6.634094-12.769838-6.634094s-9.844206 2.478448-12.769838 6.634094c-7.81192 11.114129-20.531616 17.748223-34.043351 17.748223-22.949688 0-41.611723-18.662035-41.611723-41.611723s18.662035-41.611723 41.611723-41.611723c13.511735 0 26.230408 6.634094 34.043351 17.748223 5.851265 8.31027 19.688411 8.31027 25.539676 0 7.81192-11.114129 20.531616-17.748223 34.043351-17.748223 22.949688 0 41.611723 18.662035 41.611723 41.611723S837.015352 653.213185 814.065663 653.213185z"  /></svg>