<svg class="svg-icon" style="width: 1em; height: 1em;vertical-align: middle;fill: currentColor;overflow: hidden;" viewBox="0 0 1024 1024" version="1.1" xmlns="http://www.w3.org/2000/svg"><path d="M510.578012 948.132958c-242.927095 0-440.568694-197.634404-440.568694-440.563098 0-242.927695 197.641599-440.571692 440.568694-440.571692 242.928694 0 440.571093 197.641599 440.571093 440.571692C951.149105 750.498554 753.506706 948.132958 510.578012 948.132958zM510.578012 95.425294c-227.258319 0-412.143966 184.885648-412.143966 412.144566 0 227.25732 184.885648 412.144566 412.143966 412.144566 227.260318 0 412.144566-184.887246 412.144566-412.144566C922.722578 280.310941 737.83833 95.425294 510.578012 95.425294zM510.578012 955.243337c-246.847437 0-447.673477-200.824441-447.673477-447.673477 0-246.848037 200.82584-447.676275 447.673477-447.676275 246.849036 0 447.676275 200.82584 447.676275 447.676275C958.254288 754.418896 757.427048 955.243337 510.578012 955.243337zM510.578012 74.104349c-239.013349 0-433.462512 194.452161-433.462512 433.46551 0 239.010351 194.449163 433.458915 433.462512 433.458915 239.01135 0 433.466909-194.448564 433.466909-433.458915C944.044922 268.556511 749.594359 74.104349 510.578012 74.104349zM510.578012 926.818609c-231.178661 0-419.250148-188.076084-419.250148-419.248749 0-231.181659 188.071488-419.251747 419.250148-419.251747 231.183657 0 419.249549 188.072487 419.249549 419.251747C929.827561 738.742525 741.76167 926.818609 510.578012 926.818609zM510.578012 102.530476c-223.336578 0-405.039383 181.702406-405.039383 405.039383s181.702805 405.039383 405.039383 405.039383c223.336978 0 405.039383-181.702406 405.039383-405.039383S733.91499 102.530476 510.578012 102.530476zM468.928251 724.858938c0.284407-2.472324 0.541633-4.948645 0.854421-7.417971 0.887798-6.995257 1.78419-13.993512 2.705566-20.977777 0.647161-4.916667 1.345488-9.827337 2.019231-14.738008 0.757886-5.527253 1.557944-11.043512 2.261467-16.574762 0.569014-4.466971 0.983733-8.953929 1.531961-13.4219 0.530041-4.304082 1.160213-8.59817 1.718835-12.899254 0.544631-4.23313 1.085864-8.461263 1.569936-12.69939 0.653957-5.70813 1.270139-11.420257 1.870132-17.134383 0.344766-3.243801 0.630572-6.499593 0.938364-9.750389 0.484272-5.106538 1.093658-10.203082 1.425633-15.323611 0.349763-5.455301-1.656477-10.499881-3.145467-15.616412-0.969942-3.335738-2.033621-6.643496-2.825484-10.018208-0.616182-2.633215-0.219251-4.963635 3.825406-4.919664 14.258333 0.157893 28.523661 0.061958 42.782993 0.061958 2.769123 0 3.426677 0.754488 2.701169 3.387703-1.654878 6.023916-3.45066 12.003861-5.087551 18.031774-1.693852 6.246765-1.78479 12.541497-0.67854 18.932164 1.042293 6.027913 1.832757 12.103794 2.527286 18.178675 0.895393 7.955606 1.526965 15.940193 2.380386 23.895799 0.709519 6.635501 1.513974 13.258011 2.396375 19.868529 0.662551 4.982622 1.617903 9.927269 2.270461 14.908892 0.615583 4.702811 1.00232 9.426609 1.48999 14.142411 0.624577 6.108858 1.258147 12.21272 1.868733 18.315582 0.33977 3.408689 0.621579 6.81438 0.974339 10.218072 0.286806 2.777117 0.492666 5.578218 1.030301 8.308367 0.216853 1.078269 1.243157 1.99165 2.258469 3.523611 1.260146-4.692818 2.325423-8.692107 3.413686-12.677405 2.824085-10.335992 5.706131-20.657994 8.485247-31.009975 3.516616-13.105115 6.938296-26.240209 10.417937-39.359115 3.183841-11.997865 6.394664-23.991734 9.584502-35.990598 5.340379-20.120358 10.680758-40.241516 15.997154-60.372867 0.691531-2.604234 1.292124-5.234451 1.868733-7.864668 0.806453-3.681504 5.011602-5.871019 9.083841-4.349051 6.433638 2.402371 12.760348 5.097544 19.156012 7.602845 13.363939 5.231453 26.792635 10.311009 40.104609 15.674373 10.10315 4.07024 20.225287 8.151473 30.034637 12.866277 7.467937 3.594563 14.392242 8.31836 20.228285 14.333282 4.855708 5.00061 8.869986 10.646781 10.477896 17.562093 0.782469 3.374712 0.955352 6.906318 1.284129 10.374966 0.673543 7.05022 1.255149 14.102439 1.894715 21.156656 0.45669 5.031589 0.887398 10.066175 1.449018 15.091768 0.529641 4.695816 1.276135 9.364651 1.81377 14.059468 0.297798 2.558265 0.378743 5.139515 0.524644 7.707774 0.331775 5.536246 0.506656 11.086483 0.989329 16.603743 0.64956 7.425965 1.735823 14.817953 2.234485 22.248915 0.270816 4.02727-1.331098 7.793716-3.905352 10.910603-3.068919 3.71648-6.781402 6.6375-11.672086 7.660806-0.898391 0.184875-1.819766 0.409722-2.730149 0.409722-138.204897 0.017988-276.411793 0.051965-414.617889-0.057961-9.54253-0.009993-15.151727-5.230454-17.901863-15.305623-1.54895-5.674153-0.927771-11.349305 0.502659-16.999474 0.528642-2.084587 0.697127-4.276101 0.852422-6.433638 0.378144-5.291412 0.498062-10.608807 1.012314-15.891226 0.600593-6.166819 1.570535-12.299661 2.262066-18.46548 0.580606-5.173492 0.974739-10.369969 1.483994-15.558451 0.757886-7.731758 1.538357-15.458519 2.316429-23.18528 0.319783-3.173848 0.828438-6.332706 0.952354-9.511551 0.263821-6.824373 3.103896-12.446561 7.398384-17.591073 7.769133-9.311687 17.159366-16.494817 28.18589-21.40049 8.032554-3.575576 16.301947-6.625508 24.459816-9.923272 9.160189-3.703489 18.312584-7.424966 27.471774-11.129454 9.735399-3.930335 19.474196-7.851677 29.212594-11.77002 1.217774-0.490667 2.444343-0.962348 3.686501-1.384062 3.695095-1.257148 7.475931 0.556623 8.565593 4.413008 2.765125 9.791361 5.385948 19.628692 8.02356 29.45403 3.258791 12.137771 6.49 24.283536 9.708418 36.434298 5.468292 20.646002 10.92859 41.297001 16.370901 61.947799 4.91207 18.641361 9.772374 37.297712 14.738008 55.922884 0.351362 1.321104 1.392656 2.454336 2.113167 3.675508C468.389216 724.968863 468.660432 724.910902 468.928251 724.858938zM607.703961 363.782148c-1.237161-6.591931-2.487314-13.206046-4.238127-19.671663-2.673188-9.846724-7.324034-18.825636-12.670409-27.514745-6.791395-11.039515-14.952862-20.87085-25.041022-28.941378-10.542852-8.431683-22.259908-14.916886-35.498932-18.032174-7.65481-1.79918-15.467513-3.061524-23.279217-4.040261-6.301727-0.789465-12.533902 0.731904-18.772272 1.74082-8.523621 1.377066-16.905938 3.252195-24.485799 7.421968-6.82837 3.757452-13.700711 7.642818-19.834552 12.400992-5.949966 4.61587-11.375288 10.076168-16.305345 15.791294-4.314475 5.002009-7.871063 10.72213-11.321724 16.394285-4.956639 8.147476-9.126212 16.723062-11.261365 26.102702-1.403049 6.167818-2.550271 12.393997-3.764048 18.606385-0.976338 5.001009-2.283852 9.983631-2.693774 15.035806-0.32478 4.018276 0.421714 8.135884 0.802456 12.19713 0.583604 6.187205 0.789864 12.461951 2.001043 18.527838 2.225091 11.141446 5.567225 22.022069 10.50188 32.287509 2.911426 6.060891 6.484603 11.800399 9.715813 17.708394 6.931301 12.681402 16.141456 23.410528 27.452387 32.383044 10.910603 8.655132 22.819528 15.404955 36.525236 18.376541 5.961358 1.293523 12.08021 2.125959 18.164085 2.49271 7.251084 0.437304 14.298306-1.290725 21.314549-3.132476 15.673373-4.11561 29.090277-12.189136 40.744375-23.202669 4.92566-4.653845 9.443597-9.804752 13.700711-15.08917 9.359654-11.612527 16.099085-24.759613 21.147662-38.727743 3.685501-10.193089 6.185806-20.712957 7.177134-31.561002 0.644563-7.047222 1.513974-14.07086 2.349407-21.69669C609.379824 374.655775 608.72227 369.186484 607.703961 363.782148z"  /></svg>