<?xml version="1.0" encoding="UTF-8"?>
<svg width="250px" height="239px" viewBox="0 0 250 239" version="1.1" xmlns="http://www.w3.org/2000/svg" xmlns:xlink="http://www.w3.org/1999/xlink">
    <title>Group 324 Copy</title>
    <defs>
        <filter id="filter-1">
            <feColorMatrix in="SourceGraphic" type="matrix" values="0 0 0 0 1.000000 0 0 0 0 1.000000 0 0 0 0 1.000000 0 0 0 1.000000 0"></feColorMatrix>
        </filter>
    </defs>
    <g id="Style" stroke="none" stroke-width="1" fill="none" fill-rule="evenodd" opacity="0.18">
        <g id="Styles" transform="translate(-972.000000, -1484.000000)">
            <g filter="url(#filter-1)" id="Group-324-Copy">
                <g transform="translate(972.000000, 1484.000000)">
                    <polygon id="Fill-1" fill="#FFFFFF" points="3.5001 0.0003 1.7501 3.0308 0.0001 6.0623 3.5001 6.0623 7.0001 6.0623 5.2501 3.0308"></polygon>
                    <polygon id="Fill-2" fill="#FFFFFF" points="18.6876 0.0003 16.9376 3.0308 15.1876 6.0623 18.6876 6.0623 22.1876 6.0623 20.4376 3.0308"></polygon>
                    <polygon id="Fill-3" fill="#FFFFFF" points="33.8751 0.0003 32.1251 3.0308 30.3751 6.0623 33.8751 6.0623 37.3751 6.0623 35.6251 3.0308"></polygon>
                    <polygon id="Fill-4" fill="#FFFFFF" points="49.0626 0.0003 47.3126 3.0308 45.5626 6.0623 49.0626 6.0623 52.5626 6.0623 50.8126 3.0308"></polygon>
                    <polygon id="Fill-5" fill="#FFFFFF" points="64.2501 0.0003 62.5001 3.0308 60.7501 6.0623 64.2501 6.0623 67.7501 6.0623 66.0001 3.0308"></polygon>
                    <polygon id="Fill-6" fill="#FFFFFF" points="79.4376 0.0003 77.6876 3.0308 75.9376 6.0623 79.4376 6.0623 82.9376 6.0623 81.1876 3.0308"></polygon>
                    <polygon id="Fill-7" fill="#FFFFFF" points="94.6251 0.0003 92.8751 3.0308 91.1251 6.0623 94.6251 6.0623 98.1251 6.0623 96.3751 3.0308"></polygon>
                    <polygon id="Fill-8" fill="#FFFFFF" points="109.8126 0.0003 108.0626 3.0308 106.3126 6.0623 109.8126 6.0623 113.3126 6.0623 111.5626 3.0308"></polygon>
                    <polygon id="Fill-9" fill="#FFFFFF" points="125.0001 0.0003 123.2501 3.0308 121.5001 6.0623 125.0001 6.0623 128.5001 6.0623 126.7501 3.0308"></polygon>
                    <polygon id="Fill-10" fill="#FFFFFF" points="140.1876 0.0003 138.4376 3.0308 136.6876 6.0623 140.1876 6.0623 143.6876 6.0623 141.9376 3.0308"></polygon>
                    <polygon id="Fill-11" fill="#FFFFFF" points="155.3751 0.0003 153.6251 3.0308 151.8751 6.0623 155.3751 6.0623 158.8751 6.0623 157.1251 3.0308"></polygon>
                    <polygon id="Fill-12" fill="#FFFFFF" points="170.5626 0.0003 168.8126 3.0308 167.0626 6.0623 170.5626 6.0623 174.0626 6.0623 172.3126 3.0308"></polygon>
                    <polygon id="Fill-13" fill="#FFFFFF" points="185.7501 0.0003 184.0001 3.0308 182.2501 6.0623 185.7501 6.0623 189.2501 6.0623 187.5001 3.0308"></polygon>
                    <polygon id="Fill-14" fill="#FFFFFF" points="200.9376 0.0003 199.1876 3.0308 197.4376 6.0623 200.9376 6.0623 204.4376 6.0623 202.6876 3.0308"></polygon>
                    <polygon id="Fill-15" fill="#FFFFFF" points="216.1251 0.0003 214.3751 3.0308 212.6251 6.0623 216.1251 6.0623 219.6251 6.0623 217.8751 3.0308"></polygon>
                    <polygon id="Fill-16" fill="#FFFFFF" points="231.3126 0.0003 229.5626 3.0308 227.8126 6.0623 231.3126 6.0623 234.8126 6.0623 233.0626 3.0308"></polygon>
                    <polygon id="Fill-17" fill="#FFFFFF" points="246.5001 0.0003 244.7501 3.0308 243.0001 6.0623 246.5001 6.0623 250.0001 6.0623 248.2501 3.0308"></polygon>
                    <polygon id="Fill-18" fill="#FFFFFF" points="1.75005 15.9348 5e-05 18.9658 3.50005 18.9658 7.00005 18.9658 5.25005 15.9348 3.50005 12.9038"></polygon>
                    <polygon id="Fill-19" fill="#FFFFFF" points="18.6875 12.90375 20.4375 15.93475 22.1875 18.96625 18.6875 18.96625 15.1875 18.96625 16.9375 15.93475"></polygon>
                    <polygon id="Fill-20" fill="#FFFFFF" points="33.875 12.90375 35.625 15.93475 37.375 18.96625 33.875 18.96625 30.375 18.96625 32.125 15.93475"></polygon>
                    <polygon id="Fill-21" fill="#FFFFFF" points="49.0625 12.90375 50.8125 15.93475 52.5625 18.96625 49.0625 18.96625 45.5625 18.96625 47.3125 15.93475"></polygon>
                    <polygon id="Fill-22" fill="#FFFFFF" points="64.25 12.90375 66 15.93475 67.75 18.96625 64.25 18.96625 60.75 18.96625 62.5 15.93475"></polygon>
                    <polygon id="Fill-23" fill="#FFFFFF" points="79.4375 12.90375 81.1875 15.93475 82.9375 18.96625 79.4375 18.96625 75.9375 18.96625 77.6875 15.93475"></polygon>
                    <polygon id="Fill-24" fill="#FFFFFF" points="94.625 12.90375 96.375 15.93475 98.125 18.96625 94.625 18.96625 91.125 18.96625 92.875 15.93475"></polygon>
                    <polygon id="Fill-25" fill="#FFFFFF" points="109.8125 12.90375 111.5625 15.93475 113.3125 18.96625 109.8125 18.96625 106.3125 18.96625 108.0625 15.93475"></polygon>
                    <polygon id="Fill-26" fill="#FFFFFF" points="125 12.90375 126.75 15.93475 128.5 18.96625 125 18.96625 121.5 18.96625 123.25 15.93475"></polygon>
                    <polygon id="Fill-27" fill="#FFFFFF" points="140.1875 12.90375 141.9375 15.93475 143.6875 18.96625 140.1875 18.96625 136.6875 18.96625 138.4375 15.93475"></polygon>
                    <polygon id="Fill-28" fill="#FFFFFF" points="155.375 12.90375 157.125 15.93475 158.875 18.96625 155.375 18.96625 151.875 18.96625 153.625 15.93475"></polygon>
                    <polygon id="Fill-29" fill="#FFFFFF" points="170.5625 12.90375 172.3125 15.93475 174.0625 18.96625 170.5625 18.96625 167.0625 18.96625 168.8125 15.93475"></polygon>
                    <polygon id="Fill-30" fill="#FFFFFF" points="185.75 12.90375 187.5 15.93475 189.25 18.96625 185.75 18.96625 182.25 18.96625 184 15.93475"></polygon>
                    <polygon id="Fill-31" fill="#FFFFFF" points="200.9375 12.90375 202.6875 15.93475 204.4375 18.96625 200.9375 18.96625 197.4375 18.96625 199.1875 15.93475"></polygon>
                    <polygon id="Fill-32" fill="#FFFFFF" points="216.125 12.90375 217.875 15.93475 219.625 18.96625 216.125 18.96625 212.625 18.96625 214.375 15.93475"></polygon>
                    <polygon id="Fill-33" fill="#FFFFFF" points="231.3125 12.90375 233.0625 15.93475 234.8125 18.96625 231.3125 18.96625 227.8125 18.96625 229.5625 15.93475"></polygon>
                    <polygon id="Fill-34" fill="#FFFFFF" points="244.75005 15.9348 243.00005 18.9658 246.50005 18.9658 250.00005 18.9658 248.25005 15.9348 246.50005 12.9038"></polygon>
                    <polygon id="Fill-35" fill="#FFFFFF" points="1.75005 28.83855 5e-05 31.86955 3.50005 31.86955 7.00005 31.86955 5.25005 28.83855 3.50005 25.80755"></polygon>
                    <polygon id="Fill-36" fill="#FFFFFF" points="18.6875 25.80755 20.4375 28.83855 22.1875 31.86955 18.6875 31.86955 15.1875 31.86955 16.9375 28.83855"></polygon>
                    <polygon id="Fill-37" fill="#FFFFFF" points="33.875 25.80755 35.625 28.83855 37.375 31.86955 33.875 31.86955 30.375 31.86955 32.125 28.83855"></polygon>
                    <polygon id="Fill-38" fill="#FFFFFF" points="49.0625 25.80755 50.8125 28.83855 52.5625 31.86955 49.0625 31.86955 45.5625 31.86955 47.3125 28.83855"></polygon>
                    <polygon id="Fill-39" fill="#FFFFFF" points="64.25 25.80755 66 28.83855 67.75 31.86955 64.25 31.86955 60.75 31.86955 62.5 28.83855"></polygon>
                    <polygon id="Fill-40" fill="#FFFFFF" points="79.4375 25.80755 81.1875 28.83855 82.9375 31.86955 79.4375 31.86955 75.9375 31.86955 77.6875 28.83855"></polygon>
                    <polygon id="Fill-41" fill="#FFFFFF" points="94.625 25.80755 96.375 28.83855 98.125 31.86955 94.625 31.86955 91.125 31.86955 92.875 28.83855"></polygon>
                    <polygon id="Fill-42" fill="#FFFFFF" points="109.8125 25.80755 111.5625 28.83855 113.3125 31.86955 109.8125 31.86955 106.3125 31.86955 108.0625 28.83855"></polygon>
                    <polygon id="Fill-43" fill="#FFFFFF" points="125 25.80755 126.75 28.83855 128.5 31.86955 125 31.86955 121.5 31.86955 123.25 28.83855"></polygon>
                    <polygon id="Fill-44" fill="#FFFFFF" points="140.1875 25.80755 141.9375 28.83855 143.6875 31.86955 140.1875 31.86955 136.6875 31.86955 138.4375 28.83855"></polygon>
                    <polygon id="Fill-45" fill="#FFFFFF" points="155.375 25.80755 157.125 28.83855 158.875 31.86955 155.375 31.86955 151.875 31.86955 153.625 28.83855"></polygon>
                    <polygon id="Fill-46" fill="#FFFFFF" points="170.5625 25.80755 172.3125 28.83855 174.0625 31.86955 170.5625 31.86955 167.0625 31.86955 168.8125 28.83855"></polygon>
                    <polygon id="Fill-47" fill="#FFFFFF" points="185.75 25.80755 187.5 28.83855 189.25 31.86955 185.75 31.86955 182.25 31.86955 184 28.83855"></polygon>
                    <polygon id="Fill-48" fill="#FFFFFF" points="200.9375 25.80755 202.6875 28.83855 204.4375 31.86955 200.9375 31.86955 197.4375 31.86955 199.1875 28.83855"></polygon>
                    <polygon id="Fill-49" fill="#FFFFFF" points="216.125 25.80755 217.875 28.83855 219.625 31.86955 216.125 31.86955 212.625 31.86955 214.375 28.83855"></polygon>
                    <polygon id="Fill-50" fill="#FFFFFF" points="231.3125 25.80755 233.0625 28.83855 234.8125 31.86955 231.3125 31.86955 227.8125 31.86955 229.5625 28.83855"></polygon>
                    <polygon id="Fill-51" fill="#FFFFFF" points="244.75005 28.83855 243.00005 31.86955 246.50005 31.86955 250.00005 31.86955 248.25005 28.83855 246.50005 25.80755"></polygon>
                    <polygon id="Fill-52" fill="#FFFFFF" points="1.75005 41.7423 5e-05 44.7728 3.50005 44.7728 7.00005 44.7728 5.25005 41.7423 3.50005 38.7113"></polygon>
                    <polygon id="Fill-53" fill="#FFFFFF" points="18.6875 38.7111 20.4375 41.7421 22.1875 44.7731 18.6875 44.7731 15.1875 44.7731 16.9375 41.7421"></polygon>
                    <polygon id="Fill-54" fill="#FFFFFF" points="33.875 38.7111 35.625 41.7421 37.375 44.7731 33.875 44.7731 30.375 44.7731 32.125 41.7421"></polygon>
                    <polygon id="Fill-55" fill="#FFFFFF" points="49.0625 38.7111 50.8125 41.7421 52.5625 44.7731 49.0625 44.7731 45.5625 44.7731 47.3125 41.7421"></polygon>
                    <polygon id="Fill-56" fill="#FFFFFF" points="64.25 38.7111 66 41.7421 67.75 44.7731 64.25 44.7731 60.75 44.7731 62.5 41.7421"></polygon>
                    <polygon id="Fill-57" fill="#FFFFFF" points="79.4375 38.7111 81.1875 41.7421 82.9375 44.7731 79.4375 44.7731 75.9375 44.7731 77.6875 41.7421"></polygon>
                    <polygon id="Fill-58" fill="#FFFFFF" points="94.625 38.7111 96.375 41.7421 98.125 44.7731 94.625 44.7731 91.125 44.7731 92.875 41.7421"></polygon>
                    <polygon id="Fill-59" fill="#FFFFFF" points="109.8125 38.7111 111.5625 41.7421 113.3125 44.7731 109.8125 44.7731 106.3125 44.7731 108.0625 41.7421"></polygon>
                    <polygon id="Fill-60" fill="#FFFFFF" points="125 38.7111 126.75 41.7421 128.5 44.7731 125 44.7731 121.5 44.7731 123.25 41.7421"></polygon>
                    <polygon id="Fill-61" fill="#FFFFFF" points="140.1875 38.7111 141.9375 41.7421 143.6875 44.7731 140.1875 44.7731 136.6875 44.7731 138.4375 41.7421"></polygon>
                    <polygon id="Fill-62" fill="#FFFFFF" points="155.375 38.7111 157.125 41.7421 158.875 44.7731 155.375 44.7731 151.875 44.7731 153.625 41.7421"></polygon>
                    <polygon id="Fill-63" fill="#FFFFFF" points="170.5625 38.7111 172.3125 41.7421 174.0625 44.7731 170.5625 44.7731 167.0625 44.7731 168.8125 41.7421"></polygon>
                    <polygon id="Fill-64" fill="#FFFFFF" points="185.75 38.7111 187.5 41.7421 189.25 44.7731 185.75 44.7731 182.25 44.7731 184 41.7421"></polygon>
                    <polygon id="Fill-65" fill="#FFFFFF" points="200.9375 38.7111 202.6875 41.7421 204.4375 44.7731 200.9375 44.7731 197.4375 44.7731 199.1875 41.7421"></polygon>
                    <polygon id="Fill-66" fill="#FFFFFF" points="216.125 38.7111 217.875 41.7421 219.625 44.7731 216.125 44.7731 212.625 44.7731 214.375 41.7421"></polygon>
                    <polygon id="Fill-67" fill="#FFFFFF" points="231.3125 38.7111 233.0625 41.7421 234.8125 44.7731 231.3125 44.7731 227.8125 44.7731 229.5625 41.7421"></polygon>
                    <polygon id="Fill-68" fill="#FFFFFF" points="244.75005 41.7423 243.00005 44.7728 246.50005 44.7728 250.00005 44.7728 248.25005 41.7423 246.50005 38.7113"></polygon>
                    <polygon id="Fill-69" fill="#FFFFFF" points="1.75005 54.6456 5e-05 57.6766 3.50005 57.6766 7.00005 57.6766 5.25005 54.6456 3.50005 51.6151"></polygon>
                    <polygon id="Fill-70" fill="#FFFFFF" points="18.6875 51.61465 20.4375 54.64565 22.1875 57.67715 18.6875 57.67715 15.1875 57.67715 16.9375 54.64565"></polygon>
                    <polygon id="Fill-71" fill="#FFFFFF" points="33.875 51.61465 35.625 54.64565 37.375 57.67715 33.875 57.67715 30.375 57.67715 32.125 54.64565"></polygon>
                    <polygon id="Fill-72" fill="#FFFFFF" points="49.0625 51.61465 50.8125 54.64565 52.5625 57.67715 49.0625 57.67715 45.5625 57.67715 47.3125 54.64565"></polygon>
                    <polygon id="Fill-73" fill="#FFFFFF" points="64.25 51.61465 66 54.64565 67.75 57.67715 64.25 57.67715 60.75 57.67715 62.5 54.64565"></polygon>
                    <polygon id="Fill-74" fill="#FFFFFF" points="79.4375 51.61465 81.1875 54.64565 82.9375 57.67715 79.4375 57.67715 75.9375 57.67715 77.6875 54.64565"></polygon>
                    <polygon id="Fill-75" fill="#FFFFFF" points="94.625 51.61465 96.375 54.64565 98.125 57.67715 94.625 57.67715 91.125 57.67715 92.875 54.64565"></polygon>
                    <polygon id="Fill-76" fill="#FFFFFF" points="109.8125 51.61465 111.5625 54.64565 113.3125 57.67715 109.8125 57.67715 106.3125 57.67715 108.0625 54.64565"></polygon>
                    <polygon id="Fill-77" fill="#FFFFFF" points="125 51.61465 126.75 54.64565 128.5 57.67715 125 57.67715 121.5 57.67715 123.25 54.64565"></polygon>
                    <polygon id="Fill-78" fill="#FFFFFF" points="140.1875 51.61465 141.9375 54.64565 143.6875 57.67715 140.1875 57.67715 136.6875 57.67715 138.4375 54.64565"></polygon>
                    <polygon id="Fill-79" fill="#FFFFFF" points="155.375 51.61465 157.125 54.64565 158.875 57.67715 155.375 57.67715 151.875 57.67715 153.625 54.64565"></polygon>
                    <polygon id="Fill-80" fill="#FFFFFF" points="170.5625 51.61465 172.3125 54.64565 174.0625 57.67715 170.5625 57.67715 167.0625 57.67715 168.8125 54.64565"></polygon>
                    <polygon id="Fill-81" fill="#FFFFFF" points="185.75 51.61465 187.5 54.64565 189.25 57.67715 185.75 57.67715 182.25 57.67715 184 54.64565"></polygon>
                    <polygon id="Fill-82" fill="#FFFFFF" points="200.9375 51.61465 202.6875 54.64565 204.4375 57.67715 200.9375 57.67715 197.4375 57.67715 199.1875 54.64565"></polygon>
                    <polygon id="Fill-83" fill="#FFFFFF" points="216.125 51.61465 217.875 54.64565 219.625 57.67715 216.125 57.67715 212.625 57.67715 214.375 54.64565"></polygon>
                    <polygon id="Fill-84" fill="#FFFFFF" points="231.3125 51.61465 233.0625 54.64565 234.8125 57.67715 231.3125 57.67715 227.8125 57.67715 229.5625 54.64565"></polygon>
                    <polygon id="Fill-85" fill="#FFFFFF" points="244.75005 54.6456 243.00005 57.6766 246.50005 57.6766 250.00005 57.6766 248.25005 54.6456 246.50005 51.6151"></polygon>
                    <polygon id="Fill-86" fill="#FFFFFF" points="1.75005 67.54935 5e-05 70.58035 3.50005 70.58035 7.00005 70.58035 5.25005 67.54935 3.50005 64.51835"></polygon>
                    <polygon id="Fill-87" fill="#FFFFFF" points="18.6875 64.51825 20.4375 67.54925 22.1875 70.58075 18.6875 70.58075 15.1875 70.58075 16.9375 67.54925"></polygon>
                    <polygon id="Fill-88" fill="#FFFFFF" points="33.875 64.51825 35.625 67.54925 37.375 70.58075 33.875 70.58075 30.375 70.58075 32.125 67.54925"></polygon>
                    <polygon id="Fill-89" fill="#FFFFFF" points="49.0625 64.51825 50.8125 67.54925 52.5625 70.58075 49.0625 70.58075 45.5625 70.58075 47.3125 67.54925"></polygon>
                    <polygon id="Fill-90" fill="#FFFFFF" points="64.25 64.51825 66 67.54925 67.75 70.58075 64.25 70.58075 60.75 70.58075 62.5 67.54925"></polygon>
                    <polygon id="Fill-91" fill="#FFFFFF" points="79.4375 64.51825 81.1875 67.54925 82.9375 70.58075 79.4375 70.58075 75.9375 70.58075 77.6875 67.54925"></polygon>
                    <polygon id="Fill-92" fill="#FFFFFF" points="94.625 64.51825 96.375 67.54925 98.125 70.58075 94.625 70.58075 91.125 70.58075 92.875 67.54925"></polygon>
                    <polygon id="Fill-93" fill="#FFFFFF" points="109.8125 64.51825 111.5625 67.54925 113.3125 70.58075 109.8125 70.58075 106.3125 70.58075 108.0625 67.54925"></polygon>
                    <polygon id="Fill-94" fill="#FFFFFF" points="125 64.51825 126.75 67.54925 128.5 70.58075 125 70.58075 121.5 70.58075 123.25 67.54925"></polygon>
                    <polygon id="Fill-95" fill="#FFFFFF" points="140.1875 64.51825 141.9375 67.54925 143.6875 70.58075 140.1875 70.58075 136.6875 70.58075 138.4375 67.54925"></polygon>
                    <polygon id="Fill-96" fill="#FFFFFF" points="155.375 64.51825 157.125 67.54925 158.875 70.58075 155.375 70.58075 151.875 70.58075 153.625 67.54925"></polygon>
                    <polygon id="Fill-97" fill="#FFFFFF" points="170.5625 64.51825 172.3125 67.54925 174.0625 70.58075 170.5625 70.58075 167.0625 70.58075 168.8125 67.54925"></polygon>
                    <polygon id="Fill-98" fill="#FFFFFF" points="185.75 64.51825 187.5 67.54925 189.25 70.58075 185.75 70.58075 182.25 70.58075 184 67.54925"></polygon>
                    <polygon id="Fill-99" fill="#FFFFFF" points="200.9375 64.51825 202.6875 67.54925 204.4375 70.58075 200.9375 70.58075 197.4375 70.58075 199.1875 67.54925"></polygon>
                    <polygon id="Fill-100" fill="#FFFFFF" points="216.125 64.51825 217.875 67.54925 219.625 70.58075 216.125 70.58075 212.625 70.58075 214.375 67.54925"></polygon>
                    <polygon id="Fill-101" fill="#FFFFFF" points="231.3125 64.51825 233.0625 67.54925 234.8125 70.58075 231.3125 70.58075 227.8125 70.58075 229.5625 67.54925"></polygon>
                    <polygon id="Fill-102" fill="#FFFFFF" points="244.75005 67.54935 243.00005 70.58035 246.50005 70.58035 250.00005 70.58035 248.25005 67.54935 246.50005 64.51835"></polygon>
                    <polygon id="Fill-103" fill="#FFFFFF" points="1.75005 80.4531 5e-05 83.4836 3.50005 83.4836 7.00005 83.4836 5.25005 80.4531 3.50005 77.4221"></polygon>
                    <polygon id="Fill-104" fill="#FFFFFF" points="18.6875 77.4218 20.4375 80.4528 22.1875 83.4843 18.6875 83.4843 15.1875 83.4843 16.9375 80.4528"></polygon>
                    <polygon id="Fill-105" fill="#FFFFFF" points="33.875 77.4218 35.625 80.4528 37.375 83.4843 33.875 83.4843 30.375 83.4843 32.125 80.4528"></polygon>
                    <polygon id="Fill-106" fill="#FFFFFF" points="49.0625 77.4218 50.8125 80.4528 52.5625 83.4843 49.0625 83.4843 45.5625 83.4843 47.3125 80.4528"></polygon>
                    <polygon id="Fill-107" fill="#FFFFFF" points="64.25 77.4218 66 80.4528 67.75 83.4843 64.25 83.4843 60.75 83.4843 62.5 80.4528"></polygon>
                    <polygon id="Fill-108" fill="#FFFFFF" points="79.4375 77.4218 81.1875 80.4528 82.9375 83.4843 79.4375 83.4843 75.9375 83.4843 77.6875 80.4528"></polygon>
                    <polygon id="Fill-109" fill="#FFFFFF" points="94.625 77.4218 96.375 80.4528 98.125 83.4843 94.625 83.4843 91.125 83.4843 92.875 80.4528"></polygon>
                    <polygon id="Fill-110" fill="#FFFFFF" points="109.8125 77.4218 111.5625 80.4528 113.3125 83.4843 109.8125 83.4843 106.3125 83.4843 108.0625 80.4528"></polygon>
                    <polygon id="Fill-111" fill="#FFFFFF" points="125 77.4218 126.75 80.4528 128.5 83.4843 125 83.4843 121.5 83.4843 123.25 80.4528"></polygon>
                    <polygon id="Fill-112" fill="#FFFFFF" points="140.1875 77.4218 141.9375 80.4528 143.6875 83.4843 140.1875 83.4843 136.6875 83.4843 138.4375 80.4528"></polygon>
                    <polygon id="Fill-113" fill="#FFFFFF" points="155.375 77.4218 157.125 80.4528 158.875 83.4843 155.375 83.4843 151.875 83.4843 153.625 80.4528"></polygon>
                    <polygon id="Fill-114" fill="#FFFFFF" points="170.5625 77.4218 172.3125 80.4528 174.0625 83.4843 170.5625 83.4843 167.0625 83.4843 168.8125 80.4528"></polygon>
                    <polygon id="Fill-115" fill="#FFFFFF" points="185.75 77.4218 187.5 80.4528 189.25 83.4843 185.75 83.4843 182.25 83.4843 184 80.4528"></polygon>
                    <polygon id="Fill-116" fill="#FFFFFF" points="200.9375 77.4218 202.6875 80.4528 204.4375 83.4843 200.9375 83.4843 197.4375 83.4843 199.1875 80.4528"></polygon>
                    <polygon id="Fill-117" fill="#FFFFFF" points="216.125 77.4218 217.875 80.4528 219.625 83.4843 216.125 83.4843 212.625 83.4843 214.375 80.4528"></polygon>
                    <polygon id="Fill-118" fill="#FFFFFF" points="231.3125 77.4218 233.0625 80.4528 234.8125 83.4843 231.3125 83.4843 227.8125 83.4843 229.5625 80.4528"></polygon>
                    <polygon id="Fill-119" fill="#FFFFFF" points="244.75005 80.4531 243.00005 83.4836 246.50005 83.4836 250.00005 83.4836 248.25005 80.4531 246.50005 77.4221"></polygon>
                    <polygon id="Fill-120" fill="#FFFFFF" points="1.75005 93.3564 5e-05 96.3874 3.50005 96.3874 7.00005 96.3874 5.25005 93.3564 3.50005 90.3259"></polygon>
                    <polygon id="Fill-121" fill="#FFFFFF" points="18.6875 90.3256 20.4375 93.3566 22.1875 96.3876 18.6875 96.3876 15.1875 96.3876 16.9375 93.3566"></polygon>
                    <polygon id="Fill-122" fill="#FFFFFF" points="33.875 90.3256 35.625 93.3566 37.375 96.3876 33.875 96.3876 30.375 96.3876 32.125 93.3566"></polygon>
                    <polygon id="Fill-123" fill="#FFFFFF" points="49.0625 90.3256 50.8125 93.3566 52.5625 96.3876 49.0625 96.3876 45.5625 96.3876 47.3125 93.3566"></polygon>
                    <polygon id="Fill-124" fill="#FFFFFF" points="64.25 90.3256 66 93.3566 67.75 96.3876 64.25 96.3876 60.75 96.3876 62.5 93.3566"></polygon>
                    <polygon id="Fill-125" fill="#FFFFFF" points="79.4375 90.3256 81.1875 93.3566 82.9375 96.3876 79.4375 96.3876 75.9375 96.3876 77.6875 93.3566"></polygon>
                    <polygon id="Fill-126" fill="#FFFFFF" points="94.625 90.3256 96.375 93.3566 98.125 96.3876 94.625 96.3876 91.125 96.3876 92.875 93.3566"></polygon>
                    <polygon id="Fill-127" fill="#FFFFFF" points="109.8125 90.3256 111.5625 93.3566 113.3125 96.3876 109.8125 96.3876 106.3125 96.3876 108.0625 93.3566"></polygon>
                    <polygon id="Fill-128" fill="#FFFFFF" points="125 90.3256 126.75 93.3566 128.5 96.3876 125 96.3876 121.5 96.3876 123.25 93.3566"></polygon>
                    <polygon id="Fill-129" fill="#FFFFFF" points="140.1875 90.3256 141.9375 93.3566 143.6875 96.3876 140.1875 96.3876 136.6875 96.3876 138.4375 93.3566"></polygon>
                    <polygon id="Fill-130" fill="#FFFFFF" points="155.375 90.3256 157.125 93.3566 158.875 96.3876 155.375 96.3876 151.875 96.3876 153.625 93.3566"></polygon>
                    <polygon id="Fill-131" fill="#FFFFFF" points="170.5625 90.3256 172.3125 93.3566 174.0625 96.3876 170.5625 96.3876 167.0625 96.3876 168.8125 93.3566"></polygon>
                    <polygon id="Fill-132" fill="#FFFFFF" points="185.75 90.3256 187.5 93.3566 189.25 96.3876 185.75 96.3876 182.25 96.3876 184 93.3566"></polygon>
                    <polygon id="Fill-133" fill="#FFFFFF" points="200.9375 90.3256 202.6875 93.3566 204.4375 96.3876 200.9375 96.3876 197.4375 96.3876 199.1875 93.3566"></polygon>
                    <polygon id="Fill-134" fill="#FFFFFF" points="216.125 90.3256 217.875 93.3566 219.625 96.3876 216.125 96.3876 212.625 96.3876 214.375 93.3566"></polygon>
                    <polygon id="Fill-135" fill="#FFFFFF" points="231.3125 90.3256 233.0625 93.3566 234.8125 96.3876 231.3125 96.3876 227.8125 96.3876 229.5625 93.3566"></polygon>
                    <polygon id="Fill-136" fill="#FFFFFF" points="244.75005 93.3564 243.00005 96.3874 246.50005 96.3874 250.00005 96.3874 248.25005 93.3564 246.50005 90.3259"></polygon>
                    <polygon id="Fill-137" fill="#FFFFFF" points="1.75005 106.26015 5e-05 109.29115 3.50005 109.29115 7.00005 109.29115 5.25005 106.26015 3.50005 103.22965"></polygon>
                    <polygon id="Fill-138" fill="#FFFFFF" points="18.6875 103.22915 20.4375 106.26015 22.1875 109.29165 18.6875 109.29165 15.1875 109.29165 16.9375 106.26015"></polygon>
                    <polygon id="Fill-139" fill="#FFFFFF" points="33.875 103.22915 35.625 106.26015 37.375 109.29165 33.875 109.29165 30.375 109.29165 32.125 106.26015"></polygon>
                    <polygon id="Fill-140" fill="#FFFFFF" points="49.0625 103.22915 50.8125 106.26015 52.5625 109.29165 49.0625 109.29165 45.5625 109.29165 47.3125 106.26015"></polygon>
                    <polygon id="Fill-141" fill="#FFFFFF" points="64.25 103.22915 66 106.26015 67.75 109.29165 64.25 109.29165 60.75 109.29165 62.5 106.26015"></polygon>
                    <polygon id="Fill-142" fill="#FFFFFF" points="79.4375 103.22915 81.1875 106.26015 82.9375 109.29165 79.4375 109.29165 75.9375 109.29165 77.6875 106.26015"></polygon>
                    <polygon id="Fill-143" fill="#FFFFFF" points="94.625 103.22915 96.375 106.26015 98.125 109.29165 94.625 109.29165 91.125 109.29165 92.875 106.26015"></polygon>
                    <polygon id="Fill-144" fill="#FFFFFF" points="109.8125 103.22915 111.5625 106.26015 113.3125 109.29165 109.8125 109.29165 106.3125 109.29165 108.0625 106.26015"></polygon>
                    <polygon id="Fill-145" fill="#FFFFFF" points="125 103.22915 126.75 106.26015 128.5 109.29165 125 109.29165 121.5 109.29165 123.25 106.26015"></polygon>
                    <polygon id="Fill-146" fill="#FFFFFF" points="140.1875 103.22915 141.9375 106.26015 143.6875 109.29165 140.1875 109.29165 136.6875 109.29165 138.4375 106.26015"></polygon>
                    <polygon id="Fill-147" fill="#FFFFFF" points="155.375 103.22915 157.125 106.26015 158.875 109.29165 155.375 109.29165 151.875 109.29165 153.625 106.26015"></polygon>
                    <polygon id="Fill-148" fill="#FFFFFF" points="170.5625 103.22915 172.3125 106.26015 174.0625 109.29165 170.5625 109.29165 167.0625 109.29165 168.8125 106.26015"></polygon>
                    <polygon id="Fill-149" fill="#FFFFFF" points="185.75 103.22915 187.5 106.26015 189.25 109.29165 185.75 109.29165 182.25 109.29165 184 106.26015"></polygon>
                    <polygon id="Fill-150" fill="#FFFFFF" points="200.9375 103.22915 202.6875 106.26015 204.4375 109.29165 200.9375 109.29165 197.4375 109.29165 199.1875 106.26015"></polygon>
                    <polygon id="Fill-151" fill="#FFFFFF" points="216.125 103.22915 217.875 106.26015 219.625 109.29165 216.125 109.29165 212.625 109.29165 214.375 106.26015"></polygon>
                    <polygon id="Fill-152" fill="#FFFFFF" points="231.3125 103.22915 233.0625 106.26015 234.8125 109.29165 231.3125 109.29165 227.8125 109.29165 229.5625 106.26015"></polygon>
                    <polygon id="Fill-153" fill="#FFFFFF" points="244.75005 106.26015 243.00005 109.29115 246.50005 109.29115 250.00005 109.29115 248.25005 106.26015 246.50005 103.22965"></polygon>
                    <polygon id="Fill-154" fill="#FFFFFF" points="1.75005 119.1639 5e-05 122.1949 3.50005 122.1949 7.00005 122.1949 5.25005 119.1639 3.50005 116.1329"></polygon>
                    <polygon id="Fill-155" fill="#FFFFFF" points="18.6875 116.13275 20.4375 119.16375 22.1875 122.19525 18.6875 122.19525 15.1875 122.19525 16.9375 119.16375"></polygon>
                    <polygon id="Fill-156" fill="#FFFFFF" points="33.875 116.13275 35.625 119.16375 37.375 122.19525 33.875 122.19525 30.375 122.19525 32.125 119.16375"></polygon>
                    <polygon id="Fill-157" fill="#FFFFFF" points="49.0625 116.13275 50.8125 119.16375 52.5625 122.19525 49.0625 122.19525 45.5625 122.19525 47.3125 119.16375"></polygon>
                    <polygon id="Fill-158" fill="#FFFFFF" points="64.25 116.13275 66 119.16375 67.75 122.19525 64.25 122.19525 60.75 122.19525 62.5 119.16375"></polygon>
                    <polygon id="Fill-159" fill="#FFFFFF" points="79.4375 116.13275 81.1875 119.16375 82.9375 122.19525 79.4375 122.19525 75.9375 122.19525 77.6875 119.16375"></polygon>
                    <polygon id="Fill-160" fill="#FFFFFF" points="94.625 116.13275 96.375 119.16375 98.125 122.19525 94.625 122.19525 91.125 122.19525 92.875 119.16375"></polygon>
                    <polygon id="Fill-161" fill="#FFFFFF" points="109.8125 116.13275 111.5625 119.16375 113.3125 122.19525 109.8125 122.19525 106.3125 122.19525 108.0625 119.16375"></polygon>
                    <polygon id="Fill-162" fill="#FFFFFF" points="125 116.13275 126.75 119.16375 128.5 122.19525 125 122.19525 121.5 122.19525 123.25 119.16375"></polygon>
                    <polygon id="Fill-163" fill="#FFFFFF" points="140.1875 116.13275 141.9375 119.16375 143.6875 122.19525 140.1875 122.19525 136.6875 122.19525 138.4375 119.16375"></polygon>
                    <polygon id="Fill-164" fill="#FFFFFF" points="155.375 116.13275 157.125 119.16375 158.875 122.19525 155.375 122.19525 151.875 122.19525 153.625 119.16375"></polygon>
                    <polygon id="Fill-165" fill="#FFFFFF" points="170.5625 116.13275 172.3125 119.16375 174.0625 122.19525 170.5625 122.19525 167.0625 122.19525 168.8125 119.16375"></polygon>
                    <polygon id="Fill-166" fill="#FFFFFF" points="185.75 116.13275 187.5 119.16375 189.25 122.19525 185.75 122.19525 182.25 122.19525 184 119.16375"></polygon>
                    <polygon id="Fill-167" fill="#FFFFFF" points="200.9375 116.13275 202.6875 119.16375 204.4375 122.19525 200.9375 122.19525 197.4375 122.19525 199.1875 119.16375"></polygon>
                    <polygon id="Fill-168" fill="#FFFFFF" points="216.125 116.13275 217.875 119.16375 219.625 122.19525 216.125 122.19525 212.625 122.19525 214.375 119.16375"></polygon>
                    <polygon id="Fill-169" fill="#FFFFFF" points="231.3125 116.13275 233.0625 119.16375 234.8125 122.19525 231.3125 122.19525 227.8125 122.19525 229.5625 119.16375"></polygon>
                    <polygon id="Fill-170" fill="#FFFFFF" points="244.75005 119.1639 243.00005 122.1949 246.50005 122.1949 250.00005 122.1949 248.25005 119.1639 246.50005 116.1329"></polygon>
                    <polygon id="Fill-171" fill="#FFFFFF" points="1.75005 132.0672 5e-05 135.0982 3.50005 135.0982 7.00005 135.0982 5.25005 132.0672 3.50005 129.0367"></polygon>
                    <polygon id="Fill-172" fill="#FFFFFF" points="18.6875 129.03655 20.4375 132.06755 22.1875 135.09855 18.6875 135.09855 15.1875 135.09855 16.9375 132.06755"></polygon>
                    <polygon id="Fill-173" fill="#FFFFFF" points="33.875 129.03655 35.625 132.06755 37.375 135.09855 33.875 135.09855 30.375 135.09855 32.125 132.06755"></polygon>
                    <polygon id="Fill-174" fill="#FFFFFF" points="49.0625 129.03655 50.8125 132.06755 52.5625 135.09855 49.0625 135.09855 45.5625 135.09855 47.3125 132.06755"></polygon>
                    <polygon id="Fill-175" fill="#FFFFFF" points="64.25 129.03655 66 132.06755 67.75 135.09855 64.25 135.09855 60.75 135.09855 62.5 132.06755"></polygon>
                    <polygon id="Fill-176" fill="#FFFFFF" points="79.4375 129.03655 81.1875 132.06755 82.9375 135.09855 79.4375 135.09855 75.9375 135.09855 77.6875 132.06755"></polygon>
                    <polygon id="Fill-177" fill="#FFFFFF" points="94.625 129.03655 96.375 132.06755 98.125 135.09855 94.625 135.09855 91.125 135.09855 92.875 132.06755"></polygon>
                    <polygon id="Fill-178" fill="#FFFFFF" points="109.8125 129.03655 111.5625 132.06755 113.3125 135.09855 109.8125 135.09855 106.3125 135.09855 108.0625 132.06755"></polygon>
                    <polygon id="Fill-179" fill="#FFFFFF" points="125 129.03655 126.75 132.06755 128.5 135.09855 125 135.09855 121.5 135.09855 123.25 132.06755"></polygon>
                    <polygon id="Fill-180" fill="#FFFFFF" points="140.1875 129.03655 141.9375 132.06755 143.6875 135.09855 140.1875 135.09855 136.6875 135.09855 138.4375 132.06755"></polygon>
                    <polygon id="Fill-181" fill="#FFFFFF" points="155.375 129.03655 157.125 132.06755 158.875 135.09855 155.375 135.09855 151.875 135.09855 153.625 132.06755"></polygon>
                    <polygon id="Fill-182" fill="#FFFFFF" points="170.5625 129.03655 172.3125 132.06755 174.0625 135.09855 170.5625 135.09855 167.0625 135.09855 168.8125 132.06755"></polygon>
                    <polygon id="Fill-183" fill="#FFFFFF" points="185.75 129.03655 187.5 132.06755 189.25 135.09855 185.75 135.09855 182.25 135.09855 184 132.06755"></polygon>
                    <polygon id="Fill-184" fill="#FFFFFF" points="200.9375 129.03655 202.6875 132.06755 204.4375 135.09855 200.9375 135.09855 197.4375 135.09855 199.1875 132.06755"></polygon>
                    <polygon id="Fill-185" fill="#FFFFFF" points="216.125 129.03655 217.875 132.06755 219.625 135.09855 216.125 135.09855 212.625 135.09855 214.375 132.06755"></polygon>
                    <polygon id="Fill-186" fill="#FFFFFF" points="231.3125 129.03655 233.0625 132.06755 234.8125 135.09855 231.3125 135.09855 227.8125 135.09855 229.5625 132.06755"></polygon>
                    <polygon id="Fill-187" fill="#FFFFFF" points="244.75005 132.0672 243.00005 135.0982 246.50005 135.0982 250.00005 135.0982 248.25005 132.0672 246.50005 129.0367"></polygon>
                    <polygon id="Fill-188" fill="#FFFFFF" points="1.75005 144.97095 5e-05 148.00195 3.50005 148.00195 7.00005 148.00195 5.25005 144.97095 3.50005 141.93995"></polygon>
                    <polygon id="Fill-189" fill="#FFFFFF" points="18.6875 141.93985 20.4375 144.97085 22.1875 148.00235 18.6875 148.00235 15.1875 148.00235 16.9375 144.97085"></polygon>
                    <polygon id="Fill-190" fill="#FFFFFF" points="33.875 141.93985 35.625 144.97085 37.375 148.00235 33.875 148.00235 30.375 148.00235 32.125 144.97085"></polygon>
                    <polygon id="Fill-191" fill="#FFFFFF" points="49.0625 141.93985 50.8125 144.97085 52.5625 148.00235 49.0625 148.00235 45.5625 148.00235 47.3125 144.97085"></polygon>
                    <polygon id="Fill-192" fill="#FFFFFF" points="64.25 141.93985 66 144.97085 67.75 148.00235 64.25 148.00235 60.75 148.00235 62.5 144.97085"></polygon>
                    <polygon id="Fill-193" fill="#FFFFFF" points="79.4375 141.93985 81.1875 144.97085 82.9375 148.00235 79.4375 148.00235 75.9375 148.00235 77.6875 144.97085"></polygon>
                    <polygon id="Fill-194" fill="#FFFFFF" points="94.625 141.93985 96.375 144.97085 98.125 148.00235 94.625 148.00235 91.125 148.00235 92.875 144.97085"></polygon>
                    <polygon id="Fill-195" fill="#FFFFFF" points="109.8125 141.93985 111.5625 144.97085 113.3125 148.00235 109.8125 148.00235 106.3125 148.00235 108.0625 144.97085"></polygon>
                    <polygon id="Fill-196" fill="#FFFFFF" points="125 141.93985 126.75 144.97085 128.5 148.00235 125 148.00235 121.5 148.00235 123.25 144.97085"></polygon>
                    <polygon id="Fill-197" fill="#FFFFFF" points="140.1875 141.93985 141.9375 144.97085 143.6875 148.00235 140.1875 148.00235 136.6875 148.00235 138.4375 144.97085"></polygon>
                    <polygon id="Fill-198" fill="#FFFFFF" points="155.375 141.93985 157.125 144.97085 158.875 148.00235 155.375 148.00235 151.875 148.00235 153.625 144.97085"></polygon>
                    <polygon id="Fill-199" fill="#FFFFFF" points="170.5625 141.93985 172.3125 144.97085 174.0625 148.00235 170.5625 148.00235 167.0625 148.00235 168.8125 144.97085"></polygon>
                    <polygon id="Fill-200" fill="#FFFFFF" points="185.75 141.93985 187.5 144.97085 189.25 148.00235 185.75 148.00235 182.25 148.00235 184 144.97085"></polygon>
                    <polygon id="Fill-201" fill="#FFFFFF" points="200.9375 141.93985 202.6875 144.97085 204.4375 148.00235 200.9375 148.00235 197.4375 148.00235 199.1875 144.97085"></polygon>
                    <polygon id="Fill-202" fill="#FFFFFF" points="216.125 141.93985 217.875 144.97085 219.625 148.00235 216.125 148.00235 212.625 148.00235 214.375 144.97085"></polygon>
                    <polygon id="Fill-203" fill="#FFFFFF" points="231.3125 141.93985 233.0625 144.97085 234.8125 148.00235 231.3125 148.00235 227.8125 148.00235 229.5625 144.97085"></polygon>
                    <polygon id="Fill-204" fill="#FFFFFF" points="244.75005 144.97095 243.00005 148.00195 246.50005 148.00195 250.00005 148.00195 248.25005 144.97095 246.50005 141.93995"></polygon>
                    <polygon id="Fill-205" fill="#FFFFFF" points="1.75005 157.87515 5e-05 160.90565 3.50005 160.90565 7.00005 160.90565 5.25005 157.87515 3.50005 154.84365"></polygon>
                    <polygon id="Fill-206" fill="#FFFFFF" points="18.6875 154.84365 20.4375 157.87465 22.1875 160.90565 18.6875 160.90565 15.1875 160.90565 16.9375 157.87465"></polygon>
                    <polygon id="Fill-207" fill="#FFFFFF" points="33.875 154.84365 35.625 157.87465 37.375 160.90565 33.875 160.90565 30.375 160.90565 32.125 157.87465"></polygon>
                    <polygon id="Fill-208" fill="#FFFFFF" points="49.0625 154.84365 50.8125 157.87465 52.5625 160.90565 49.0625 160.90565 45.5625 160.90565 47.3125 157.87465"></polygon>
                    <polygon id="Fill-209" fill="#FFFFFF" points="64.25 154.84365 66 157.87465 67.75 160.90565 64.25 160.90565 60.75 160.90565 62.5 157.87465"></polygon>
                    <polygon id="Fill-210" fill="#FFFFFF" points="79.4375 154.84365 81.1875 157.87465 82.9375 160.90565 79.4375 160.90565 75.9375 160.90565 77.6875 157.87465"></polygon>
                    <polygon id="Fill-211" fill="#FFFFFF" points="94.625 154.84365 96.375 157.87465 98.125 160.90565 94.625 160.90565 91.125 160.90565 92.875 157.87465"></polygon>
                    <polygon id="Fill-212" fill="#FFFFFF" points="109.8125 154.84365 111.5625 157.87465 113.3125 160.90565 109.8125 160.90565 106.3125 160.90565 108.0625 157.87465"></polygon>
                    <polygon id="Fill-213" fill="#FFFFFF" points="125 154.84365 126.75 157.87465 128.5 160.90565 125 160.90565 121.5 160.90565 123.25 157.87465"></polygon>
                    <polygon id="Fill-214" fill="#FFFFFF" points="140.1875 154.84365 141.9375 157.87465 143.6875 160.90565 140.1875 160.90565 136.6875 160.90565 138.4375 157.87465"></polygon>
                    <polygon id="Fill-215" fill="#FFFFFF" points="155.375 154.84365 157.125 157.87465 158.875 160.90565 155.375 160.90565 151.875 160.90565 153.625 157.87465"></polygon>
                    <polygon id="Fill-216" fill="#FFFFFF" points="170.5625 154.84365 172.3125 157.87465 174.0625 160.90565 170.5625 160.90565 167.0625 160.90565 168.8125 157.87465"></polygon>
                    <polygon id="Fill-217" fill="#FFFFFF" points="185.75 154.84365 187.5 157.87465 189.25 160.90565 185.75 160.90565 182.25 160.90565 184 157.87465"></polygon>
                    <polygon id="Fill-218" fill="#FFFFFF" points="200.9375 154.84365 202.6875 157.87465 204.4375 160.90565 200.9375 160.90565 197.4375 160.90565 199.1875 157.87465"></polygon>
                    <polygon id="Fill-219" fill="#FFFFFF" points="216.125 154.84365 217.875 157.87465 219.625 160.90565 216.125 160.90565 212.625 160.90565 214.375 157.87465"></polygon>
                    <polygon id="Fill-220" fill="#FFFFFF" points="231.3125 154.84365 233.0625 157.87465 234.8125 160.90565 231.3125 160.90565 227.8125 160.90565 229.5625 157.87465"></polygon>
                    <polygon id="Fill-221" fill="#FFFFFF" points="244.75005 157.87515 243.00005 160.90565 246.50005 160.90565 250.00005 160.90565 248.25005 157.87515 246.50005 154.84365"></polygon>
                    <polygon id="Fill-222" fill="#FFFFFF" points="1.75005 170.77845 5e-05 173.80945 3.50005 173.80945 7.00005 173.80945 5.25005 170.77845 3.50005 167.74695"></polygon>
                    <polygon id="Fill-223" fill="#FFFFFF" points="18.6875 167.747 20.4375 170.778 22.1875 173.8095 18.6875 173.8095 15.1875 173.8095 16.9375 170.778"></polygon>
                    <polygon id="Fill-224" fill="#FFFFFF" points="33.875 167.747 35.625 170.778 37.375 173.8095 33.875 173.8095 30.375 173.8095 32.125 170.778"></polygon>
                    <polygon id="Fill-225" fill="#FFFFFF" points="49.0625 167.747 50.8125 170.778 52.5625 173.8095 49.0625 173.8095 45.5625 173.8095 47.3125 170.778"></polygon>
                    <polygon id="Fill-226" fill="#FFFFFF" points="64.25 167.747 66 170.778 67.75 173.8095 64.25 173.8095 60.75 173.8095 62.5 170.778"></polygon>
                    <polygon id="Fill-227" fill="#FFFFFF" points="79.4375 167.747 81.1875 170.778 82.9375 173.8095 79.4375 173.8095 75.9375 173.8095 77.6875 170.778"></polygon>
                    <polygon id="Fill-228" fill="#FFFFFF" points="94.625 167.747 96.375 170.778 98.125 173.8095 94.625 173.8095 91.125 173.8095 92.875 170.778"></polygon>
                    <polygon id="Fill-229" fill="#FFFFFF" points="109.8125 167.747 111.5625 170.778 113.3125 173.8095 109.8125 173.8095 106.3125 173.8095 108.0625 170.778"></polygon>
                    <polygon id="Fill-230" fill="#FFFFFF" points="125 167.747 126.75 170.778 128.5 173.8095 125 173.8095 121.5 173.8095 123.25 170.778"></polygon>
                    <polygon id="Fill-231" fill="#FFFFFF" points="140.1875 167.747 141.9375 170.778 143.6875 173.8095 140.1875 173.8095 136.6875 173.8095 138.4375 170.778"></polygon>
                    <polygon id="Fill-232" fill="#FFFFFF" points="155.375 167.747 157.125 170.778 158.875 173.8095 155.375 173.8095 151.875 173.8095 153.625 170.778"></polygon>
                    <polygon id="Fill-233" fill="#FFFFFF" points="170.5625 167.747 172.3125 170.778 174.0625 173.8095 170.5625 173.8095 167.0625 173.8095 168.8125 170.778"></polygon>
                    <polygon id="Fill-234" fill="#FFFFFF" points="185.75 167.747 187.5 170.778 189.25 173.8095 185.75 173.8095 182.25 173.8095 184 170.778"></polygon>
                    <polygon id="Fill-235" fill="#FFFFFF" points="200.9375 167.747 202.6875 170.778 204.4375 173.8095 200.9375 173.8095 197.4375 173.8095 199.1875 170.778"></polygon>
                    <polygon id="Fill-236" fill="#FFFFFF" points="216.125 167.747 217.875 170.778 219.625 173.8095 216.125 173.8095 212.625 173.8095 214.375 170.778"></polygon>
                    <polygon id="Fill-237" fill="#FFFFFF" points="231.3125 167.747 233.0625 170.778 234.8125 173.8095 231.3125 173.8095 227.8125 173.8095 229.5625 170.778"></polygon>
                    <polygon id="Fill-238" fill="#FFFFFF" points="244.75005 170.77845 243.00005 173.80945 246.50005 173.80945 250.00005 173.80945 248.25005 170.77845 246.50005 167.74695"></polygon>
                    <polygon id="Fill-239" fill="#FFFFFF" points="1.75005 183.6822 5e-05 186.7132 3.50005 186.7132 7.00005 186.7132 5.25005 183.6822 3.50005 180.6512"></polygon>
                    <polygon id="Fill-240" fill="#FFFFFF" points="18.6875 180.6508 20.4375 183.6818 22.1875 186.7128 18.6875 186.7128 15.1875 186.7128 16.9375 183.6818"></polygon>
                    <polygon id="Fill-241" fill="#FFFFFF" points="33.875 180.6508 35.625 183.6818 37.375 186.7128 33.875 186.7128 30.375 186.7128 32.125 183.6818"></polygon>
                    <polygon id="Fill-242" fill="#FFFFFF" points="49.0625 180.6508 50.8125 183.6818 52.5625 186.7128 49.0625 186.7128 45.5625 186.7128 47.3125 183.6818"></polygon>
                    <polygon id="Fill-243" fill="#FFFFFF" points="64.25 180.6508 66 183.6818 67.75 186.7128 64.25 186.7128 60.75 186.7128 62.5 183.6818"></polygon>
                    <polygon id="Fill-244" fill="#FFFFFF" points="79.4375 180.6508 81.1875 183.6818 82.9375 186.7128 79.4375 186.7128 75.9375 186.7128 77.6875 183.6818"></polygon>
                    <polygon id="Fill-245" fill="#FFFFFF" points="94.625 180.6508 96.375 183.6818 98.125 186.7128 94.625 186.7128 91.125 186.7128 92.875 183.6818"></polygon>
                    <polygon id="Fill-246" fill="#FFFFFF" points="109.8125 180.6508 111.5625 183.6818 113.3125 186.7128 109.8125 186.7128 106.3125 186.7128 108.0625 183.6818"></polygon>
                    <polygon id="Fill-247" fill="#FFFFFF" points="125 180.6508 126.75 183.6818 128.5 186.7128 125 186.7128 121.5 186.7128 123.25 183.6818"></polygon>
                    <polygon id="Fill-248" fill="#FFFFFF" points="140.1875 180.6508 141.9375 183.6818 143.6875 186.7128 140.1875 186.7128 136.6875 186.7128 138.4375 183.6818"></polygon>
                    <polygon id="Fill-249" fill="#FFFFFF" points="155.375 180.6508 157.125 183.6818 158.875 186.7128 155.375 186.7128 151.875 186.7128 153.625 183.6818"></polygon>
                    <polygon id="Fill-250" fill="#FFFFFF" points="170.5625 180.6508 172.3125 183.6818 174.0625 186.7128 170.5625 186.7128 167.0625 186.7128 168.8125 183.6818"></polygon>
                    <polygon id="Fill-251" fill="#FFFFFF" points="185.75 180.6508 187.5 183.6818 189.25 186.7128 185.75 186.7128 182.25 186.7128 184 183.6818"></polygon>
                    <polygon id="Fill-252" fill="#FFFFFF" points="200.9375 180.6508 202.6875 183.6818 204.4375 186.7128 200.9375 186.7128 197.4375 186.7128 199.1875 183.6818"></polygon>
                    <polygon id="Fill-253" fill="#FFFFFF" points="216.125 180.6508 217.875 183.6818 219.625 186.7128 216.125 186.7128 212.625 186.7128 214.375 183.6818"></polygon>
                    <polygon id="Fill-254" fill="#FFFFFF" points="231.3125 180.6508 233.0625 183.6818 234.8125 186.7128 231.3125 186.7128 227.8125 186.7128 229.5625 183.6818"></polygon>
                    <polygon id="Fill-255" fill="#FFFFFF" points="244.75005 183.6822 243.00005 186.7132 246.50005 186.7132 250.00005 186.7132 248.25005 183.6822 246.50005 180.6512"></polygon>
                    <polygon id="Fill-256" fill="#FFFFFF" points="1.75005 196.5855 5e-05 199.6165 3.50005 199.6165 7.00005 199.6165 5.25005 196.5855 3.50005 193.555"></polygon>
                    <polygon id="Fill-257" fill="#FFFFFF" points="18.6875 193.5546 20.4375 196.5856 22.1875 199.6166 18.6875 199.6166 15.1875 199.6166 16.9375 196.5856"></polygon>
                    <polygon id="Fill-258" fill="#FFFFFF" points="33.875 193.5546 35.625 196.5856 37.375 199.6166 33.875 199.6166 30.375 199.6166 32.125 196.5856"></polygon>
                    <polygon id="Fill-259" fill="#FFFFFF" points="49.0625 193.5546 50.8125 196.5856 52.5625 199.6166 49.0625 199.6166 45.5625 199.6166 47.3125 196.5856"></polygon>
                    <polygon id="Fill-260" fill="#FFFFFF" points="64.25 193.5546 66 196.5856 67.75 199.6166 64.25 199.6166 60.75 199.6166 62.5 196.5856"></polygon>
                    <polygon id="Fill-261" fill="#FFFFFF" points="79.4375 193.5546 81.1875 196.5856 82.9375 199.6166 79.4375 199.6166 75.9375 199.6166 77.6875 196.5856"></polygon>
                    <polygon id="Fill-262" fill="#FFFFFF" points="94.625 193.5546 96.375 196.5856 98.125 199.6166 94.625 199.6166 91.125 199.6166 92.875 196.5856"></polygon>
                    <polygon id="Fill-263" fill="#FFFFFF" points="109.8125 193.5546 111.5625 196.5856 113.3125 199.6166 109.8125 199.6166 106.3125 199.6166 108.0625 196.5856"></polygon>
                    <polygon id="Fill-264" fill="#FFFFFF" points="125 193.5546 126.75 196.5856 128.5 199.6166 125 199.6166 121.5 199.6166 123.25 196.5856"></polygon>
                    <polygon id="Fill-265" fill="#FFFFFF" points="140.1875 193.5546 141.9375 196.5856 143.6875 199.6166 140.1875 199.6166 136.6875 199.6166 138.4375 196.5856"></polygon>
                    <polygon id="Fill-266" fill="#FFFFFF" points="155.375 193.5546 157.125 196.5856 158.875 199.6166 155.375 199.6166 151.875 199.6166 153.625 196.5856"></polygon>
                    <polygon id="Fill-267" fill="#FFFFFF" points="170.5625 193.5546 172.3125 196.5856 174.0625 199.6166 170.5625 199.6166 167.0625 199.6166 168.8125 196.5856"></polygon>
                    <polygon id="Fill-268" fill="#FFFFFF" points="185.75 193.5546 187.5 196.5856 189.25 199.6166 185.75 199.6166 182.25 199.6166 184 196.5856"></polygon>
                    <polygon id="Fill-269" fill="#FFFFFF" points="200.9375 193.5546 202.6875 196.5856 204.4375 199.6166 200.9375 199.6166 197.4375 199.6166 199.1875 196.5856"></polygon>
                    <polygon id="Fill-270" fill="#FFFFFF" points="216.125 193.5546 217.875 196.5856 219.625 199.6166 216.125 199.6166 212.625 199.6166 214.375 196.5856"></polygon>
                    <polygon id="Fill-271" fill="#FFFFFF" points="231.3125 193.5546 233.0625 196.5856 234.8125 199.6166 231.3125 199.6166 227.8125 199.6166 229.5625 196.5856"></polygon>
                    <polygon id="Fill-272" fill="#FFFFFF" points="244.75005 196.5855 243.00005 199.6165 246.50005 199.6165 250.00005 199.6165 248.25005 196.5855 246.50005 193.555"></polygon>
                    <polygon id="Fill-273" fill="#FFFFFF" points="1.75005 209.48925 5e-05 212.52025 3.50005 212.52025 7.00005 212.52025 5.25005 209.48925 3.50005 206.45825"></polygon>
                    <polygon id="Fill-274" fill="#FFFFFF" points="18.6875 206.45795 20.4375 209.48895 22.1875 212.52045 18.6875 212.52045 15.1875 212.52045 16.9375 209.48895"></polygon>
                    <polygon id="Fill-275" fill="#FFFFFF" points="33.875 206.45795 35.625 209.48895 37.375 212.52045 33.875 212.52045 30.375 212.52045 32.125 209.48895"></polygon>
                    <polygon id="Fill-276" fill="#FFFFFF" points="49.0625 206.45795 50.8125 209.48895 52.5625 212.52045 49.0625 212.52045 45.5625 212.52045 47.3125 209.48895"></polygon>
                    <polygon id="Fill-277" fill="#FFFFFF" points="64.25 206.45795 66 209.48895 67.75 212.52045 64.25 212.52045 60.75 212.52045 62.5 209.48895"></polygon>
                    <polygon id="Fill-278" fill="#FFFFFF" points="79.4375 206.45795 81.1875 209.48895 82.9375 212.52045 79.4375 212.52045 75.9375 212.52045 77.6875 209.48895"></polygon>
                    <polygon id="Fill-279" fill="#FFFFFF" points="94.625 206.45795 96.375 209.48895 98.125 212.52045 94.625 212.52045 91.125 212.52045 92.875 209.48895"></polygon>
                    <polygon id="Fill-280" fill="#FFFFFF" points="109.8125 206.45795 111.5625 209.48895 113.3125 212.52045 109.8125 212.52045 106.3125 212.52045 108.0625 209.48895"></polygon>
                    <polygon id="Fill-281" fill="#FFFFFF" points="125 206.45795 126.75 209.48895 128.5 212.52045 125 212.52045 121.5 212.52045 123.25 209.48895"></polygon>
                    <polygon id="Fill-282" fill="#FFFFFF" points="140.1875 206.45795 141.9375 209.48895 143.6875 212.52045 140.1875 212.52045 136.6875 212.52045 138.4375 209.48895"></polygon>
                    <polygon id="Fill-283" fill="#FFFFFF" points="155.375 206.45795 157.125 209.48895 158.875 212.52045 155.375 212.52045 151.875 212.52045 153.625 209.48895"></polygon>
                    <polygon id="Fill-284" fill="#FFFFFF" points="170.5625 206.45795 172.3125 209.48895 174.0625 212.52045 170.5625 212.52045 167.0625 212.52045 168.8125 209.48895"></polygon>
                    <polygon id="Fill-285" fill="#FFFFFF" points="185.75 206.45795 187.5 209.48895 189.25 212.52045 185.75 212.52045 182.25 212.52045 184 209.48895"></polygon>
                    <polygon id="Fill-286" fill="#FFFFFF" points="200.9375 206.45795 202.6875 209.48895 204.4375 212.52045 200.9375 212.52045 197.4375 212.52045 199.1875 209.48895"></polygon>
                    <polygon id="Fill-287" fill="#FFFFFF" points="216.125 206.45795 217.875 209.48895 219.625 212.52045 216.125 212.52045 212.625 212.52045 214.375 209.48895"></polygon>
                    <polygon id="Fill-288" fill="#FFFFFF" points="231.3125 206.45795 233.0625 209.48895 234.8125 212.52045 231.3125 212.52045 227.8125 212.52045 229.5625 209.48895"></polygon>
                    <polygon id="Fill-289" fill="#FFFFFF" points="244.75005 209.48925 243.00005 212.52025 246.50005 212.52025 250.00005 212.52025 248.25005 209.48925 246.50005 206.45825"></polygon>
                    <polygon id="Fill-290" fill="#FFFFFF" points="1.75005 222.393 5e-05 225.424 3.50005 225.424 7.00005 225.424 5.25005 222.393 3.50005 219.362"></polygon>
                    <polygon id="Fill-291" fill="#FFFFFF" points="18.6875 219.36175 20.4375 222.39275 22.1875 225.42375 18.6875 225.42375 15.1875 225.42375 16.9375 222.39275"></polygon>
                    <polygon id="Fill-292" fill="#FFFFFF" points="33.875 219.36175 35.625 222.39275 37.375 225.42375 33.875 225.42375 30.375 225.42375 32.125 222.39275"></polygon>
                    <polygon id="Fill-293" fill="#FFFFFF" points="49.0625 219.36175 50.8125 222.39275 52.5625 225.42375 49.0625 225.42375 45.5625 225.42375 47.3125 222.39275"></polygon>
                    <polygon id="Fill-294" fill="#FFFFFF" points="64.25 219.36175 66 222.39275 67.75 225.42375 64.25 225.42375 60.75 225.42375 62.5 222.39275"></polygon>
                    <polygon id="Fill-295" fill="#FFFFFF" points="79.4375 219.36175 81.1875 222.39275 82.9375 225.42375 79.4375 225.42375 75.9375 225.42375 77.6875 222.39275"></polygon>
                    <polygon id="Fill-296" fill="#FFFFFF" points="94.625 219.36175 96.375 222.39275 98.125 225.42375 94.625 225.42375 91.125 225.42375 92.875 222.39275"></polygon>
                    <polygon id="Fill-297" fill="#FFFFFF" points="109.8125 219.36175 111.5625 222.39275 113.3125 225.42375 109.8125 225.42375 106.3125 225.42375 108.0625 222.39275"></polygon>
                    <polygon id="Fill-298" fill="#FFFFFF" points="125 219.36175 126.75 222.39275 128.5 225.42375 125 225.42375 121.5 225.42375 123.25 222.39275"></polygon>
                    <polygon id="Fill-299" fill="#FFFFFF" points="140.1875 219.36175 141.9375 222.39275 143.6875 225.42375 140.1875 225.42375 136.6875 225.42375 138.4375 222.39275"></polygon>
                    <polygon id="Fill-300" fill="#FFFFFF" points="155.375 219.36175 157.125 222.39275 158.875 225.42375 155.375 225.42375 151.875 225.42375 153.625 222.39275"></polygon>
                    <polygon id="Fill-301" fill="#FFFFFF" points="170.5625 219.36175 172.3125 222.39275 174.0625 225.42375 170.5625 225.42375 167.0625 225.42375 168.8125 222.39275"></polygon>
                    <polygon id="Fill-302" fill="#FFFFFF" points="185.75 219.36175 187.5 222.39275 189.25 225.42375 185.75 225.42375 182.25 225.42375 184 222.39275"></polygon>
                    <polygon id="Fill-303" fill="#FFFFFF" points="200.9375 219.36175 202.6875 222.39275 204.4375 225.42375 200.9375 225.42375 197.4375 225.42375 199.1875 222.39275"></polygon>
                    <polygon id="Fill-304" fill="#FFFFFF" points="216.125 219.36175 217.875 222.39275 219.625 225.42375 216.125 225.42375 212.625 225.42375 214.375 222.39275"></polygon>
                    <polygon id="Fill-305" fill="#FFFFFF" points="231.3125 219.36175 233.0625 222.39275 234.8125 225.42375 231.3125 225.42375 227.8125 225.42375 229.5625 222.39275"></polygon>
                    <polygon id="Fill-306" fill="#FFFFFF" points="244.75005 222.393 243.00005 225.424 246.50005 225.424 250.00005 225.424 248.25005 222.393 246.50005 219.362"></polygon>
                    <polygon id="Fill-307" fill="#FFFFFF" points="1.75005 235.2963 5e-05 238.3273 3.50005 238.3273 7.00005 238.3273 5.25005 235.2963 3.50005 232.2653"></polygon>
                    <polygon id="Fill-308" fill="#FFFFFF" points="16.93755 235.2963 15.18755 238.3273 18.68755 238.3273 22.18755 238.3273 20.43755 235.2963 18.68755 232.2653"></polygon>
                    <polygon id="Fill-309" fill="#FFFFFF" points="32.12505 235.2963 30.37505 238.3273 33.87505 238.3273 37.37505 238.3273 35.62505 235.2963 33.87505 232.2653"></polygon>
                    <polygon id="Fill-310" fill="#FFFFFF" points="47.31255 235.2963 45.56255 238.3273 49.06255 238.3273 52.56255 238.3273 50.81255 235.2963 49.06255 232.2653"></polygon>
                    <polygon id="Fill-311" fill="#FFFFFF" points="62.50005 235.2963 60.75005 238.3273 64.25005 238.3273 67.75005 238.3273 66.00005 235.2963 64.25005 232.2653"></polygon>
                    <polygon id="Fill-312" fill="#FFFFFF" points="77.68755 235.2963 75.93755 238.3273 79.43755 238.3273 82.93755 238.3273 81.18755 235.2963 79.43755 232.2653"></polygon>
                    <polygon id="Fill-313" fill="#FFFFFF" points="92.87505 235.2963 91.12505 238.3273 94.62505 238.3273 98.12505 238.3273 96.37505 235.2963 94.62505 232.2653"></polygon>
                    <polygon id="Fill-314" fill="#FFFFFF" points="108.06255 235.2963 106.31255 238.3273 109.81255 238.3273 113.31255 238.3273 111.56255 235.2963 109.81255 232.2653"></polygon>
                    <polygon id="Fill-315" fill="#FFFFFF" points="123.25005 235.2963 121.50005 238.3273 125.00005 238.3273 128.50005 238.3273 126.75005 235.2963 125.00005 232.2653"></polygon>
                    <polygon id="Fill-316" fill="#FFFFFF" points="138.43755 235.2963 136.68755 238.3273 140.18755 238.3273 143.68755 238.3273 141.93755 235.2963 140.18755 232.2653"></polygon>
                    <polygon id="Fill-317" fill="#FFFFFF" points="153.62505 235.2963 151.87505 238.3273 155.37505 238.3273 158.87505 238.3273 157.12505 235.2963 155.37505 232.2653"></polygon>
                    <polygon id="Fill-318" fill="#FFFFFF" points="168.81255 235.2963 167.06255 238.3273 170.56255 238.3273 174.06255 238.3273 172.31255 235.2963 170.56255 232.2653"></polygon>
                    <polygon id="Fill-319" fill="#FFFFFF" points="184.00005 235.2963 182.25005 238.3273 185.75005 238.3273 189.25005 238.3273 187.50005 235.2963 185.75005 232.2653"></polygon>
                    <polygon id="Fill-320" fill="#FFFFFF" points="199.18755 235.2963 197.43755 238.3273 200.93755 238.3273 204.43755 238.3273 202.68755 235.2963 200.93755 232.2653"></polygon>
                    <polygon id="Fill-321" fill="#FFFFFF" points="214.37505 235.2963 212.62505 238.3273 216.12505 238.3273 219.62505 238.3273 217.87505 235.2963 216.12505 232.2653"></polygon>
                    <polygon id="Fill-322" fill="#FFFFFF" points="229.56255 235.2963 227.81255 238.3273 231.31255 238.3273 234.81255 238.3273 233.06255 235.2963 231.31255 232.2653"></polygon>
                    <polygon id="Fill-323" fill="#FFFFFF" points="244.75005 235.2963 243.00005 238.3273 246.50005 238.3273 250.00005 238.3273 248.25005 235.2963 246.50005 232.2653"></polygon>
                </g>
            </g>
        </g>
    </g>
</svg>