<?xml version="1.0" encoding="UTF-8"?>
<svg width="250px" height="237px" viewBox="0 0 250 237" version="1.1" xmlns="http://www.w3.org/2000/svg" xmlns:xlink="http://www.w3.org/1999/xlink">
    <title>Group 613</title>
    <defs>
        <filter id="filter-1">
            <feColorMatrix in="SourceGraphic" type="matrix" values="0 0 0 0 0.258824 0 0 0 0 0.525490 0 0 0 0 0.956863 0 0 0 1.000000 0"></feColorMatrix>
        </filter>
    </defs>
    <g id="Style" stroke="none" stroke-width="1" fill="none" fill-rule="evenodd" opacity="0.18">
        <g id="Styles" transform="translate(-214.000000, -1094.000000)">
            <g filter="url(#filter-1)" id="Group-613">
                <g transform="translate(214.000000, 1094.000000)">
                    <path d="M5,2.50005 C5,3.88055 3.8805,5.00005 2.5,5.00005 C1.1195,5.00005 0,3.88055 0,2.50005 C0,1.11955 1.1195,5e-05 2.5,5e-05 C3.8805,5e-05 5,1.11955 5,2.50005" id="Fill-1" fill="#FFFFFF"></path>
                    <path d="M19.41185,2.50005 C19.41185,3.88055 18.29235,5.00005 16.91185,5.00005 C15.53085,5.00005 14.41185,3.88055 14.41185,2.50005 C14.41185,1.11955 15.53085,5e-05 16.91185,5e-05 C18.29235,5e-05 19.41185,1.11955 19.41185,2.50005" id="Fill-3" fill="#FFFFFF"></path>
                    <path d="M33.8235,2.50005 C33.8235,3.88055 32.7045,5.00005 31.3235,5.00005 C29.943,5.00005 28.8235,3.88055 28.8235,2.50005 C28.8235,1.11955 29.943,5e-05 31.3235,5e-05 C32.7045,5e-05 33.8235,1.11955 33.8235,2.50005" id="Fill-5" fill="#FFFFFF"></path>
                    <path d="M48.23535,2.50005 C48.23535,3.88055 47.11585,5.00005 45.73535,5.00005 C44.35435,5.00005 43.23535,3.88055 43.23535,2.50005 C43.23535,1.11955 44.35435,5e-05 45.73535,5e-05 C47.11585,5e-05 48.23535,1.11955 48.23535,2.50005" id="Fill-7" fill="#FFFFFF"></path>
                    <path d="M62.64695,2.50005 C62.64695,3.88055 61.52795,5.00005 60.14695,5.00005 C58.76645,5.00005 57.64695,3.88055 57.64695,2.50005 C57.64695,1.11955 58.76645,5e-05 60.14695,5e-05 C61.52795,5e-05 62.64695,1.11955 62.64695,2.50005" id="Fill-9" fill="#FFFFFF"></path>
                    <path d="M77.05885,2.50005 C77.05885,3.88055 75.93935,5.00005 74.55885,5.00005 C73.17835,5.00005 72.05885,3.88055 72.05885,2.50005 C72.05885,1.11955 73.17835,5e-05 74.55885,5e-05 C75.93935,5e-05 77.05885,1.11955 77.05885,2.50005" id="Fill-11" fill="#FFFFFF"></path>
                    <path d="M91.4707,2.50005 C91.4707,3.88055 90.3512,5.00005 88.9707,5.00005 C87.5897,5.00005 86.4707,3.88055 86.4707,2.50005 C86.4707,1.11955 87.5897,5e-05 88.9707,5e-05 C90.3512,5e-05 91.4707,1.11955 91.4707,2.50005" id="Fill-13" fill="#FFFFFF"></path>
                    <path d="M105.8823,2.50005 C105.8823,3.88055 104.7633,5.00005 103.3823,5.00005 C102.0018,5.00005 100.8823,3.88055 100.8823,2.50005 C100.8823,1.11955 102.0018,5e-05 103.3823,5e-05 C104.7633,5e-05 105.8823,1.11955 105.8823,2.50005" id="Fill-15" fill="#FFFFFF"></path>
                    <path d="M120.2942,2.50005 C120.2942,3.88055 119.1747,5.00005 117.7942,5.00005 C116.4132,5.00005 115.2942,3.88055 115.2942,2.50005 C115.2942,1.11955 116.4132,5e-05 117.7942,5e-05 C119.1747,5e-05 120.2942,1.11955 120.2942,2.50005" id="Fill-17" fill="#FFFFFF"></path>
                    <path d="M134.70605,2.50005 C134.70605,3.88055 133.58655,5.00005 132.20605,5.00005 C130.82505,5.00005 129.70605,3.88055 129.70605,2.50005 C129.70605,1.11955 130.82505,5e-05 132.20605,5e-05 C133.58655,5e-05 134.70605,1.11955 134.70605,2.50005" id="Fill-19" fill="#FFFFFF"></path>
                    <path d="M149.1177,2.50005 C149.1177,3.88055 147.9987,5.00005 146.6177,5.00005 C145.2367,5.00005 144.1177,3.88055 144.1177,2.50005 C144.1177,1.11955 145.2367,5e-05 146.6177,5e-05 C147.9987,5e-05 149.1177,1.11955 149.1177,2.50005" id="Fill-21" fill="#FFFFFF"></path>
                    <path d="M163.5293,2.50005 C163.5293,3.88055 162.4103,5.00005 161.0293,5.00005 C159.6488,5.00005 158.5293,3.88055 158.5293,2.50005 C158.5293,1.11955 159.6488,5e-05 161.0293,5e-05 C162.4103,5e-05 163.5293,1.11955 163.5293,2.50005" id="Fill-23" fill="#FFFFFF"></path>
                    <path d="M177.9414,2.50005 C177.9414,3.88055 176.8219,5.00005 175.4414,5.00005 C174.0604,5.00005 172.9414,3.88055 172.9414,2.50005 C172.9414,1.11955 174.0604,5e-05 175.4414,5e-05 C176.8219,5e-05 177.9414,1.11955 177.9414,2.50005" id="Fill-25" fill="#FFFFFF"></path>
                    <path d="M192.35305,2.50005 C192.35305,3.88055 191.23405,5.00005 189.85305,5.00005 C188.47205,5.00005 187.35305,3.88055 187.35305,2.50005 C187.35305,1.11955 188.47205,5e-05 189.85305,5e-05 C191.23405,5e-05 192.35305,1.11955 192.35305,2.50005" id="Fill-27" fill="#FFFFFF"></path>
                    <path d="M206.76465,2.50005 C206.76465,3.88055 205.64565,5.00005 204.26465,5.00005 C202.88365,5.00005 201.76465,3.88055 201.76465,2.50005 C201.76465,1.11955 202.88365,5e-05 204.26465,5e-05 C205.64565,5e-05 206.76465,1.11955 206.76465,2.50005" id="Fill-29" fill="#FFFFFF"></path>
                    <path d="M221.17625,2.50005 C221.17625,3.88055 220.05725,5.00005 218.67625,5.00005 C217.29575,5.00005 216.17625,3.88055 216.17625,2.50005 C216.17625,1.11955 217.29575,5e-05 218.67625,5e-05 C220.05725,5e-05 221.17625,1.11955 221.17625,2.50005" id="Fill-31" fill="#FFFFFF"></path>
                    <path d="M235.5884,2.50005 C235.5884,3.88055 234.4689,5.00005 233.0884,5.00005 C231.7074,5.00005 230.5884,3.88055 230.5884,2.50005 C230.5884,1.11955 231.7074,5e-05 233.0884,5e-05 C234.4689,5e-05 235.5884,1.11955 235.5884,2.50005" id="Fill-33" fill="#FFFFFF"></path>
                    <path d="M250,2.50005 C250,3.88055 248.881,5.00005 247.5,5.00005 C246.119,5.00005 245,3.88055 245,2.50005 C245,1.11955 246.119,5e-05 247.5,5e-05 C248.881,5e-05 250,1.11955 250,2.50005" id="Fill-35" fill="#FFFFFF"></path>
                    <path d="M5,16.93925 C5,18.31975 3.8805,19.43925 2.5,19.43925 C1.1195,19.43925 0,18.31975 0,16.93925 C0,15.55875 1.1195,14.43925 2.5,14.43925 C3.8805,14.43925 5,15.55875 5,16.93925" id="Fill-37" fill="#FFFFFF"></path>
                    <path d="M19.41185,16.93925 C19.41185,18.31975 18.29235,19.43925 16.91185,19.43925 C15.53085,19.43925 14.41185,18.31975 14.41185,16.93925 C14.41185,15.55875 15.53085,14.43925 16.91185,14.43925 C18.29235,14.43925 19.41185,15.55875 19.41185,16.93925" id="Fill-39" fill="#FFFFFF"></path>
                    <path d="M33.8235,16.93925 C33.8235,18.31975 32.7045,19.43925 31.3235,19.43925 C29.943,19.43925 28.8235,18.31975 28.8235,16.93925 C28.8235,15.55875 29.943,14.43925 31.3235,14.43925 C32.7045,14.43925 33.8235,15.55875 33.8235,16.93925" id="Fill-41" fill="#FFFFFF"></path>
                    <path d="M48.23535,16.93925 C48.23535,18.31975 47.11585,19.43925 45.73535,19.43925 C44.35435,19.43925 43.23535,18.31975 43.23535,16.93925 C43.23535,15.55875 44.35435,14.43925 45.73535,14.43925 C47.11585,14.43925 48.23535,15.55875 48.23535,16.93925" id="Fill-43" fill="#FFFFFF"></path>
                    <path d="M62.64695,16.93925 C62.64695,18.31975 61.52795,19.43925 60.14695,19.43925 C58.76645,19.43925 57.64695,18.31975 57.64695,16.93925 C57.64695,15.55875 58.76645,14.43925 60.14695,14.43925 C61.52795,14.43925 62.64695,15.55875 62.64695,16.93925" id="Fill-45" fill="#FFFFFF"></path>
                    <path d="M77.05885,16.93925 C77.05885,18.31975 75.93935,19.43925 74.55885,19.43925 C73.17835,19.43925 72.05885,18.31975 72.05885,16.93925 C72.05885,15.55875 73.17835,14.43925 74.55885,14.43925 C75.93935,14.43925 77.05885,15.55875 77.05885,16.93925" id="Fill-47" fill="#FFFFFF"></path>
                    <path d="M91.4707,16.93925 C91.4707,18.31975 90.3512,19.43925 88.9707,19.43925 C87.5897,19.43925 86.4707,18.31975 86.4707,16.93925 C86.4707,15.55875 87.5897,14.43925 88.9707,14.43925 C90.3512,14.43925 91.4707,15.55875 91.4707,16.93925" id="Fill-49" fill="#FFFFFF"></path>
                    <path d="M105.8823,16.93925 C105.8823,18.31975 104.7633,19.43925 103.3823,19.43925 C102.0018,19.43925 100.8823,18.31975 100.8823,16.93925 C100.8823,15.55875 102.0018,14.43925 103.3823,14.43925 C104.7633,14.43925 105.8823,15.55875 105.8823,16.93925" id="Fill-51" fill="#FFFFFF"></path>
                    <path d="M120.2942,16.93925 C120.2942,18.31975 119.1747,19.43925 117.7942,19.43925 C116.4132,19.43925 115.2942,18.31975 115.2942,16.93925 C115.2942,15.55875 116.4132,14.43925 117.7942,14.43925 C119.1747,14.43925 120.2942,15.55875 120.2942,16.93925" id="Fill-53" fill="#FFFFFF"></path>
                    <path d="M134.70605,16.93925 C134.70605,18.31975 133.58655,19.43925 132.20605,19.43925 C130.82505,19.43925 129.70605,18.31975 129.70605,16.93925 C129.70605,15.55875 130.82505,14.43925 132.20605,14.43925 C133.58655,14.43925 134.70605,15.55875 134.70605,16.93925" id="Fill-55" fill="#FFFFFF"></path>
                    <path d="M149.1177,16.93925 C149.1177,18.31975 147.9987,19.43925 146.6177,19.43925 C145.2367,19.43925 144.1177,18.31975 144.1177,16.93925 C144.1177,15.55875 145.2367,14.43925 146.6177,14.43925 C147.9987,14.43925 149.1177,15.55875 149.1177,16.93925" id="Fill-57" fill="#FFFFFF"></path>
                    <path d="M163.5293,16.93925 C163.5293,18.31975 162.4103,19.43925 161.0293,19.43925 C159.6488,19.43925 158.5293,18.31975 158.5293,16.93925 C158.5293,15.55875 159.6488,14.43925 161.0293,14.43925 C162.4103,14.43925 163.5293,15.55875 163.5293,16.93925" id="Fill-59" fill="#FFFFFF"></path>
                    <path d="M177.9414,16.93925 C177.9414,18.31975 176.8219,19.43925 175.4414,19.43925 C174.0604,19.43925 172.9414,18.31975 172.9414,16.93925 C172.9414,15.55875 174.0604,14.43925 175.4414,14.43925 C176.8219,14.43925 177.9414,15.55875 177.9414,16.93925" id="Fill-61" fill="#FFFFFF"></path>
                    <path d="M192.35305,16.93925 C192.35305,18.31975 191.23405,19.43925 189.85305,19.43925 C188.47205,19.43925 187.35305,18.31975 187.35305,16.93925 C187.35305,15.55875 188.47205,14.43925 189.85305,14.43925 C191.23405,14.43925 192.35305,15.55875 192.35305,16.93925" id="Fill-63" fill="#FFFFFF"></path>
                    <path d="M206.76465,16.93925 C206.76465,18.31975 205.64565,19.43925 204.26465,19.43925 C202.88365,19.43925 201.76465,18.31975 201.76465,16.93925 C201.76465,15.55875 202.88365,14.43925 204.26465,14.43925 C205.64565,14.43925 206.76465,15.55875 206.76465,16.93925" id="Fill-65" fill="#FFFFFF"></path>
                    <path d="M221.17625,16.93925 C221.17625,18.31975 220.05725,19.43925 218.67625,19.43925 C217.29575,19.43925 216.17625,18.31975 216.17625,16.93925 C216.17625,15.55875 217.29575,14.43925 218.67625,14.43925 C220.05725,14.43925 221.17625,15.55875 221.17625,16.93925" id="Fill-67" fill="#FFFFFF"></path>
                    <path d="M235.5884,16.93925 C235.5884,18.31975 234.4689,19.43925 233.0884,19.43925 C231.7074,19.43925 230.5884,18.31975 230.5884,16.93925 C230.5884,15.55875 231.7074,14.43925 233.0884,14.43925 C234.4689,14.43925 235.5884,15.55875 235.5884,16.93925" id="Fill-69" fill="#FFFFFF"></path>
                    <path d="M250,16.93925 C250,18.31975 248.881,19.43925 247.5,19.43925 C246.119,19.43925 245,18.31975 245,16.93925 C245,15.55875 246.119,14.43925 247.5,14.43925 C248.881,14.43925 250,15.55875 250,16.93925" id="Fill-71" fill="#FFFFFF"></path>
                    <path d="M5,31.37845 C5,32.75895 3.8805,33.87845 2.5,33.87845 C1.1195,33.87845 0,32.75895 0,31.37845 C0,29.99795 1.1195,28.87845 2.5,28.87845 C3.8805,28.87845 5,29.99795 5,31.37845" id="Fill-73" fill="#FFFFFF"></path>
                    <path d="M19.41185,31.37845 C19.41185,32.75895 18.29235,33.87845 16.91185,33.87845 C15.53085,33.87845 14.41185,32.75895 14.41185,31.37845 C14.41185,29.99795 15.53085,28.87845 16.91185,28.87845 C18.29235,28.87845 19.41185,29.99795 19.41185,31.37845" id="Fill-75" fill="#FFFFFF"></path>
                    <path d="M33.8235,31.37845 C33.8235,32.75895 32.7045,33.87845 31.3235,33.87845 C29.943,33.87845 28.8235,32.75895 28.8235,31.37845 C28.8235,29.99795 29.943,28.87845 31.3235,28.87845 C32.7045,28.87845 33.8235,29.99795 33.8235,31.37845" id="Fill-77" fill="#FFFFFF"></path>
                    <path d="M48.23535,31.37845 C48.23535,32.75895 47.11585,33.87845 45.73535,33.87845 C44.35435,33.87845 43.23535,32.75895 43.23535,31.37845 C43.23535,29.99795 44.35435,28.87845 45.73535,28.87845 C47.11585,28.87845 48.23535,29.99795 48.23535,31.37845" id="Fill-79" fill="#FFFFFF"></path>
                    <path d="M62.64695,31.37845 C62.64695,32.75895 61.52795,33.87845 60.14695,33.87845 C58.76645,33.87845 57.64695,32.75895 57.64695,31.37845 C57.64695,29.99795 58.76645,28.87845 60.14695,28.87845 C61.52795,28.87845 62.64695,29.99795 62.64695,31.37845" id="Fill-81" fill="#FFFFFF"></path>
                    <path d="M77.05885,31.37845 C77.05885,32.75895 75.93935,33.87845 74.55885,33.87845 C73.17835,33.87845 72.05885,32.75895 72.05885,31.37845 C72.05885,29.99795 73.17835,28.87845 74.55885,28.87845 C75.93935,28.87845 77.05885,29.99795 77.05885,31.37845" id="Fill-83" fill="#FFFFFF"></path>
                    <path d="M91.4707,31.37845 C91.4707,32.75895 90.3512,33.87845 88.9707,33.87845 C87.5897,33.87845 86.4707,32.75895 86.4707,31.37845 C86.4707,29.99795 87.5897,28.87845 88.9707,28.87845 C90.3512,28.87845 91.4707,29.99795 91.4707,31.37845" id="Fill-85" fill="#FFFFFF"></path>
                    <path d="M105.8823,31.37845 C105.8823,32.75895 104.7633,33.87845 103.3823,33.87845 C102.0018,33.87845 100.8823,32.75895 100.8823,31.37845 C100.8823,29.99795 102.0018,28.87845 103.3823,28.87845 C104.7633,28.87845 105.8823,29.99795 105.8823,31.37845" id="Fill-87" fill="#FFFFFF"></path>
                    <path d="M120.2942,31.37845 C120.2942,32.75895 119.1747,33.87845 117.7942,33.87845 C116.4132,33.87845 115.2942,32.75895 115.2942,31.37845 C115.2942,29.99795 116.4132,28.87845 117.7942,28.87845 C119.1747,28.87845 120.2942,29.99795 120.2942,31.37845" id="Fill-89" fill="#FFFFFF"></path>
                    <path d="M134.70605,31.37845 C134.70605,32.75895 133.58655,33.87845 132.20605,33.87845 C130.82505,33.87845 129.70605,32.75895 129.70605,31.37845 C129.70605,29.99795 130.82505,28.87845 132.20605,28.87845 C133.58655,28.87845 134.70605,29.99795 134.70605,31.37845" id="Fill-91" fill="#FFFFFF"></path>
                    <path d="M149.1177,31.37845 C149.1177,32.75895 147.9987,33.87845 146.6177,33.87845 C145.2367,33.87845 144.1177,32.75895 144.1177,31.37845 C144.1177,29.99795 145.2367,28.87845 146.6177,28.87845 C147.9987,28.87845 149.1177,29.99795 149.1177,31.37845" id="Fill-93" fill="#FFFFFF"></path>
                    <path d="M163.5293,31.37845 C163.5293,32.75895 162.4103,33.87845 161.0293,33.87845 C159.6488,33.87845 158.5293,32.75895 158.5293,31.37845 C158.5293,29.99795 159.6488,28.87845 161.0293,28.87845 C162.4103,28.87845 163.5293,29.99795 163.5293,31.37845" id="Fill-95" fill="#FFFFFF"></path>
                    <path d="M177.9414,31.37845 C177.9414,32.75895 176.8219,33.87845 175.4414,33.87845 C174.0604,33.87845 172.9414,32.75895 172.9414,31.37845 C172.9414,29.99795 174.0604,28.87845 175.4414,28.87845 C176.8219,28.87845 177.9414,29.99795 177.9414,31.37845" id="Fill-97" fill="#FFFFFF"></path>
                    <path d="M192.35305,31.37845 C192.35305,32.75895 191.23405,33.87845 189.85305,33.87845 C188.47205,33.87845 187.35305,32.75895 187.35305,31.37845 C187.35305,29.99795 188.47205,28.87845 189.85305,28.87845 C191.23405,28.87845 192.35305,29.99795 192.35305,31.37845" id="Fill-99" fill="#FFFFFF"></path>
                    <path d="M206.76465,31.37845 C206.76465,32.75895 205.64565,33.87845 204.26465,33.87845 C202.88365,33.87845 201.76465,32.75895 201.76465,31.37845 C201.76465,29.99795 202.88365,28.87845 204.26465,28.87845 C205.64565,28.87845 206.76465,29.99795 206.76465,31.37845" id="Fill-101" fill="#FFFFFF"></path>
                    <path d="M221.17625,31.37845 C221.17625,32.75895 220.05725,33.87845 218.67625,33.87845 C217.29575,33.87845 216.17625,32.75895 216.17625,31.37845 C216.17625,29.99795 217.29575,28.87845 218.67625,28.87845 C220.05725,28.87845 221.17625,29.99795 221.17625,31.37845" id="Fill-103" fill="#FFFFFF"></path>
                    <path d="M235.5884,31.37845 C235.5884,32.75895 234.4689,33.87845 233.0884,33.87845 C231.7074,33.87845 230.5884,32.75895 230.5884,31.37845 C230.5884,29.99795 231.7074,28.87845 233.0884,28.87845 C234.4689,28.87845 235.5884,29.99795 235.5884,31.37845" id="Fill-105" fill="#FFFFFF"></path>
                    <path d="M250,31.37845 C250,32.75895 248.881,33.87845 247.5,33.87845 C246.119,33.87845 245,32.75895 245,31.37845 C245,29.99795 246.119,28.87845 247.5,28.87845 C248.881,28.87845 250,29.99795 250,31.37845" id="Fill-107" fill="#FFFFFF"></path>
                    <path d="M5,45.8177 C5,47.1982 3.8805,48.3177 2.5,48.3177 C1.1195,48.3177 0,47.1982 0,45.8177 C0,44.4372 1.1195,43.3177 2.5,43.3177 C3.8805,43.3177 5,44.4372 5,45.8177" id="Fill-109" fill="#FFFFFF"></path>
                    <path d="M19.41185,45.8177 C19.41185,47.1982 18.29235,48.3177 16.91185,48.3177 C15.53085,48.3177 14.41185,47.1982 14.41185,45.8177 C14.41185,44.4372 15.53085,43.3177 16.91185,43.3177 C18.29235,43.3177 19.41185,44.4372 19.41185,45.8177" id="Fill-111" fill="#FFFFFF"></path>
                    <path d="M33.8235,45.8177 C33.8235,47.1982 32.7045,48.3177 31.3235,48.3177 C29.943,48.3177 28.8235,47.1982 28.8235,45.8177 C28.8235,44.4372 29.943,43.3177 31.3235,43.3177 C32.7045,43.3177 33.8235,44.4372 33.8235,45.8177" id="Fill-113" fill="#FFFFFF"></path>
                    <path d="M48.23535,45.8177 C48.23535,47.1982 47.11585,48.3177 45.73535,48.3177 C44.35435,48.3177 43.23535,47.1982 43.23535,45.8177 C43.23535,44.4372 44.35435,43.3177 45.73535,43.3177 C47.11585,43.3177 48.23535,44.4372 48.23535,45.8177" id="Fill-115" fill="#FFFFFF"></path>
                    <path d="M62.64695,45.8177 C62.64695,47.1982 61.52795,48.3177 60.14695,48.3177 C58.76645,48.3177 57.64695,47.1982 57.64695,45.8177 C57.64695,44.4372 58.76645,43.3177 60.14695,43.3177 C61.52795,43.3177 62.64695,44.4372 62.64695,45.8177" id="Fill-117" fill="#FFFFFF"></path>
                    <path d="M77.05885,45.8177 C77.05885,47.1982 75.93935,48.3177 74.55885,48.3177 C73.17835,48.3177 72.05885,47.1982 72.05885,45.8177 C72.05885,44.4372 73.17835,43.3177 74.55885,43.3177 C75.93935,43.3177 77.05885,44.4372 77.05885,45.8177" id="Fill-119" fill="#FFFFFF"></path>
                    <path d="M91.4707,45.8177 C91.4707,47.1982 90.3512,48.3177 88.9707,48.3177 C87.5897,48.3177 86.4707,47.1982 86.4707,45.8177 C86.4707,44.4372 87.5897,43.3177 88.9707,43.3177 C90.3512,43.3177 91.4707,44.4372 91.4707,45.8177" id="Fill-121" fill="#FFFFFF"></path>
                    <path d="M105.8823,45.8177 C105.8823,47.1982 104.7633,48.3177 103.3823,48.3177 C102.0018,48.3177 100.8823,47.1982 100.8823,45.8177 C100.8823,44.4372 102.0018,43.3177 103.3823,43.3177 C104.7633,43.3177 105.8823,44.4372 105.8823,45.8177" id="Fill-123" fill="#FFFFFF"></path>
                    <path d="M120.2942,45.8177 C120.2942,47.1982 119.1747,48.3177 117.7942,48.3177 C116.4132,48.3177 115.2942,47.1982 115.2942,45.8177 C115.2942,44.4372 116.4132,43.3177 117.7942,43.3177 C119.1747,43.3177 120.2942,44.4372 120.2942,45.8177" id="Fill-125" fill="#FFFFFF"></path>
                    <path d="M134.70605,45.8177 C134.70605,47.1982 133.58655,48.3177 132.20605,48.3177 C130.82505,48.3177 129.70605,47.1982 129.70605,45.8177 C129.70605,44.4372 130.82505,43.3177 132.20605,43.3177 C133.58655,43.3177 134.70605,44.4372 134.70605,45.8177" id="Fill-127" fill="#FFFFFF"></path>
                    <path d="M149.1177,45.8177 C149.1177,47.1982 147.9987,48.3177 146.6177,48.3177 C145.2367,48.3177 144.1177,47.1982 144.1177,45.8177 C144.1177,44.4372 145.2367,43.3177 146.6177,43.3177 C147.9987,43.3177 149.1177,44.4372 149.1177,45.8177" id="Fill-129" fill="#FFFFFF"></path>
                    <path d="M163.5293,45.8177 C163.5293,47.1982 162.4103,48.3177 161.0293,48.3177 C159.6488,48.3177 158.5293,47.1982 158.5293,45.8177 C158.5293,44.4372 159.6488,43.3177 161.0293,43.3177 C162.4103,43.3177 163.5293,44.4372 163.5293,45.8177" id="Fill-131" fill="#FFFFFF"></path>
                    <path d="M177.9414,45.8177 C177.9414,47.1982 176.8219,48.3177 175.4414,48.3177 C174.0604,48.3177 172.9414,47.1982 172.9414,45.8177 C172.9414,44.4372 174.0604,43.3177 175.4414,43.3177 C176.8219,43.3177 177.9414,44.4372 177.9414,45.8177" id="Fill-133" fill="#FFFFFF"></path>
                    <path d="M192.35305,45.8177 C192.35305,47.1982 191.23405,48.3177 189.85305,48.3177 C188.47205,48.3177 187.35305,47.1982 187.35305,45.8177 C187.35305,44.4372 188.47205,43.3177 189.85305,43.3177 C191.23405,43.3177 192.35305,44.4372 192.35305,45.8177" id="Fill-135" fill="#FFFFFF"></path>
                    <path d="M206.76465,45.8177 C206.76465,47.1982 205.64565,48.3177 204.26465,48.3177 C202.88365,48.3177 201.76465,47.1982 201.76465,45.8177 C201.76465,44.4372 202.88365,43.3177 204.26465,43.3177 C205.64565,43.3177 206.76465,44.4372 206.76465,45.8177" id="Fill-137" fill="#FFFFFF"></path>
                    <path d="M221.17625,45.8177 C221.17625,47.1982 220.05725,48.3177 218.67625,48.3177 C217.29575,48.3177 216.17625,47.1982 216.17625,45.8177 C216.17625,44.4372 217.29575,43.3177 218.67625,43.3177 C220.05725,43.3177 221.17625,44.4372 221.17625,45.8177" id="Fill-139" fill="#FFFFFF"></path>
                    <path d="M235.5884,45.8177 C235.5884,47.1982 234.4689,48.3177 233.0884,48.3177 C231.7074,48.3177 230.5884,47.1982 230.5884,45.8177 C230.5884,44.4372 231.7074,43.3177 233.0884,43.3177 C234.4689,43.3177 235.5884,44.4372 235.5884,45.8177" id="Fill-141" fill="#FFFFFF"></path>
                    <path d="M250,45.8177 C250,47.1982 248.881,48.3177 247.5,48.3177 C246.119,48.3177 245,47.1982 245,45.8177 C245,44.4372 246.119,43.3177 247.5,43.3177 C248.881,43.3177 250,44.4372 250,45.8177" id="Fill-143" fill="#FFFFFF"></path>
                    <path d="M5,60.2569 C5,61.6379 3.8805,62.7569 2.5,62.7569 C1.1195,62.7569 0,61.6379 0,60.2569 C0,58.8764 1.1195,57.7569 2.5,57.7569 C3.8805,57.7569 5,58.8764 5,60.2569" id="Fill-145" fill="#FFFFFF"></path>
                    <path d="M19.41185,60.2569 C19.41185,61.6379 18.29235,62.7569 16.91185,62.7569 C15.53085,62.7569 14.41185,61.6379 14.41185,60.2569 C14.41185,58.8764 15.53085,57.7569 16.91185,57.7569 C18.29235,57.7569 19.41185,58.8764 19.41185,60.2569" id="Fill-147" fill="#FFFFFF"></path>
                    <path d="M33.8235,60.2569 C33.8235,61.6379 32.7045,62.7569 31.3235,62.7569 C29.943,62.7569 28.8235,61.6379 28.8235,60.2569 C28.8235,58.8764 29.943,57.7569 31.3235,57.7569 C32.7045,57.7569 33.8235,58.8764 33.8235,60.2569" id="Fill-149" fill="#FFFFFF"></path>
                    <path d="M48.23535,60.2569 C48.23535,61.6379 47.11585,62.7569 45.73535,62.7569 C44.35435,62.7569 43.23535,61.6379 43.23535,60.2569 C43.23535,58.8764 44.35435,57.7569 45.73535,57.7569 C47.11585,57.7569 48.23535,58.8764 48.23535,60.2569" id="Fill-151" fill="#FFFFFF"></path>
                    <path d="M62.64695,60.2569 C62.64695,61.6379 61.52795,62.7569 60.14695,62.7569 C58.76645,62.7569 57.64695,61.6379 57.64695,60.2569 C57.64695,58.8764 58.76645,57.7569 60.14695,57.7569 C61.52795,57.7569 62.64695,58.8764 62.64695,60.2569" id="Fill-153" fill="#FFFFFF"></path>
                    <path d="M77.05885,60.2569 C77.05885,61.6379 75.93935,62.7569 74.55885,62.7569 C73.17835,62.7569 72.05885,61.6379 72.05885,60.2569 C72.05885,58.8764 73.17835,57.7569 74.55885,57.7569 C75.93935,57.7569 77.05885,58.8764 77.05885,60.2569" id="Fill-155" fill="#FFFFFF"></path>
                    <path d="M91.4707,60.2569 C91.4707,61.6379 90.3512,62.7569 88.9707,62.7569 C87.5897,62.7569 86.4707,61.6379 86.4707,60.2569 C86.4707,58.8764 87.5897,57.7569 88.9707,57.7569 C90.3512,57.7569 91.4707,58.8764 91.4707,60.2569" id="Fill-157" fill="#FFFFFF"></path>
                    <path d="M105.8823,60.2569 C105.8823,61.6379 104.7633,62.7569 103.3823,62.7569 C102.0018,62.7569 100.8823,61.6379 100.8823,60.2569 C100.8823,58.8764 102.0018,57.7569 103.3823,57.7569 C104.7633,57.7569 105.8823,58.8764 105.8823,60.2569" id="Fill-159" fill="#FFFFFF"></path>
                    <path d="M120.2942,60.2569 C120.2942,61.6379 119.1747,62.7569 117.7942,62.7569 C116.4132,62.7569 115.2942,61.6379 115.2942,60.2569 C115.2942,58.8764 116.4132,57.7569 117.7942,57.7569 C119.1747,57.7569 120.2942,58.8764 120.2942,60.2569" id="Fill-161" fill="#FFFFFF"></path>
                    <path d="M134.70605,60.2569 C134.70605,61.6379 133.58655,62.7569 132.20605,62.7569 C130.82505,62.7569 129.70605,61.6379 129.70605,60.2569 C129.70605,58.8764 130.82505,57.7569 132.20605,57.7569 C133.58655,57.7569 134.70605,58.8764 134.70605,60.2569" id="Fill-163" fill="#FFFFFF"></path>
                    <path d="M149.1177,60.2569 C149.1177,61.6379 147.9987,62.7569 146.6177,62.7569 C145.2367,62.7569 144.1177,61.6379 144.1177,60.2569 C144.1177,58.8764 145.2367,57.7569 146.6177,57.7569 C147.9987,57.7569 149.1177,58.8764 149.1177,60.2569" id="Fill-165" fill="#FFFFFF"></path>
                    <path d="M163.5293,60.2569 C163.5293,61.6379 162.4103,62.7569 161.0293,62.7569 C159.6488,62.7569 158.5293,61.6379 158.5293,60.2569 C158.5293,58.8764 159.6488,57.7569 161.0293,57.7569 C162.4103,57.7569 163.5293,58.8764 163.5293,60.2569" id="Fill-167" fill="#FFFFFF"></path>
                    <path d="M177.9414,60.2569 C177.9414,61.6379 176.8219,62.7569 175.4414,62.7569 C174.0604,62.7569 172.9414,61.6379 172.9414,60.2569 C172.9414,58.8764 174.0604,57.7569 175.4414,57.7569 C176.8219,57.7569 177.9414,58.8764 177.9414,60.2569" id="Fill-169" fill="#FFFFFF"></path>
                    <path d="M192.35305,60.2569 C192.35305,61.6379 191.23405,62.7569 189.85305,62.7569 C188.47205,62.7569 187.35305,61.6379 187.35305,60.2569 C187.35305,58.8764 188.47205,57.7569 189.85305,57.7569 C191.23405,57.7569 192.35305,58.8764 192.35305,60.2569" id="Fill-171" fill="#FFFFFF"></path>
                    <path d="M206.76465,60.2569 C206.76465,61.6379 205.64565,62.7569 204.26465,62.7569 C202.88365,62.7569 201.76465,61.6379 201.76465,60.2569 C201.76465,58.8764 202.88365,57.7569 204.26465,57.7569 C205.64565,57.7569 206.76465,58.8764 206.76465,60.2569" id="Fill-173" fill="#FFFFFF"></path>
                    <path d="M221.17625,60.2569 C221.17625,61.6379 220.05725,62.7569 218.67625,62.7569 C217.29575,62.7569 216.17625,61.6379 216.17625,60.2569 C216.17625,58.8764 217.29575,57.7569 218.67625,57.7569 C220.05725,57.7569 221.17625,58.8764 221.17625,60.2569" id="Fill-175" fill="#FFFFFF"></path>
                    <path d="M235.5884,60.2569 C235.5884,61.6379 234.4689,62.7569 233.0884,62.7569 C231.7074,62.7569 230.5884,61.6379 230.5884,60.2569 C230.5884,58.8764 231.7074,57.7569 233.0884,57.7569 C234.4689,57.7569 235.5884,58.8764 235.5884,60.2569" id="Fill-177" fill="#FFFFFF"></path>
                    <path d="M250,60.2569 C250,61.6379 248.881,62.7569 247.5,62.7569 C246.119,62.7569 245,61.6379 245,60.2569 C245,58.8764 246.119,57.7569 247.5,57.7569 C248.881,57.7569 250,58.8764 250,60.2569" id="Fill-179" fill="#FFFFFF"></path>
                    <path d="M5,74.6961 C5,76.0771 3.8805,77.1961 2.5,77.1961 C1.1195,77.1961 0,76.0771 0,74.6961 C0,73.3156 1.1195,72.1961 2.5,72.1961 C3.8805,72.1961 5,73.3156 5,74.6961" id="Fill-181" fill="#FFFFFF"></path>
                    <path d="M19.41185,74.6961 C19.41185,76.0771 18.29235,77.1961 16.91185,77.1961 C15.53085,77.1961 14.41185,76.0771 14.41185,74.6961 C14.41185,73.3156 15.53085,72.1961 16.91185,72.1961 C18.29235,72.1961 19.41185,73.3156 19.41185,74.6961" id="Fill-183" fill="#FFFFFF"></path>
                    <path d="M33.8235,74.6961 C33.8235,76.0771 32.7045,77.1961 31.3235,77.1961 C29.943,77.1961 28.8235,76.0771 28.8235,74.6961 C28.8235,73.3156 29.943,72.1961 31.3235,72.1961 C32.7045,72.1961 33.8235,73.3156 33.8235,74.6961" id="Fill-185" fill="#FFFFFF"></path>
                    <path d="M48.23535,74.6961 C48.23535,76.0771 47.11585,77.1961 45.73535,77.1961 C44.35435,77.1961 43.23535,76.0771 43.23535,74.6961 C43.23535,73.3156 44.35435,72.1961 45.73535,72.1961 C47.11585,72.1961 48.23535,73.3156 48.23535,74.6961" id="Fill-187" fill="#FFFFFF"></path>
                    <path d="M62.64695,74.6961 C62.64695,76.0771 61.52795,77.1961 60.14695,77.1961 C58.76645,77.1961 57.64695,76.0771 57.64695,74.6961 C57.64695,73.3156 58.76645,72.1961 60.14695,72.1961 C61.52795,72.1961 62.64695,73.3156 62.64695,74.6961" id="Fill-189" fill="#FFFFFF"></path>
                    <path d="M77.05885,74.6961 C77.05885,76.0771 75.93935,77.1961 74.55885,77.1961 C73.17835,77.1961 72.05885,76.0771 72.05885,74.6961 C72.05885,73.3156 73.17835,72.1961 74.55885,72.1961 C75.93935,72.1961 77.05885,73.3156 77.05885,74.6961" id="Fill-191" fill="#FFFFFF"></path>
                    <path d="M91.4707,74.6961 C91.4707,76.0771 90.3512,77.1961 88.9707,77.1961 C87.5897,77.1961 86.4707,76.0771 86.4707,74.6961 C86.4707,73.3156 87.5897,72.1961 88.9707,72.1961 C90.3512,72.1961 91.4707,73.3156 91.4707,74.6961" id="Fill-193" fill="#FFFFFF"></path>
                    <path d="M105.8823,74.6961 C105.8823,76.0771 104.7633,77.1961 103.3823,77.1961 C102.0018,77.1961 100.8823,76.0771 100.8823,74.6961 C100.8823,73.3156 102.0018,72.1961 103.3823,72.1961 C104.7633,72.1961 105.8823,73.3156 105.8823,74.6961" id="Fill-195" fill="#FFFFFF"></path>
                    <path d="M120.2942,74.6961 C120.2942,76.0771 119.1747,77.1961 117.7942,77.1961 C116.4132,77.1961 115.2942,76.0771 115.2942,74.6961 C115.2942,73.3156 116.4132,72.1961 117.7942,72.1961 C119.1747,72.1961 120.2942,73.3156 120.2942,74.6961" id="Fill-197" fill="#FFFFFF"></path>
                    <path d="M134.70605,74.6961 C134.70605,76.0771 133.58655,77.1961 132.20605,77.1961 C130.82505,77.1961 129.70605,76.0771 129.70605,74.6961 C129.70605,73.3156 130.82505,72.1961 132.20605,72.1961 C133.58655,72.1961 134.70605,73.3156 134.70605,74.6961" id="Fill-199" fill="#FFFFFF"></path>
                    <path d="M149.1177,74.6961 C149.1177,76.0771 147.9987,77.1961 146.6177,77.1961 C145.2367,77.1961 144.1177,76.0771 144.1177,74.6961 C144.1177,73.3156 145.2367,72.1961 146.6177,72.1961 C147.9987,72.1961 149.1177,73.3156 149.1177,74.6961" id="Fill-201" fill="#FFFFFF"></path>
                    <path d="M163.5293,74.6961 C163.5293,76.0771 162.4103,77.1961 161.0293,77.1961 C159.6488,77.1961 158.5293,76.0771 158.5293,74.6961 C158.5293,73.3156 159.6488,72.1961 161.0293,72.1961 C162.4103,72.1961 163.5293,73.3156 163.5293,74.6961" id="Fill-203" fill="#FFFFFF"></path>
                    <path d="M177.9414,74.6961 C177.9414,76.0771 176.8219,77.1961 175.4414,77.1961 C174.0604,77.1961 172.9414,76.0771 172.9414,74.6961 C172.9414,73.3156 174.0604,72.1961 175.4414,72.1961 C176.8219,72.1961 177.9414,73.3156 177.9414,74.6961" id="Fill-205" fill="#FFFFFF"></path>
                    <path d="M192.35305,74.6961 C192.35305,76.0771 191.23405,77.1961 189.85305,77.1961 C188.47205,77.1961 187.35305,76.0771 187.35305,74.6961 C187.35305,73.3156 188.47205,72.1961 189.85305,72.1961 C191.23405,72.1961 192.35305,73.3156 192.35305,74.6961" id="Fill-207" fill="#FFFFFF"></path>
                    <path d="M206.76465,74.6961 C206.76465,76.0771 205.64565,77.1961 204.26465,77.1961 C202.88365,77.1961 201.76465,76.0771 201.76465,74.6961 C201.76465,73.3156 202.88365,72.1961 204.26465,72.1961 C205.64565,72.1961 206.76465,73.3156 206.76465,74.6961" id="Fill-209" fill="#FFFFFF"></path>
                    <path d="M221.17625,74.6961 C221.17625,76.0771 220.05725,77.1961 218.67625,77.1961 C217.29575,77.1961 216.17625,76.0771 216.17625,74.6961 C216.17625,73.3156 217.29575,72.1961 218.67625,72.1961 C220.05725,72.1961 221.17625,73.3156 221.17625,74.6961" id="Fill-211" fill="#FFFFFF"></path>
                    <path d="M235.5884,74.6961 C235.5884,76.0771 234.4689,77.1961 233.0884,77.1961 C231.7074,77.1961 230.5884,76.0771 230.5884,74.6961 C230.5884,73.3156 231.7074,72.1961 233.0884,72.1961 C234.4689,72.1961 235.5884,73.3156 235.5884,74.6961" id="Fill-213" fill="#FFFFFF"></path>
                    <path d="M250,74.6961 C250,76.0771 248.881,77.1961 247.5,77.1961 C246.119,77.1961 245,76.0771 245,74.6961 C245,73.3156 246.119,72.1961 247.5,72.1961 C248.881,72.1961 250,73.3156 250,74.6961" id="Fill-215" fill="#FFFFFF"></path>
                    <path d="M5,89.1353 C5,90.5163 3.8805,91.6353 2.5,91.6353 C1.1195,91.6353 0,90.5163 0,89.1353 C0,87.7548 1.1195,86.6353 2.5,86.6353 C3.8805,86.6353 5,87.7548 5,89.1353" id="Fill-217" fill="#FFFFFF"></path>
                    <path d="M19.41185,89.1353 C19.41185,90.5163 18.29235,91.6353 16.91185,91.6353 C15.53085,91.6353 14.41185,90.5163 14.41185,89.1353 C14.41185,87.7548 15.53085,86.6353 16.91185,86.6353 C18.29235,86.6353 19.41185,87.7548 19.41185,89.1353" id="Fill-219" fill="#FFFFFF"></path>
                    <path d="M33.8235,89.1353 C33.8235,90.5163 32.7045,91.6353 31.3235,91.6353 C29.943,91.6353 28.8235,90.5163 28.8235,89.1353 C28.8235,87.7548 29.943,86.6353 31.3235,86.6353 C32.7045,86.6353 33.8235,87.7548 33.8235,89.1353" id="Fill-221" fill="#FFFFFF"></path>
                    <path d="M48.23535,89.1353 C48.23535,90.5163 47.11585,91.6353 45.73535,91.6353 C44.35435,91.6353 43.23535,90.5163 43.23535,89.1353 C43.23535,87.7548 44.35435,86.6353 45.73535,86.6353 C47.11585,86.6353 48.23535,87.7548 48.23535,89.1353" id="Fill-223" fill="#FFFFFF"></path>
                    <path d="M62.64695,89.1353 C62.64695,90.5163 61.52795,91.6353 60.14695,91.6353 C58.76645,91.6353 57.64695,90.5163 57.64695,89.1353 C57.64695,87.7548 58.76645,86.6353 60.14695,86.6353 C61.52795,86.6353 62.64695,87.7548 62.64695,89.1353" id="Fill-225" fill="#FFFFFF"></path>
                    <path d="M77.05885,89.1353 C77.05885,90.5163 75.93935,91.6353 74.55885,91.6353 C73.17835,91.6353 72.05885,90.5163 72.05885,89.1353 C72.05885,87.7548 73.17835,86.6353 74.55885,86.6353 C75.93935,86.6353 77.05885,87.7548 77.05885,89.1353" id="Fill-227" fill="#FFFFFF"></path>
                    <path d="M91.4707,89.1353 C91.4707,90.5163 90.3512,91.6353 88.9707,91.6353 C87.5897,91.6353 86.4707,90.5163 86.4707,89.1353 C86.4707,87.7548 87.5897,86.6353 88.9707,86.6353 C90.3512,86.6353 91.4707,87.7548 91.4707,89.1353" id="Fill-229" fill="#FFFFFF"></path>
                    <path d="M105.8823,89.1353 C105.8823,90.5163 104.7633,91.6353 103.3823,91.6353 C102.0018,91.6353 100.8823,90.5163 100.8823,89.1353 C100.8823,87.7548 102.0018,86.6353 103.3823,86.6353 C104.7633,86.6353 105.8823,87.7548 105.8823,89.1353" id="Fill-231" fill="#FFFFFF"></path>
                    <path d="M120.2942,89.1353 C120.2942,90.5163 119.1747,91.6353 117.7942,91.6353 C116.4132,91.6353 115.2942,90.5163 115.2942,89.1353 C115.2942,87.7548 116.4132,86.6353 117.7942,86.6353 C119.1747,86.6353 120.2942,87.7548 120.2942,89.1353" id="Fill-233" fill="#FFFFFF"></path>
                    <path d="M134.70605,89.1353 C134.70605,90.5163 133.58655,91.6353 132.20605,91.6353 C130.82505,91.6353 129.70605,90.5163 129.70605,89.1353 C129.70605,87.7548 130.82505,86.6353 132.20605,86.6353 C133.58655,86.6353 134.70605,87.7548 134.70605,89.1353" id="Fill-235" fill="#FFFFFF"></path>
                    <path d="M149.1177,89.1353 C149.1177,90.5163 147.9987,91.6353 146.6177,91.6353 C145.2367,91.6353 144.1177,90.5163 144.1177,89.1353 C144.1177,87.7548 145.2367,86.6353 146.6177,86.6353 C147.9987,86.6353 149.1177,87.7548 149.1177,89.1353" id="Fill-237" fill="#FFFFFF"></path>
                    <path d="M163.5293,89.1353 C163.5293,90.5163 162.4103,91.6353 161.0293,91.6353 C159.6488,91.6353 158.5293,90.5163 158.5293,89.1353 C158.5293,87.7548 159.6488,86.6353 161.0293,86.6353 C162.4103,86.6353 163.5293,87.7548 163.5293,89.1353" id="Fill-239" fill="#FFFFFF"></path>
                    <path d="M177.9414,89.1353 C177.9414,90.5163 176.8219,91.6353 175.4414,91.6353 C174.0604,91.6353 172.9414,90.5163 172.9414,89.1353 C172.9414,87.7548 174.0604,86.6353 175.4414,86.6353 C176.8219,86.6353 177.9414,87.7548 177.9414,89.1353" id="Fill-241" fill="#FFFFFF"></path>
                    <path d="M192.35305,89.1353 C192.35305,90.5163 191.23405,91.6353 189.85305,91.6353 C188.47205,91.6353 187.35305,90.5163 187.35305,89.1353 C187.35305,87.7548 188.47205,86.6353 189.85305,86.6353 C191.23405,86.6353 192.35305,87.7548 192.35305,89.1353" id="Fill-243" fill="#FFFFFF"></path>
                    <path d="M206.76465,89.1353 C206.76465,90.5163 205.64565,91.6353 204.26465,91.6353 C202.88365,91.6353 201.76465,90.5163 201.76465,89.1353 C201.76465,87.7548 202.88365,86.6353 204.26465,86.6353 C205.64565,86.6353 206.76465,87.7548 206.76465,89.1353" id="Fill-245" fill="#FFFFFF"></path>
                    <path d="M221.17625,89.1353 C221.17625,90.5163 220.05725,91.6353 218.67625,91.6353 C217.29575,91.6353 216.17625,90.5163 216.17625,89.1353 C216.17625,87.7548 217.29575,86.6353 218.67625,86.6353 C220.05725,86.6353 221.17625,87.7548 221.17625,89.1353" id="Fill-247" fill="#FFFFFF"></path>
                    <path d="M235.5884,89.1353 C235.5884,90.5163 234.4689,91.6353 233.0884,91.6353 C231.7074,91.6353 230.5884,90.5163 230.5884,89.1353 C230.5884,87.7548 231.7074,86.6353 233.0884,86.6353 C234.4689,86.6353 235.5884,87.7548 235.5884,89.1353" id="Fill-249" fill="#FFFFFF"></path>
                    <path d="M250,89.1353 C250,90.5163 248.881,91.6353 247.5,91.6353 C246.119,91.6353 245,90.5163 245,89.1353 C245,87.7548 246.119,86.6353 247.5,86.6353 C248.881,86.6353 250,87.7548 250,89.1353" id="Fill-251" fill="#FFFFFF"></path>
                    <path d="M5,103.5745 C5,104.9555 3.8805,106.0745 2.5,106.0745 C1.1195,106.0745 0,104.9555 0,103.5745 C0,102.194 1.1195,101.0745 2.5,101.0745 C3.8805,101.0745 5,102.194 5,103.5745" id="Fill-253" fill="#FFFFFF"></path>
                    <path d="M19.41185,103.5745 C19.41185,104.9555 18.29235,106.0745 16.91185,106.0745 C15.53085,106.0745 14.41185,104.9555 14.41185,103.5745 C14.41185,102.194 15.53085,101.0745 16.91185,101.0745 C18.29235,101.0745 19.41185,102.194 19.41185,103.5745" id="Fill-255" fill="#FFFFFF"></path>
                    <path d="M33.8235,103.5745 C33.8235,104.9555 32.7045,106.0745 31.3235,106.0745 C29.943,106.0745 28.8235,104.9555 28.8235,103.5745 C28.8235,102.194 29.943,101.0745 31.3235,101.0745 C32.7045,101.0745 33.8235,102.194 33.8235,103.5745" id="Fill-257" fill="#FFFFFF"></path>
                    <path d="M48.23535,103.5745 C48.23535,104.9555 47.11585,106.0745 45.73535,106.0745 C44.35435,106.0745 43.23535,104.9555 43.23535,103.5745 C43.23535,102.194 44.35435,101.0745 45.73535,101.0745 C47.11585,101.0745 48.23535,102.194 48.23535,103.5745" id="Fill-259" fill="#FFFFFF"></path>
                    <path d="M62.64695,103.5745 C62.64695,104.9555 61.52795,106.0745 60.14695,106.0745 C58.76645,106.0745 57.64695,104.9555 57.64695,103.5745 C57.64695,102.194 58.76645,101.0745 60.14695,101.0745 C61.52795,101.0745 62.64695,102.194 62.64695,103.5745" id="Fill-261" fill="#FFFFFF"></path>
                    <path d="M77.05885,103.5745 C77.05885,104.9555 75.93935,106.0745 74.55885,106.0745 C73.17835,106.0745 72.05885,104.9555 72.05885,103.5745 C72.05885,102.194 73.17835,101.0745 74.55885,101.0745 C75.93935,101.0745 77.05885,102.194 77.05885,103.5745" id="Fill-263" fill="#FFFFFF"></path>
                    <path d="M91.4707,103.5745 C91.4707,104.9555 90.3512,106.0745 88.9707,106.0745 C87.5897,106.0745 86.4707,104.9555 86.4707,103.5745 C86.4707,102.194 87.5897,101.0745 88.9707,101.0745 C90.3512,101.0745 91.4707,102.194 91.4707,103.5745" id="Fill-265" fill="#FFFFFF"></path>
                    <path d="M105.8823,103.5745 C105.8823,104.9555 104.7633,106.0745 103.3823,106.0745 C102.0018,106.0745 100.8823,104.9555 100.8823,103.5745 C100.8823,102.194 102.0018,101.0745 103.3823,101.0745 C104.7633,101.0745 105.8823,102.194 105.8823,103.5745" id="Fill-267" fill="#FFFFFF"></path>
                    <path d="M120.2942,103.5745 C120.2942,104.9555 119.1747,106.0745 117.7942,106.0745 C116.4132,106.0745 115.2942,104.9555 115.2942,103.5745 C115.2942,102.194 116.4132,101.0745 117.7942,101.0745 C119.1747,101.0745 120.2942,102.194 120.2942,103.5745" id="Fill-269" fill="#FFFFFF"></path>
                    <path d="M134.70605,103.5745 C134.70605,104.9555 133.58655,106.0745 132.20605,106.0745 C130.82505,106.0745 129.70605,104.9555 129.70605,103.5745 C129.70605,102.194 130.82505,101.0745 132.20605,101.0745 C133.58655,101.0745 134.70605,102.194 134.70605,103.5745" id="Fill-271" fill="#FFFFFF"></path>
                    <path d="M149.1177,103.5745 C149.1177,104.9555 147.9987,106.0745 146.6177,106.0745 C145.2367,106.0745 144.1177,104.9555 144.1177,103.5745 C144.1177,102.194 145.2367,101.0745 146.6177,101.0745 C147.9987,101.0745 149.1177,102.194 149.1177,103.5745" id="Fill-273" fill="#FFFFFF"></path>
                    <path d="M163.5293,103.5745 C163.5293,104.9555 162.4103,106.0745 161.0293,106.0745 C159.6488,106.0745 158.5293,104.9555 158.5293,103.5745 C158.5293,102.194 159.6488,101.0745 161.0293,101.0745 C162.4103,101.0745 163.5293,102.194 163.5293,103.5745" id="Fill-275" fill="#FFFFFF"></path>
                    <path d="M177.9414,103.5745 C177.9414,104.9555 176.8219,106.0745 175.4414,106.0745 C174.0604,106.0745 172.9414,104.9555 172.9414,103.5745 C172.9414,102.194 174.0604,101.0745 175.4414,101.0745 C176.8219,101.0745 177.9414,102.194 177.9414,103.5745" id="Fill-277" fill="#FFFFFF"></path>
                    <path d="M192.35305,103.5745 C192.35305,104.9555 191.23405,106.0745 189.85305,106.0745 C188.47205,106.0745 187.35305,104.9555 187.35305,103.5745 C187.35305,102.194 188.47205,101.0745 189.85305,101.0745 C191.23405,101.0745 192.35305,102.194 192.35305,103.5745" id="Fill-279" fill="#FFFFFF"></path>
                    <path d="M206.76465,103.5745 C206.76465,104.9555 205.64565,106.0745 204.26465,106.0745 C202.88365,106.0745 201.76465,104.9555 201.76465,103.5745 C201.76465,102.194 202.88365,101.0745 204.26465,101.0745 C205.64565,101.0745 206.76465,102.194 206.76465,103.5745" id="Fill-281" fill="#FFFFFF"></path>
                    <path d="M221.17625,103.5745 C221.17625,104.9555 220.05725,106.0745 218.67625,106.0745 C217.29575,106.0745 216.17625,104.9555 216.17625,103.5745 C216.17625,102.194 217.29575,101.0745 218.67625,101.0745 C220.05725,101.0745 221.17625,102.194 221.17625,103.5745" id="Fill-283" fill="#FFFFFF"></path>
                    <path d="M235.5884,103.5745 C235.5884,104.9555 234.4689,106.0745 233.0884,106.0745 C231.7074,106.0745 230.5884,104.9555 230.5884,103.5745 C230.5884,102.194 231.7074,101.0745 233.0884,101.0745 C234.4689,101.0745 235.5884,102.194 235.5884,103.5745" id="Fill-285" fill="#FFFFFF"></path>
                    <path d="M250,103.5745 C250,104.9555 248.881,106.0745 247.5,106.0745 C246.119,106.0745 245,104.9555 245,103.5745 C245,102.194 246.119,101.0745 247.5,101.0745 C248.881,101.0745 250,102.194 250,103.5745" id="Fill-287" fill="#FFFFFF"></path>
                    <path d="M5,118.01375 C5,119.39475 3.8805,120.51375 2.5,120.51375 C1.1195,120.51375 0,119.39475 0,118.01375 C0,116.63325 1.1195,115.51375 2.5,115.51375 C3.8805,115.51375 5,116.63325 5,118.01375" id="Fill-289" fill="#FFFFFF"></path>
                    <path d="M19.41185,118.01375 C19.41185,119.39475 18.29235,120.51375 16.91185,120.51375 C15.53085,120.51375 14.41185,119.39475 14.41185,118.01375 C14.41185,116.63325 15.53085,115.51375 16.91185,115.51375 C18.29235,115.51375 19.41185,116.63325 19.41185,118.01375" id="Fill-291" fill="#FFFFFF"></path>
                    <path d="M33.8235,118.01375 C33.8235,119.39475 32.7045,120.51375 31.3235,120.51375 C29.943,120.51375 28.8235,119.39475 28.8235,118.01375 C28.8235,116.63325 29.943,115.51375 31.3235,115.51375 C32.7045,115.51375 33.8235,116.63325 33.8235,118.01375" id="Fill-293" fill="#FFFFFF"></path>
                    <path d="M48.23535,118.01375 C48.23535,119.39475 47.11585,120.51375 45.73535,120.51375 C44.35435,120.51375 43.23535,119.39475 43.23535,118.01375 C43.23535,116.63325 44.35435,115.51375 45.73535,115.51375 C47.11585,115.51375 48.23535,116.63325 48.23535,118.01375" id="Fill-295" fill="#FFFFFF"></path>
                    <path d="M62.64695,118.01375 C62.64695,119.39475 61.52795,120.51375 60.14695,120.51375 C58.76645,120.51375 57.64695,119.39475 57.64695,118.01375 C57.64695,116.63325 58.76645,115.51375 60.14695,115.51375 C61.52795,115.51375 62.64695,116.63325 62.64695,118.01375" id="Fill-297" fill="#FFFFFF"></path>
                    <path d="M77.05885,118.01375 C77.05885,119.39475 75.93935,120.51375 74.55885,120.51375 C73.17835,120.51375 72.05885,119.39475 72.05885,118.01375 C72.05885,116.63325 73.17835,115.51375 74.55885,115.51375 C75.93935,115.51375 77.05885,116.63325 77.05885,118.01375" id="Fill-299" fill="#FFFFFF"></path>
                    <path d="M91.4707,118.01375 C91.4707,119.39475 90.3512,120.51375 88.9707,120.51375 C87.5897,120.51375 86.4707,119.39475 86.4707,118.01375 C86.4707,116.63325 87.5897,115.51375 88.9707,115.51375 C90.3512,115.51375 91.4707,116.63325 91.4707,118.01375" id="Fill-301" fill="#FFFFFF"></path>
                    <path d="M105.8823,118.01375 C105.8823,119.39475 104.7633,120.51375 103.3823,120.51375 C102.0018,120.51375 100.8823,119.39475 100.8823,118.01375 C100.8823,116.63325 102.0018,115.51375 103.3823,115.51375 C104.7633,115.51375 105.8823,116.63325 105.8823,118.01375" id="Fill-303" fill="#FFFFFF"></path>
                    <path d="M120.2942,118.01375 C120.2942,119.39475 119.1747,120.51375 117.7942,120.51375 C116.4132,120.51375 115.2942,119.39475 115.2942,118.01375 C115.2942,116.63325 116.4132,115.51375 117.7942,115.51375 C119.1747,115.51375 120.2942,116.63325 120.2942,118.01375" id="Fill-305" fill="#FFFFFF"></path>
                    <path d="M134.70605,118.01375 C134.70605,119.39475 133.58655,120.51375 132.20605,120.51375 C130.82505,120.51375 129.70605,119.39475 129.70605,118.01375 C129.70605,116.63325 130.82505,115.51375 132.20605,115.51375 C133.58655,115.51375 134.70605,116.63325 134.70605,118.01375" id="Fill-307" fill="#FFFFFF"></path>
                    <path d="M149.1177,118.01375 C149.1177,119.39475 147.9987,120.51375 146.6177,120.51375 C145.2367,120.51375 144.1177,119.39475 144.1177,118.01375 C144.1177,116.63325 145.2367,115.51375 146.6177,115.51375 C147.9987,115.51375 149.1177,116.63325 149.1177,118.01375" id="Fill-309" fill="#FFFFFF"></path>
                    <path d="M163.5293,118.01375 C163.5293,119.39475 162.4103,120.51375 161.0293,120.51375 C159.6488,120.51375 158.5293,119.39475 158.5293,118.01375 C158.5293,116.63325 159.6488,115.51375 161.0293,115.51375 C162.4103,115.51375 163.5293,116.63325 163.5293,118.01375" id="Fill-311" fill="#FFFFFF"></path>
                    <path d="M177.9414,118.01375 C177.9414,119.39475 176.8219,120.51375 175.4414,120.51375 C174.0604,120.51375 172.9414,119.39475 172.9414,118.01375 C172.9414,116.63325 174.0604,115.51375 175.4414,115.51375 C176.8219,115.51375 177.9414,116.63325 177.9414,118.01375" id="Fill-313" fill="#FFFFFF"></path>
                    <path d="M192.35305,118.01375 C192.35305,119.39475 191.23405,120.51375 189.85305,120.51375 C188.47205,120.51375 187.35305,119.39475 187.35305,118.01375 C187.35305,116.63325 188.47205,115.51375 189.85305,115.51375 C191.23405,115.51375 192.35305,116.63325 192.35305,118.01375" id="Fill-315" fill="#FFFFFF"></path>
                    <path d="M206.76465,118.01375 C206.76465,119.39475 205.64565,120.51375 204.26465,120.51375 C202.88365,120.51375 201.76465,119.39475 201.76465,118.01375 C201.76465,116.63325 202.88365,115.51375 204.26465,115.51375 C205.64565,115.51375 206.76465,116.63325 206.76465,118.01375" id="Fill-317" fill="#FFFFFF"></path>
                    <path d="M221.17625,118.01375 C221.17625,119.39475 220.05725,120.51375 218.67625,120.51375 C217.29575,120.51375 216.17625,119.39475 216.17625,118.01375 C216.17625,116.63325 217.29575,115.51375 218.67625,115.51375 C220.05725,115.51375 221.17625,116.63325 221.17625,118.01375" id="Fill-319" fill="#FFFFFF"></path>
                    <path d="M235.5884,118.01375 C235.5884,119.39475 234.4689,120.51375 233.0884,120.51375 C231.7074,120.51375 230.5884,119.39475 230.5884,118.01375 C230.5884,116.63325 231.7074,115.51375 233.0884,115.51375 C234.4689,115.51375 235.5884,116.63325 235.5884,118.01375" id="Fill-321" fill="#FFFFFF"></path>
                    <path d="M250,118.01375 C250,119.39475 248.881,120.51375 247.5,120.51375 C246.119,120.51375 245,119.39475 245,118.01375 C245,116.63325 246.119,115.51375 247.5,115.51375 C248.881,115.51375 250,116.63325 250,118.01375" id="Fill-323" fill="#FFFFFF"></path>
                    <path d="M5,132.4532 C5,133.8337 3.8805,134.9532 2.5,134.9532 C1.1195,134.9532 0,133.8337 0,132.4532 C0,131.0722 1.1195,129.9532 2.5,129.9532 C3.8805,129.9532 5,131.0722 5,132.4532" id="Fill-325" fill="#FFFFFF"></path>
                    <path d="M19.41185,132.4532 C19.41185,133.8337 18.29235,134.9532 16.91185,134.9532 C15.53085,134.9532 14.41185,133.8337 14.41185,132.4532 C14.41185,131.0722 15.53085,129.9532 16.91185,129.9532 C18.29235,129.9532 19.41185,131.0722 19.41185,132.4532" id="Fill-327" fill="#FFFFFF"></path>
                    <path d="M33.8235,132.4532 C33.8235,133.8337 32.7045,134.9532 31.3235,134.9532 C29.943,134.9532 28.8235,133.8337 28.8235,132.4532 C28.8235,131.0722 29.943,129.9532 31.3235,129.9532 C32.7045,129.9532 33.8235,131.0722 33.8235,132.4532" id="Fill-329" fill="#FFFFFF"></path>
                    <path d="M48.23535,132.4532 C48.23535,133.8337 47.11585,134.9532 45.73535,134.9532 C44.35435,134.9532 43.23535,133.8337 43.23535,132.4532 C43.23535,131.0722 44.35435,129.9532 45.73535,129.9532 C47.11585,129.9532 48.23535,131.0722 48.23535,132.4532" id="Fill-331" fill="#FFFFFF"></path>
                    <path d="M62.64695,132.4532 C62.64695,133.8337 61.52795,134.9532 60.14695,134.9532 C58.76645,134.9532 57.64695,133.8337 57.64695,132.4532 C57.64695,131.0722 58.76645,129.9532 60.14695,129.9532 C61.52795,129.9532 62.64695,131.0722 62.64695,132.4532" id="Fill-333" fill="#FFFFFF"></path>
                    <path d="M77.05885,132.4532 C77.05885,133.8337 75.93935,134.9532 74.55885,134.9532 C73.17835,134.9532 72.05885,133.8337 72.05885,132.4532 C72.05885,131.0722 73.17835,129.9532 74.55885,129.9532 C75.93935,129.9532 77.05885,131.0722 77.05885,132.4532" id="Fill-335" fill="#FFFFFF"></path>
                    <path d="M91.4707,132.4532 C91.4707,133.8337 90.3512,134.9532 88.9707,134.9532 C87.5897,134.9532 86.4707,133.8337 86.4707,132.4532 C86.4707,131.0722 87.5897,129.9532 88.9707,129.9532 C90.3512,129.9532 91.4707,131.0722 91.4707,132.4532" id="Fill-337" fill="#FFFFFF"></path>
                    <path d="M105.8823,132.4532 C105.8823,133.8337 104.7633,134.9532 103.3823,134.9532 C102.0018,134.9532 100.8823,133.8337 100.8823,132.4532 C100.8823,131.0722 102.0018,129.9532 103.3823,129.9532 C104.7633,129.9532 105.8823,131.0722 105.8823,132.4532" id="Fill-339" fill="#FFFFFF"></path>
                    <path d="M120.2942,132.4532 C120.2942,133.8337 119.1747,134.9532 117.7942,134.9532 C116.4132,134.9532 115.2942,133.8337 115.2942,132.4532 C115.2942,131.0722 116.4132,129.9532 117.7942,129.9532 C119.1747,129.9532 120.2942,131.0722 120.2942,132.4532" id="Fill-341" fill="#FFFFFF"></path>
                    <path d="M134.70605,132.4532 C134.70605,133.8337 133.58655,134.9532 132.20605,134.9532 C130.82505,134.9532 129.70605,133.8337 129.70605,132.4532 C129.70605,131.0722 130.82505,129.9532 132.20605,129.9532 C133.58655,129.9532 134.70605,131.0722 134.70605,132.4532" id="Fill-343" fill="#FFFFFF"></path>
                    <path d="M149.1177,132.4532 C149.1177,133.8337 147.9987,134.9532 146.6177,134.9532 C145.2367,134.9532 144.1177,133.8337 144.1177,132.4532 C144.1177,131.0722 145.2367,129.9532 146.6177,129.9532 C147.9987,129.9532 149.1177,131.0722 149.1177,132.4532" id="Fill-345" fill="#FFFFFF"></path>
                    <path d="M163.5293,132.4532 C163.5293,133.8337 162.4103,134.9532 161.0293,134.9532 C159.6488,134.9532 158.5293,133.8337 158.5293,132.4532 C158.5293,131.0722 159.6488,129.9532 161.0293,129.9532 C162.4103,129.9532 163.5293,131.0722 163.5293,132.4532" id="Fill-347" fill="#FFFFFF"></path>
                    <path d="M177.9414,132.4532 C177.9414,133.8337 176.8219,134.9532 175.4414,134.9532 C174.0604,134.9532 172.9414,133.8337 172.9414,132.4532 C172.9414,131.0722 174.0604,129.9532 175.4414,129.9532 C176.8219,129.9532 177.9414,131.0722 177.9414,132.4532" id="Fill-349" fill="#FFFFFF"></path>
                    <path d="M192.35305,132.4532 C192.35305,133.8337 191.23405,134.9532 189.85305,134.9532 C188.47205,134.9532 187.35305,133.8337 187.35305,132.4532 C187.35305,131.0722 188.47205,129.9532 189.85305,129.9532 C191.23405,129.9532 192.35305,131.0722 192.35305,132.4532" id="Fill-351" fill="#FFFFFF"></path>
                    <path d="M206.76465,132.4532 C206.76465,133.8337 205.64565,134.9532 204.26465,134.9532 C202.88365,134.9532 201.76465,133.8337 201.76465,132.4532 C201.76465,131.0722 202.88365,129.9532 204.26465,129.9532 C205.64565,129.9532 206.76465,131.0722 206.76465,132.4532" id="Fill-353" fill="#FFFFFF"></path>
                    <path d="M221.17625,132.4532 C221.17625,133.8337 220.05725,134.9532 218.67625,134.9532 C217.29575,134.9532 216.17625,133.8337 216.17625,132.4532 C216.17625,131.0722 217.29575,129.9532 218.67625,129.9532 C220.05725,129.9532 221.17625,131.0722 221.17625,132.4532" id="Fill-355" fill="#FFFFFF"></path>
                    <path d="M235.5884,132.4532 C235.5884,133.8337 234.4689,134.9532 233.0884,134.9532 C231.7074,134.9532 230.5884,133.8337 230.5884,132.4532 C230.5884,131.0722 231.7074,129.9532 233.0884,129.9532 C234.4689,129.9532 235.5884,131.0722 235.5884,132.4532" id="Fill-357" fill="#FFFFFF"></path>
                    <path d="M250,132.4532 C250,133.8337 248.881,134.9532 247.5,134.9532 C246.119,134.9532 245,133.8337 245,132.4532 C245,131.0722 246.119,129.9532 247.5,129.9532 C248.881,129.9532 250,131.0722 250,132.4532" id="Fill-359" fill="#FFFFFF"></path>
                    <path d="M5,146.89215 C5,148.27315 3.8805,149.39215 2.5,149.39215 C1.1195,149.39215 0,148.27315 0,146.89215 C0,145.51115 1.1195,144.39215 2.5,144.39215 C3.8805,144.39215 5,145.51115 5,146.89215" id="Fill-361" fill="#FFFFFF"></path>
                    <path d="M19.41185,146.89215 C19.41185,148.27315 18.29235,149.39215 16.91185,149.39215 C15.53085,149.39215 14.41185,148.27315 14.41185,146.89215 C14.41185,145.51115 15.53085,144.39215 16.91185,144.39215 C18.29235,144.39215 19.41185,145.51115 19.41185,146.89215" id="Fill-363" fill="#FFFFFF"></path>
                    <path d="M33.8235,146.89215 C33.8235,148.27315 32.7045,149.39215 31.3235,149.39215 C29.943,149.39215 28.8235,148.27315 28.8235,146.89215 C28.8235,145.51115 29.943,144.39215 31.3235,144.39215 C32.7045,144.39215 33.8235,145.51115 33.8235,146.89215" id="Fill-365" fill="#FFFFFF"></path>
                    <path d="M48.23535,146.89215 C48.23535,148.27315 47.11585,149.39215 45.73535,149.39215 C44.35435,149.39215 43.23535,148.27315 43.23535,146.89215 C43.23535,145.51115 44.35435,144.39215 45.73535,144.39215 C47.11585,144.39215 48.23535,145.51115 48.23535,146.89215" id="Fill-367" fill="#FFFFFF"></path>
                    <path d="M62.64695,146.89215 C62.64695,148.27315 61.52795,149.39215 60.14695,149.39215 C58.76645,149.39215 57.64695,148.27315 57.64695,146.89215 C57.64695,145.51115 58.76645,144.39215 60.14695,144.39215 C61.52795,144.39215 62.64695,145.51115 62.64695,146.89215" id="Fill-369" fill="#FFFFFF"></path>
                    <path d="M77.05885,146.89215 C77.05885,148.27315 75.93935,149.39215 74.55885,149.39215 C73.17835,149.39215 72.05885,148.27315 72.05885,146.89215 C72.05885,145.51115 73.17835,144.39215 74.55885,144.39215 C75.93935,144.39215 77.05885,145.51115 77.05885,146.89215" id="Fill-371" fill="#FFFFFF"></path>
                    <path d="M91.4707,146.89215 C91.4707,148.27315 90.3512,149.39215 88.9707,149.39215 C87.5897,149.39215 86.4707,148.27315 86.4707,146.89215 C86.4707,145.51115 87.5897,144.39215 88.9707,144.39215 C90.3512,144.39215 91.4707,145.51115 91.4707,146.89215" id="Fill-373" fill="#FFFFFF"></path>
                    <path d="M105.8823,146.89215 C105.8823,148.27315 104.7633,149.39215 103.3823,149.39215 C102.0018,149.39215 100.8823,148.27315 100.8823,146.89215 C100.8823,145.51115 102.0018,144.39215 103.3823,144.39215 C104.7633,144.39215 105.8823,145.51115 105.8823,146.89215" id="Fill-375" fill="#FFFFFF"></path>
                    <path d="M120.2942,146.89215 C120.2942,148.27315 119.1747,149.39215 117.7942,149.39215 C116.4132,149.39215 115.2942,148.27315 115.2942,146.89215 C115.2942,145.51115 116.4132,144.39215 117.7942,144.39215 C119.1747,144.39215 120.2942,145.51115 120.2942,146.89215" id="Fill-377" fill="#FFFFFF"></path>
                    <path d="M134.70605,146.89215 C134.70605,148.27315 133.58655,149.39215 132.20605,149.39215 C130.82505,149.39215 129.70605,148.27315 129.70605,146.89215 C129.70605,145.51115 130.82505,144.39215 132.20605,144.39215 C133.58655,144.39215 134.70605,145.51115 134.70605,146.89215" id="Fill-379" fill="#FFFFFF"></path>
                    <path d="M149.1177,146.89215 C149.1177,148.27315 147.9987,149.39215 146.6177,149.39215 C145.2367,149.39215 144.1177,148.27315 144.1177,146.89215 C144.1177,145.51115 145.2367,144.39215 146.6177,144.39215 C147.9987,144.39215 149.1177,145.51115 149.1177,146.89215" id="Fill-381" fill="#FFFFFF"></path>
                    <path d="M163.5293,146.89215 C163.5293,148.27315 162.4103,149.39215 161.0293,149.39215 C159.6488,149.39215 158.5293,148.27315 158.5293,146.89215 C158.5293,145.51115 159.6488,144.39215 161.0293,144.39215 C162.4103,144.39215 163.5293,145.51115 163.5293,146.89215" id="Fill-383" fill="#FFFFFF"></path>
                    <path d="M177.9414,146.89215 C177.9414,148.27315 176.8219,149.39215 175.4414,149.39215 C174.0604,149.39215 172.9414,148.27315 172.9414,146.89215 C172.9414,145.51115 174.0604,144.39215 175.4414,144.39215 C176.8219,144.39215 177.9414,145.51115 177.9414,146.89215" id="Fill-385" fill="#FFFFFF"></path>
                    <path d="M192.35305,146.89215 C192.35305,148.27315 191.23405,149.39215 189.85305,149.39215 C188.47205,149.39215 187.35305,148.27315 187.35305,146.89215 C187.35305,145.51115 188.47205,144.39215 189.85305,144.39215 C191.23405,144.39215 192.35305,145.51115 192.35305,146.89215" id="Fill-387" fill="#FFFFFF"></path>
                    <path d="M206.76465,146.89215 C206.76465,148.27315 205.64565,149.39215 204.26465,149.39215 C202.88365,149.39215 201.76465,148.27315 201.76465,146.89215 C201.76465,145.51115 202.88365,144.39215 204.26465,144.39215 C205.64565,144.39215 206.76465,145.51115 206.76465,146.89215" id="Fill-389" fill="#FFFFFF"></path>
                    <path d="M221.17625,146.89215 C221.17625,148.27315 220.05725,149.39215 218.67625,149.39215 C217.29575,149.39215 216.17625,148.27315 216.17625,146.89215 C216.17625,145.51115 217.29575,144.39215 218.67625,144.39215 C220.05725,144.39215 221.17625,145.51115 221.17625,146.89215" id="Fill-391" fill="#FFFFFF"></path>
                    <path d="M235.5884,146.89215 C235.5884,148.27315 234.4689,149.39215 233.0884,149.39215 C231.7074,149.39215 230.5884,148.27315 230.5884,146.89215 C230.5884,145.51115 231.7074,144.39215 233.0884,144.39215 C234.4689,144.39215 235.5884,145.51115 235.5884,146.89215" id="Fill-393" fill="#FFFFFF"></path>
                    <path d="M250,146.89215 C250,148.27315 248.881,149.39215 247.5,149.39215 C246.119,149.39215 245,148.27315 245,146.89215 C245,145.51115 246.119,144.39215 247.5,144.39215 C248.881,144.39215 250,145.51115 250,146.89215" id="Fill-395" fill="#FFFFFF"></path>
                    <path d="M5,161.3316 C5,162.7121 3.8805,163.8316 2.5,163.8316 C1.1195,163.8316 0,162.7121 0,161.3316 C0,159.9506 1.1195,158.8316 2.5,158.8316 C3.8805,158.8316 5,159.9506 5,161.3316" id="Fill-397" fill="#FFFFFF"></path>
                    <path d="M19.41185,161.3316 C19.41185,162.7121 18.29235,163.8316 16.91185,163.8316 C15.53085,163.8316 14.41185,162.7121 14.41185,161.3316 C14.41185,159.9506 15.53085,158.8316 16.91185,158.8316 C18.29235,158.8316 19.41185,159.9506 19.41185,161.3316" id="Fill-399" fill="#FFFFFF"></path>
                    <path d="M33.8235,161.3316 C33.8235,162.7121 32.7045,163.8316 31.3235,163.8316 C29.943,163.8316 28.8235,162.7121 28.8235,161.3316 C28.8235,159.9506 29.943,158.8316 31.3235,158.8316 C32.7045,158.8316 33.8235,159.9506 33.8235,161.3316" id="Fill-401" fill="#FFFFFF"></path>
                    <path d="M48.23535,161.3316 C48.23535,162.7121 47.11585,163.8316 45.73535,163.8316 C44.35435,163.8316 43.23535,162.7121 43.23535,161.3316 C43.23535,159.9506 44.35435,158.8316 45.73535,158.8316 C47.11585,158.8316 48.23535,159.9506 48.23535,161.3316" id="Fill-403" fill="#FFFFFF"></path>
                    <path d="M62.64695,161.3316 C62.64695,162.7121 61.52795,163.8316 60.14695,163.8316 C58.76645,163.8316 57.64695,162.7121 57.64695,161.3316 C57.64695,159.9506 58.76645,158.8316 60.14695,158.8316 C61.52795,158.8316 62.64695,159.9506 62.64695,161.3316" id="Fill-405" fill="#FFFFFF"></path>
                    <path d="M77.05885,161.3316 C77.05885,162.7121 75.93935,163.8316 74.55885,163.8316 C73.17835,163.8316 72.05885,162.7121 72.05885,161.3316 C72.05885,159.9506 73.17835,158.8316 74.55885,158.8316 C75.93935,158.8316 77.05885,159.9506 77.05885,161.3316" id="Fill-407" fill="#FFFFFF"></path>
                    <path d="M91.4707,161.3316 C91.4707,162.7121 90.3512,163.8316 88.9707,163.8316 C87.5897,163.8316 86.4707,162.7121 86.4707,161.3316 C86.4707,159.9506 87.5897,158.8316 88.9707,158.8316 C90.3512,158.8316 91.4707,159.9506 91.4707,161.3316" id="Fill-409" fill="#FFFFFF"></path>
                    <path d="M105.8823,161.3316 C105.8823,162.7121 104.7633,163.8316 103.3823,163.8316 C102.0018,163.8316 100.8823,162.7121 100.8823,161.3316 C100.8823,159.9506 102.0018,158.8316 103.3823,158.8316 C104.7633,158.8316 105.8823,159.9506 105.8823,161.3316" id="Fill-411" fill="#FFFFFF"></path>
                    <path d="M120.2942,161.3316 C120.2942,162.7121 119.1747,163.8316 117.7942,163.8316 C116.4132,163.8316 115.2942,162.7121 115.2942,161.3316 C115.2942,159.9506 116.4132,158.8316 117.7942,158.8316 C119.1747,158.8316 120.2942,159.9506 120.2942,161.3316" id="Fill-413" fill="#FFFFFF"></path>
                    <path d="M134.70605,161.3316 C134.70605,162.7121 133.58655,163.8316 132.20605,163.8316 C130.82505,163.8316 129.70605,162.7121 129.70605,161.3316 C129.70605,159.9506 130.82505,158.8316 132.20605,158.8316 C133.58655,158.8316 134.70605,159.9506 134.70605,161.3316" id="Fill-415" fill="#FFFFFF"></path>
                    <path d="M149.1177,161.3316 C149.1177,162.7121 147.9987,163.8316 146.6177,163.8316 C145.2367,163.8316 144.1177,162.7121 144.1177,161.3316 C144.1177,159.9506 145.2367,158.8316 146.6177,158.8316 C147.9987,158.8316 149.1177,159.9506 149.1177,161.3316" id="Fill-417" fill="#FFFFFF"></path>
                    <path d="M163.5293,161.3316 C163.5293,162.7121 162.4103,163.8316 161.0293,163.8316 C159.6488,163.8316 158.5293,162.7121 158.5293,161.3316 C158.5293,159.9506 159.6488,158.8316 161.0293,158.8316 C162.4103,158.8316 163.5293,159.9506 163.5293,161.3316" id="Fill-419" fill="#FFFFFF"></path>
                    <path d="M177.9414,161.3316 C177.9414,162.7121 176.8219,163.8316 175.4414,163.8316 C174.0604,163.8316 172.9414,162.7121 172.9414,161.3316 C172.9414,159.9506 174.0604,158.8316 175.4414,158.8316 C176.8219,158.8316 177.9414,159.9506 177.9414,161.3316" id="Fill-421" fill="#FFFFFF"></path>
                    <path d="M192.35305,161.3316 C192.35305,162.7121 191.23405,163.8316 189.85305,163.8316 C188.47205,163.8316 187.35305,162.7121 187.35305,161.3316 C187.35305,159.9506 188.47205,158.8316 189.85305,158.8316 C191.23405,158.8316 192.35305,159.9506 192.35305,161.3316" id="Fill-423" fill="#FFFFFF"></path>
                    <path d="M206.76465,161.3316 C206.76465,162.7121 205.64565,163.8316 204.26465,163.8316 C202.88365,163.8316 201.76465,162.7121 201.76465,161.3316 C201.76465,159.9506 202.88365,158.8316 204.26465,158.8316 C205.64565,158.8316 206.76465,159.9506 206.76465,161.3316" id="Fill-425" fill="#FFFFFF"></path>
                    <path d="M221.17625,161.3316 C221.17625,162.7121 220.05725,163.8316 218.67625,163.8316 C217.29575,163.8316 216.17625,162.7121 216.17625,161.3316 C216.17625,159.9506 217.29575,158.8316 218.67625,158.8316 C220.05725,158.8316 221.17625,159.9506 221.17625,161.3316" id="Fill-427" fill="#FFFFFF"></path>
                    <path d="M235.5884,161.3316 C235.5884,162.7121 234.4689,163.8316 233.0884,163.8316 C231.7074,163.8316 230.5884,162.7121 230.5884,161.3316 C230.5884,159.9506 231.7074,158.8316 233.0884,158.8316 C234.4689,158.8316 235.5884,159.9506 235.5884,161.3316" id="Fill-429" fill="#FFFFFF"></path>
                    <path d="M250,161.3316 C250,162.7121 248.881,163.8316 247.5,163.8316 C246.119,163.8316 245,162.7121 245,161.3316 C245,159.9506 246.119,158.8316 247.5,158.8316 C248.881,158.8316 250,159.9506 250,161.3316" id="Fill-431" fill="#FFFFFF"></path>
                    <path d="M5,175.77055 C5,177.15155 3.8805,178.27055 2.5,178.27055 C1.1195,178.27055 0,177.15155 0,175.77055 C0,174.38955 1.1195,173.27055 2.5,173.27055 C3.8805,173.27055 5,174.38955 5,175.77055" id="Fill-433" fill="#FFFFFF"></path>
                    <path d="M19.41185,175.77055 C19.41185,177.15155 18.29235,178.27055 16.91185,178.27055 C15.53085,178.27055 14.41185,177.15155 14.41185,175.77055 C14.41185,174.38955 15.53085,173.27055 16.91185,173.27055 C18.29235,173.27055 19.41185,174.38955 19.41185,175.77055" id="Fill-435" fill="#FFFFFF"></path>
                    <path d="M33.8235,175.77055 C33.8235,177.15155 32.7045,178.27055 31.3235,178.27055 C29.943,178.27055 28.8235,177.15155 28.8235,175.77055 C28.8235,174.38955 29.943,173.27055 31.3235,173.27055 C32.7045,173.27055 33.8235,174.38955 33.8235,175.77055" id="Fill-437" fill="#FFFFFF"></path>
                    <path d="M48.23535,175.77055 C48.23535,177.15155 47.11585,178.27055 45.73535,178.27055 C44.35435,178.27055 43.23535,177.15155 43.23535,175.77055 C43.23535,174.38955 44.35435,173.27055 45.73535,173.27055 C47.11585,173.27055 48.23535,174.38955 48.23535,175.77055" id="Fill-439" fill="#FFFFFF"></path>
                    <path d="M62.64695,175.77055 C62.64695,177.15155 61.52795,178.27055 60.14695,178.27055 C58.76645,178.27055 57.64695,177.15155 57.64695,175.77055 C57.64695,174.38955 58.76645,173.27055 60.14695,173.27055 C61.52795,173.27055 62.64695,174.38955 62.64695,175.77055" id="Fill-441" fill="#FFFFFF"></path>
                    <path d="M77.05885,175.77055 C77.05885,177.15155 75.93935,178.27055 74.55885,178.27055 C73.17835,178.27055 72.05885,177.15155 72.05885,175.77055 C72.05885,174.38955 73.17835,173.27055 74.55885,173.27055 C75.93935,173.27055 77.05885,174.38955 77.05885,175.77055" id="Fill-443" fill="#FFFFFF"></path>
                    <path d="M91.4707,175.77055 C91.4707,177.15155 90.3512,178.27055 88.9707,178.27055 C87.5897,178.27055 86.4707,177.15155 86.4707,175.77055 C86.4707,174.38955 87.5897,173.27055 88.9707,173.27055 C90.3512,173.27055 91.4707,174.38955 91.4707,175.77055" id="Fill-445" fill="#FFFFFF"></path>
                    <path d="M105.8823,175.77055 C105.8823,177.15155 104.7633,178.27055 103.3823,178.27055 C102.0018,178.27055 100.8823,177.15155 100.8823,175.77055 C100.8823,174.38955 102.0018,173.27055 103.3823,173.27055 C104.7633,173.27055 105.8823,174.38955 105.8823,175.77055" id="Fill-447" fill="#FFFFFF"></path>
                    <path d="M120.2942,175.77055 C120.2942,177.15155 119.1747,178.27055 117.7942,178.27055 C116.4132,178.27055 115.2942,177.15155 115.2942,175.77055 C115.2942,174.38955 116.4132,173.27055 117.7942,173.27055 C119.1747,173.27055 120.2942,174.38955 120.2942,175.77055" id="Fill-449" fill="#FFFFFF"></path>
                    <path d="M134.70605,175.77055 C134.70605,177.15155 133.58655,178.27055 132.20605,178.27055 C130.82505,178.27055 129.70605,177.15155 129.70605,175.77055 C129.70605,174.38955 130.82505,173.27055 132.20605,173.27055 C133.58655,173.27055 134.70605,174.38955 134.70605,175.77055" id="Fill-451" fill="#FFFFFF"></path>
                    <path d="M149.1177,175.77055 C149.1177,177.15155 147.9987,178.27055 146.6177,178.27055 C145.2367,178.27055 144.1177,177.15155 144.1177,175.77055 C144.1177,174.38955 145.2367,173.27055 146.6177,173.27055 C147.9987,173.27055 149.1177,174.38955 149.1177,175.77055" id="Fill-453" fill="#FFFFFF"></path>
                    <path d="M163.5293,175.77055 C163.5293,177.15155 162.4103,178.27055 161.0293,178.27055 C159.6488,178.27055 158.5293,177.15155 158.5293,175.77055 C158.5293,174.38955 159.6488,173.27055 161.0293,173.27055 C162.4103,173.27055 163.5293,174.38955 163.5293,175.77055" id="Fill-455" fill="#FFFFFF"></path>
                    <path d="M177.9414,175.77055 C177.9414,177.15155 176.8219,178.27055 175.4414,178.27055 C174.0604,178.27055 172.9414,177.15155 172.9414,175.77055 C172.9414,174.38955 174.0604,173.27055 175.4414,173.27055 C176.8219,173.27055 177.9414,174.38955 177.9414,175.77055" id="Fill-457" fill="#FFFFFF"></path>
                    <path d="M192.35305,175.77055 C192.35305,177.15155 191.23405,178.27055 189.85305,178.27055 C188.47205,178.27055 187.35305,177.15155 187.35305,175.77055 C187.35305,174.38955 188.47205,173.27055 189.85305,173.27055 C191.23405,173.27055 192.35305,174.38955 192.35305,175.77055" id="Fill-459" fill="#FFFFFF"></path>
                    <path d="M206.76465,175.77055 C206.76465,177.15155 205.64565,178.27055 204.26465,178.27055 C202.88365,178.27055 201.76465,177.15155 201.76465,175.77055 C201.76465,174.38955 202.88365,173.27055 204.26465,173.27055 C205.64565,173.27055 206.76465,174.38955 206.76465,175.77055" id="Fill-461" fill="#FFFFFF"></path>
                    <path d="M221.17625,175.77055 C221.17625,177.15155 220.05725,178.27055 218.67625,178.27055 C217.29575,178.27055 216.17625,177.15155 216.17625,175.77055 C216.17625,174.38955 217.29575,173.27055 218.67625,173.27055 C220.05725,173.27055 221.17625,174.38955 221.17625,175.77055" id="Fill-463" fill="#FFFFFF"></path>
                    <path d="M235.5884,175.77055 C235.5884,177.15155 234.4689,178.27055 233.0884,178.27055 C231.7074,178.27055 230.5884,177.15155 230.5884,175.77055 C230.5884,174.38955 231.7074,173.27055 233.0884,173.27055 C234.4689,173.27055 235.5884,174.38955 235.5884,175.77055" id="Fill-465" fill="#FFFFFF"></path>
                    <path d="M250,175.77055 C250,177.15155 248.881,178.27055 247.5,178.27055 C246.119,178.27055 245,177.15155 245,175.77055 C245,174.38955 246.119,173.27055 247.5,173.27055 C248.881,173.27055 250,174.38955 250,175.77055" id="Fill-467" fill="#FFFFFF"></path>
                    <path d="M5,190.21 C5,191.5905 3.8805,192.71 2.5,192.71 C1.1195,192.71 0,191.5905 0,190.21 C0,188.829 1.1195,187.71 2.5,187.71 C3.8805,187.71 5,188.829 5,190.21" id="Fill-469" fill="#FFFFFF"></path>
                    <path d="M19.41185,190.21 C19.41185,191.5905 18.29235,192.71 16.91185,192.71 C15.53085,192.71 14.41185,191.5905 14.41185,190.21 C14.41185,188.829 15.53085,187.71 16.91185,187.71 C18.29235,187.71 19.41185,188.829 19.41185,190.21" id="Fill-471" fill="#FFFFFF"></path>
                    <path d="M33.8235,190.21 C33.8235,191.5905 32.7045,192.71 31.3235,192.71 C29.943,192.71 28.8235,191.5905 28.8235,190.21 C28.8235,188.829 29.943,187.71 31.3235,187.71 C32.7045,187.71 33.8235,188.829 33.8235,190.21" id="Fill-473" fill="#FFFFFF"></path>
                    <path d="M48.23535,190.21 C48.23535,191.5905 47.11585,192.71 45.73535,192.71 C44.35435,192.71 43.23535,191.5905 43.23535,190.21 C43.23535,188.829 44.35435,187.71 45.73535,187.71 C47.11585,187.71 48.23535,188.829 48.23535,190.21" id="Fill-475" fill="#FFFFFF"></path>
                    <path d="M62.64695,190.21 C62.64695,191.5905 61.52795,192.71 60.14695,192.71 C58.76645,192.71 57.64695,191.5905 57.64695,190.21 C57.64695,188.829 58.76645,187.71 60.14695,187.71 C61.52795,187.71 62.64695,188.829 62.64695,190.21" id="Fill-477" fill="#FFFFFF"></path>
                    <path d="M77.05885,190.21 C77.05885,191.5905 75.93935,192.71 74.55885,192.71 C73.17835,192.71 72.05885,191.5905 72.05885,190.21 C72.05885,188.829 73.17835,187.71 74.55885,187.71 C75.93935,187.71 77.05885,188.829 77.05885,190.21" id="Fill-479" fill="#FFFFFF"></path>
                    <path d="M91.4707,190.21 C91.4707,191.5905 90.3512,192.71 88.9707,192.71 C87.5897,192.71 86.4707,191.5905 86.4707,190.21 C86.4707,188.829 87.5897,187.71 88.9707,187.71 C90.3512,187.71 91.4707,188.829 91.4707,190.21" id="Fill-481" fill="#FFFFFF"></path>
                    <path d="M105.8823,190.21 C105.8823,191.5905 104.7633,192.71 103.3823,192.71 C102.0018,192.71 100.8823,191.5905 100.8823,190.21 C100.8823,188.829 102.0018,187.71 103.3823,187.71 C104.7633,187.71 105.8823,188.829 105.8823,190.21" id="Fill-483" fill="#FFFFFF"></path>
                    <path d="M120.2942,190.21 C120.2942,191.5905 119.1747,192.71 117.7942,192.71 C116.4132,192.71 115.2942,191.5905 115.2942,190.21 C115.2942,188.829 116.4132,187.71 117.7942,187.71 C119.1747,187.71 120.2942,188.829 120.2942,190.21" id="Fill-485" fill="#FFFFFF"></path>
                    <path d="M134.70605,190.21 C134.70605,191.5905 133.58655,192.71 132.20605,192.71 C130.82505,192.71 129.70605,191.5905 129.70605,190.21 C129.70605,188.829 130.82505,187.71 132.20605,187.71 C133.58655,187.71 134.70605,188.829 134.70605,190.21" id="Fill-487" fill="#FFFFFF"></path>
                    <path d="M149.1177,190.21 C149.1177,191.5905 147.9987,192.71 146.6177,192.71 C145.2367,192.71 144.1177,191.5905 144.1177,190.21 C144.1177,188.829 145.2367,187.71 146.6177,187.71 C147.9987,187.71 149.1177,188.829 149.1177,190.21" id="Fill-489" fill="#FFFFFF"></path>
                    <path d="M163.5293,190.21 C163.5293,191.5905 162.4103,192.71 161.0293,192.71 C159.6488,192.71 158.5293,191.5905 158.5293,190.21 C158.5293,188.829 159.6488,187.71 161.0293,187.71 C162.4103,187.71 163.5293,188.829 163.5293,190.21" id="Fill-491" fill="#FFFFFF"></path>
                    <path d="M177.9414,190.21 C177.9414,191.5905 176.8219,192.71 175.4414,192.71 C174.0604,192.71 172.9414,191.5905 172.9414,190.21 C172.9414,188.829 174.0604,187.71 175.4414,187.71 C176.8219,187.71 177.9414,188.829 177.9414,190.21" id="Fill-493" fill="#FFFFFF"></path>
                    <path d="M192.35305,190.21 C192.35305,191.5905 191.23405,192.71 189.85305,192.71 C188.47205,192.71 187.35305,191.5905 187.35305,190.21 C187.35305,188.829 188.47205,187.71 189.85305,187.71 C191.23405,187.71 192.35305,188.829 192.35305,190.21" id="Fill-495" fill="#FFFFFF"></path>
                    <path d="M206.76465,190.21 C206.76465,191.5905 205.64565,192.71 204.26465,192.71 C202.88365,192.71 201.76465,191.5905 201.76465,190.21 C201.76465,188.829 202.88365,187.71 204.26465,187.71 C205.64565,187.71 206.76465,188.829 206.76465,190.21" id="Fill-497" fill="#FFFFFF"></path>
                    <path d="M221.17625,190.21 C221.17625,191.5905 220.05725,192.71 218.67625,192.71 C217.29575,192.71 216.17625,191.5905 216.17625,190.21 C216.17625,188.829 217.29575,187.71 218.67625,187.71 C220.05725,187.71 221.17625,188.829 221.17625,190.21" id="Fill-499" fill="#FFFFFF"></path>
                    <path d="M235.5884,190.21 C235.5884,191.5905 234.4689,192.71 233.0884,192.71 C231.7074,192.71 230.5884,191.5905 230.5884,190.21 C230.5884,188.829 231.7074,187.71 233.0884,187.71 C234.4689,187.71 235.5884,188.829 235.5884,190.21" id="Fill-501" fill="#FFFFFF"></path>
                    <path d="M250,190.21 C250,191.5905 248.881,192.71 247.5,192.71 C246.119,192.71 245,191.5905 245,190.21 C245,188.829 246.119,187.71 247.5,187.71 C248.881,187.71 250,188.829 250,190.21" id="Fill-503" fill="#FFFFFF"></path>
                    <path d="M5,204.649 C5,206.03 3.8805,207.149 2.5,207.149 C1.1195,207.149 0,206.03 0,204.649 C0,203.268 1.1195,202.149 2.5,202.149 C3.8805,202.149 5,203.268 5,204.649" id="Fill-505" fill="#FFFFFF"></path>
                    <path d="M19.41185,204.649 C19.41185,206.03 18.29235,207.149 16.91185,207.149 C15.53085,207.149 14.41185,206.03 14.41185,204.649 C14.41185,203.268 15.53085,202.149 16.91185,202.149 C18.29235,202.149 19.41185,203.268 19.41185,204.649" id="Fill-507" fill="#FFFFFF"></path>
                    <path d="M33.8235,204.649 C33.8235,206.03 32.7045,207.149 31.3235,207.149 C29.943,207.149 28.8235,206.03 28.8235,204.649 C28.8235,203.268 29.943,202.149 31.3235,202.149 C32.7045,202.149 33.8235,203.268 33.8235,204.649" id="Fill-509" fill="#FFFFFF"></path>
                    <path d="M48.23535,204.649 C48.23535,206.03 47.11585,207.149 45.73535,207.149 C44.35435,207.149 43.23535,206.03 43.23535,204.649 C43.23535,203.268 44.35435,202.149 45.73535,202.149 C47.11585,202.149 48.23535,203.268 48.23535,204.649" id="Fill-511" fill="#FFFFFF"></path>
                    <path d="M62.64695,204.649 C62.64695,206.03 61.52795,207.149 60.14695,207.149 C58.76645,207.149 57.64695,206.03 57.64695,204.649 C57.64695,203.268 58.76645,202.149 60.14695,202.149 C61.52795,202.149 62.64695,203.268 62.64695,204.649" id="Fill-513" fill="#FFFFFF"></path>
                    <path d="M77.05885,204.649 C77.05885,206.03 75.93935,207.149 74.55885,207.149 C73.17835,207.149 72.05885,206.03 72.05885,204.649 C72.05885,203.268 73.17835,202.149 74.55885,202.149 C75.93935,202.149 77.05885,203.268 77.05885,204.649" id="Fill-515" fill="#FFFFFF"></path>
                    <path d="M91.4707,204.649 C91.4707,206.03 90.3512,207.149 88.9707,207.149 C87.5897,207.149 86.4707,206.03 86.4707,204.649 C86.4707,203.268 87.5897,202.149 88.9707,202.149 C90.3512,202.149 91.4707,203.268 91.4707,204.649" id="Fill-517" fill="#FFFFFF"></path>
                    <path d="M105.8823,204.649 C105.8823,206.03 104.7633,207.149 103.3823,207.149 C102.0018,207.149 100.8823,206.03 100.8823,204.649 C100.8823,203.268 102.0018,202.149 103.3823,202.149 C104.7633,202.149 105.8823,203.268 105.8823,204.649" id="Fill-519" fill="#FFFFFF"></path>
                    <path d="M120.2942,204.649 C120.2942,206.03 119.1747,207.149 117.7942,207.149 C116.4132,207.149 115.2942,206.03 115.2942,204.649 C115.2942,203.268 116.4132,202.149 117.7942,202.149 C119.1747,202.149 120.2942,203.268 120.2942,204.649" id="Fill-521" fill="#FFFFFF"></path>
                    <path d="M134.70605,204.649 C134.70605,206.03 133.58655,207.149 132.20605,207.149 C130.82505,207.149 129.70605,206.03 129.70605,204.649 C129.70605,203.268 130.82505,202.149 132.20605,202.149 C133.58655,202.149 134.70605,203.268 134.70605,204.649" id="Fill-523" fill="#FFFFFF"></path>
                    <path d="M149.1177,204.649 C149.1177,206.03 147.9987,207.149 146.6177,207.149 C145.2367,207.149 144.1177,206.03 144.1177,204.649 C144.1177,203.268 145.2367,202.149 146.6177,202.149 C147.9987,202.149 149.1177,203.268 149.1177,204.649" id="Fill-525" fill="#FFFFFF"></path>
                    <path d="M163.5293,204.649 C163.5293,206.03 162.4103,207.149 161.0293,207.149 C159.6488,207.149 158.5293,206.03 158.5293,204.649 C158.5293,203.268 159.6488,202.149 161.0293,202.149 C162.4103,202.149 163.5293,203.268 163.5293,204.649" id="Fill-527" fill="#FFFFFF"></path>
                    <path d="M177.9414,204.649 C177.9414,206.03 176.8219,207.149 175.4414,207.149 C174.0604,207.149 172.9414,206.03 172.9414,204.649 C172.9414,203.268 174.0604,202.149 175.4414,202.149 C176.8219,202.149 177.9414,203.268 177.9414,204.649" id="Fill-529" fill="#FFFFFF"></path>
                    <path d="M192.35305,204.649 C192.35305,206.03 191.23405,207.149 189.85305,207.149 C188.47205,207.149 187.35305,206.03 187.35305,204.649 C187.35305,203.268 188.47205,202.149 189.85305,202.149 C191.23405,202.149 192.35305,203.268 192.35305,204.649" id="Fill-531" fill="#FFFFFF"></path>
                    <path d="M206.76465,204.649 C206.76465,206.03 205.64565,207.149 204.26465,207.149 C202.88365,207.149 201.76465,206.03 201.76465,204.649 C201.76465,203.268 202.88365,202.149 204.26465,202.149 C205.64565,202.149 206.76465,203.268 206.76465,204.649" id="Fill-533" fill="#FFFFFF"></path>
                    <path d="M221.17625,204.649 C221.17625,206.03 220.05725,207.149 218.67625,207.149 C217.29575,207.149 216.17625,206.03 216.17625,204.649 C216.17625,203.268 217.29575,202.149 218.67625,202.149 C220.05725,202.149 221.17625,203.268 221.17625,204.649" id="Fill-535" fill="#FFFFFF"></path>
                    <path d="M235.5884,204.649 C235.5884,206.03 234.4689,207.149 233.0884,207.149 C231.7074,207.149 230.5884,206.03 230.5884,204.649 C230.5884,203.268 231.7074,202.149 233.0884,202.149 C234.4689,202.149 235.5884,203.268 235.5884,204.649" id="Fill-537" fill="#FFFFFF"></path>
                    <path d="M250,204.649 C250,206.03 248.881,207.149 247.5,207.149 C246.119,207.149 245,206.03 245,204.649 C245,203.268 246.119,202.149 247.5,202.149 C248.881,202.149 250,203.268 250,204.649" id="Fill-539" fill="#FFFFFF"></path>
                    <path d="M5,219.08845 C5,220.46895 3.8805,221.58845 2.5,221.58845 C1.1195,221.58845 0,220.46895 0,219.08845 C0,217.70745 1.1195,216.58845 2.5,216.58845 C3.8805,216.58845 5,217.70745 5,219.08845" id="Fill-541" fill="#FFFFFF"></path>
                    <path d="M19.41185,219.08845 C19.41185,220.46895 18.29235,221.58845 16.91185,221.58845 C15.53085,221.58845 14.41185,220.46895 14.41185,219.08845 C14.41185,217.70745 15.53085,216.58845 16.91185,216.58845 C18.29235,216.58845 19.41185,217.70745 19.41185,219.08845" id="Fill-543" fill="#FFFFFF"></path>
                    <path d="M33.8235,219.08845 C33.8235,220.46895 32.7045,221.58845 31.3235,221.58845 C29.943,221.58845 28.8235,220.46895 28.8235,219.08845 C28.8235,217.70745 29.943,216.58845 31.3235,216.58845 C32.7045,216.58845 33.8235,217.70745 33.8235,219.08845" id="Fill-545" fill="#FFFFFF"></path>
                    <path d="M48.23535,219.08845 C48.23535,220.46895 47.11585,221.58845 45.73535,221.58845 C44.35435,221.58845 43.23535,220.46895 43.23535,219.08845 C43.23535,217.70745 44.35435,216.58845 45.73535,216.58845 C47.11585,216.58845 48.23535,217.70745 48.23535,219.08845" id="Fill-547" fill="#FFFFFF"></path>
                    <path d="M62.64695,219.08845 C62.64695,220.46895 61.52795,221.58845 60.14695,221.58845 C58.76645,221.58845 57.64695,220.46895 57.64695,219.08845 C57.64695,217.70745 58.76645,216.58845 60.14695,216.58845 C61.52795,216.58845 62.64695,217.70745 62.64695,219.08845" id="Fill-549" fill="#FFFFFF"></path>
                    <path d="M77.05885,219.08845 C77.05885,220.46895 75.93935,221.58845 74.55885,221.58845 C73.17835,221.58845 72.05885,220.46895 72.05885,219.08845 C72.05885,217.70745 73.17835,216.58845 74.55885,216.58845 C75.93935,216.58845 77.05885,217.70745 77.05885,219.08845" id="Fill-551" fill="#FFFFFF"></path>
                    <path d="M91.4707,219.08845 C91.4707,220.46895 90.3512,221.58845 88.9707,221.58845 C87.5897,221.58845 86.4707,220.46895 86.4707,219.08845 C86.4707,217.70745 87.5897,216.58845 88.9707,216.58845 C90.3512,216.58845 91.4707,217.70745 91.4707,219.08845" id="Fill-553" fill="#FFFFFF"></path>
                    <path d="M105.8823,219.08845 C105.8823,220.46895 104.7633,221.58845 103.3823,221.58845 C102.0018,221.58845 100.8823,220.46895 100.8823,219.08845 C100.8823,217.70745 102.0018,216.58845 103.3823,216.58845 C104.7633,216.58845 105.8823,217.70745 105.8823,219.08845" id="Fill-555" fill="#FFFFFF"></path>
                    <path d="M120.2942,219.08845 C120.2942,220.46895 119.1747,221.58845 117.7942,221.58845 C116.4132,221.58845 115.2942,220.46895 115.2942,219.08845 C115.2942,217.70745 116.4132,216.58845 117.7942,216.58845 C119.1747,216.58845 120.2942,217.70745 120.2942,219.08845" id="Fill-557" fill="#FFFFFF"></path>
                    <path d="M134.70605,219.08845 C134.70605,220.46895 133.58655,221.58845 132.20605,221.58845 C130.82505,221.58845 129.70605,220.46895 129.70605,219.08845 C129.70605,217.70745 130.82505,216.58845 132.20605,216.58845 C133.58655,216.58845 134.70605,217.70745 134.70605,219.08845" id="Fill-559" fill="#FFFFFF"></path>
                    <path d="M149.1177,219.08845 C149.1177,220.46895 147.9987,221.58845 146.6177,221.58845 C145.2367,221.58845 144.1177,220.46895 144.1177,219.08845 C144.1177,217.70745 145.2367,216.58845 146.6177,216.58845 C147.9987,216.58845 149.1177,217.70745 149.1177,219.08845" id="Fill-561" fill="#FFFFFF"></path>
                    <path d="M163.5293,219.08845 C163.5293,220.46895 162.4103,221.58845 161.0293,221.58845 C159.6488,221.58845 158.5293,220.46895 158.5293,219.08845 C158.5293,217.70745 159.6488,216.58845 161.0293,216.58845 C162.4103,216.58845 163.5293,217.70745 163.5293,219.08845" id="Fill-563" fill="#FFFFFF"></path>
                    <path d="M177.9414,219.08845 C177.9414,220.46895 176.8219,221.58845 175.4414,221.58845 C174.0604,221.58845 172.9414,220.46895 172.9414,219.08845 C172.9414,217.70745 174.0604,216.58845 175.4414,216.58845 C176.8219,216.58845 177.9414,217.70745 177.9414,219.08845" id="Fill-565" fill="#FFFFFF"></path>
                    <path d="M192.35305,219.08845 C192.35305,220.46895 191.23405,221.58845 189.85305,221.58845 C188.47205,221.58845 187.35305,220.46895 187.35305,219.08845 C187.35305,217.70745 188.47205,216.58845 189.85305,216.58845 C191.23405,216.58845 192.35305,217.70745 192.35305,219.08845" id="Fill-567" fill="#FFFFFF"></path>
                    <path d="M206.76465,219.08845 C206.76465,220.46895 205.64565,221.58845 204.26465,221.58845 C202.88365,221.58845 201.76465,220.46895 201.76465,219.08845 C201.76465,217.70745 202.88365,216.58845 204.26465,216.58845 C205.64565,216.58845 206.76465,217.70745 206.76465,219.08845" id="Fill-569" fill="#FFFFFF"></path>
                    <path d="M221.17625,219.08845 C221.17625,220.46895 220.05725,221.58845 218.67625,221.58845 C217.29575,221.58845 216.17625,220.46895 216.17625,219.08845 C216.17625,217.70745 217.29575,216.58845 218.67625,216.58845 C220.05725,216.58845 221.17625,217.70745 221.17625,219.08845" id="Fill-571" fill="#FFFFFF"></path>
                    <path d="M235.5884,219.08845 C235.5884,220.46895 234.4689,221.58845 233.0884,221.58845 C231.7074,221.58845 230.5884,220.46895 230.5884,219.08845 C230.5884,217.70745 231.7074,216.58845 233.0884,216.58845 C234.4689,216.58845 235.5884,217.70745 235.5884,219.08845" id="Fill-573" fill="#FFFFFF"></path>
                    <path d="M250,219.08845 C250,220.46895 248.881,221.58845 247.5,221.58845 C246.119,221.58845 245,220.46895 245,219.08845 C245,217.70745 246.119,216.58845 247.5,216.58845 C248.881,216.58845 250,217.70745 250,219.08845" id="Fill-575" fill="#FFFFFF"></path>
                    <path d="M5,233.5274 C5,234.9084 3.8805,236.0274 2.5,236.0274 C1.1195,236.0274 0,234.9084 0,233.5274 C0,232.1469 1.1195,231.0274 2.5,231.0274 C3.8805,231.0274 5,232.1469 5,233.5274" id="Fill-577" fill="#FFFFFF"></path>
                    <path d="M19.41185,233.5274 C19.41185,234.9084 18.29235,236.0274 16.91185,236.0274 C15.53085,236.0274 14.41185,234.9084 14.41185,233.5274 C14.41185,232.1469 15.53085,231.0274 16.91185,231.0274 C18.29235,231.0274 19.41185,232.1469 19.41185,233.5274" id="Fill-579" fill="#FFFFFF"></path>
                    <path d="M33.8235,233.5274 C33.8235,234.9084 32.7045,236.0274 31.3235,236.0274 C29.943,236.0274 28.8235,234.9084 28.8235,233.5274 C28.8235,232.1469 29.943,231.0274 31.3235,231.0274 C32.7045,231.0274 33.8235,232.1469 33.8235,233.5274" id="Fill-581" fill="#FFFFFF"></path>
                    <path d="M48.23535,233.5274 C48.23535,234.9084 47.11585,236.0274 45.73535,236.0274 C44.35435,236.0274 43.23535,234.9084 43.23535,233.5274 C43.23535,232.1469 44.35435,231.0274 45.73535,231.0274 C47.11585,231.0274 48.23535,232.1469 48.23535,233.5274" id="Fill-583" fill="#FFFFFF"></path>
                    <path d="M62.64695,233.5274 C62.64695,234.9084 61.52795,236.0274 60.14695,236.0274 C58.76645,236.0274 57.64695,234.9084 57.64695,233.5274 C57.64695,232.1469 58.76645,231.0274 60.14695,231.0274 C61.52795,231.0274 62.64695,232.1469 62.64695,233.5274" id="Fill-585" fill="#FFFFFF"></path>
                    <path d="M77.05885,233.5274 C77.05885,234.9084 75.93935,236.0274 74.55885,236.0274 C73.17835,236.0274 72.05885,234.9084 72.05885,233.5274 C72.05885,232.1469 73.17835,231.0274 74.55885,231.0274 C75.93935,231.0274 77.05885,232.1469 77.05885,233.5274" id="Fill-587" fill="#FFFFFF"></path>
                    <path d="M91.4707,233.5274 C91.4707,234.9084 90.3512,236.0274 88.9707,236.0274 C87.5897,236.0274 86.4707,234.9084 86.4707,233.5274 C86.4707,232.1469 87.5897,231.0274 88.9707,231.0274 C90.3512,231.0274 91.4707,232.1469 91.4707,233.5274" id="Fill-589" fill="#FFFFFF"></path>
                    <path d="M105.8823,233.5274 C105.8823,234.9084 104.7633,236.0274 103.3823,236.0274 C102.0018,236.0274 100.8823,234.9084 100.8823,233.5274 C100.8823,232.1469 102.0018,231.0274 103.3823,231.0274 C104.7633,231.0274 105.8823,232.1469 105.8823,233.5274" id="Fill-591" fill="#FFFFFF"></path>
                    <path d="M120.2942,233.5274 C120.2942,234.9084 119.1747,236.0274 117.7942,236.0274 C116.4132,236.0274 115.2942,234.9084 115.2942,233.5274 C115.2942,232.1469 116.4132,231.0274 117.7942,231.0274 C119.1747,231.0274 120.2942,232.1469 120.2942,233.5274" id="Fill-593" fill="#FFFFFF"></path>
                    <path d="M134.70605,233.5274 C134.70605,234.9084 133.58655,236.0274 132.20605,236.0274 C130.82505,236.0274 129.70605,234.9084 129.70605,233.5274 C129.70605,232.1469 130.82505,231.0274 132.20605,231.0274 C133.58655,231.0274 134.70605,232.1469 134.70605,233.5274" id="Fill-595" fill="#FFFFFF"></path>
                    <path d="M149.1177,233.5274 C149.1177,234.9084 147.9987,236.0274 146.6177,236.0274 C145.2367,236.0274 144.1177,234.9084 144.1177,233.5274 C144.1177,232.1469 145.2367,231.0274 146.6177,231.0274 C147.9987,231.0274 149.1177,232.1469 149.1177,233.5274" id="Fill-597" fill="#FFFFFF"></path>
                    <path d="M163.5293,233.5274 C163.5293,234.9084 162.4103,236.0274 161.0293,236.0274 C159.6488,236.0274 158.5293,234.9084 158.5293,233.5274 C158.5293,232.1469 159.6488,231.0274 161.0293,231.0274 C162.4103,231.0274 163.5293,232.1469 163.5293,233.5274" id="Fill-599" fill="#FFFFFF"></path>
                    <path d="M177.9414,233.5274 C177.9414,234.9084 176.8219,236.0274 175.4414,236.0274 C174.0604,236.0274 172.9414,234.9084 172.9414,233.5274 C172.9414,232.1469 174.0604,231.0274 175.4414,231.0274 C176.8219,231.0274 177.9414,232.1469 177.9414,233.5274" id="Fill-601" fill="#FFFFFF"></path>
                    <path d="M192.35305,233.5274 C192.35305,234.9084 191.23405,236.0274 189.85305,236.0274 C188.47205,236.0274 187.35305,234.9084 187.35305,233.5274 C187.35305,232.1469 188.47205,231.0274 189.85305,231.0274 C191.23405,231.0274 192.35305,232.1469 192.35305,233.5274" id="Fill-603" fill="#FFFFFF"></path>
                    <path d="M206.76465,233.5274 C206.76465,234.9084 205.64565,236.0274 204.26465,236.0274 C202.88365,236.0274 201.76465,234.9084 201.76465,233.5274 C201.76465,232.1469 202.88365,231.0274 204.26465,231.0274 C205.64565,231.0274 206.76465,232.1469 206.76465,233.5274" id="Fill-605" fill="#FFFFFF"></path>
                    <path d="M221.17625,233.5274 C221.17625,234.9084 220.05725,236.0274 218.67625,236.0274 C217.29575,236.0274 216.17625,234.9084 216.17625,233.5274 C216.17625,232.1469 217.29575,231.0274 218.67625,231.0274 C220.05725,231.0274 221.17625,232.1469 221.17625,233.5274" id="Fill-607" fill="#FFFFFF"></path>
                    <path d="M235.5884,233.5274 C235.5884,234.9084 234.4689,236.0274 233.0884,236.0274 C231.7074,236.0274 230.5884,234.9084 230.5884,233.5274 C230.5884,232.1469 231.7074,231.0274 233.0884,231.0274 C234.4689,231.0274 235.5884,232.1469 235.5884,233.5274" id="Fill-609" fill="#FFFFFF"></path>
                    <path d="M250,233.5274 C250,234.9084 248.881,236.0274 247.5,236.0274 C246.119,236.0274 245,234.9084 245,233.5274 C245,232.1469 246.119,231.0274 247.5,231.0274 C248.881,231.0274 250,232.1469 250,233.5274" id="Fill-611" fill="#FFFFFF"></path>
                </g>
            </g>
        </g>
    </g>
</svg>