<svg class="svg-icon" style="width: 1em; height: 1em;vertical-align: middle;fill: currentColor;overflow: hidden;" viewBox="0 0 1024 1024" version="1.1" xmlns="http://www.w3.org/2000/svg"><path d="M512 32C247.04 32 32 224 32 464A410.24 410.24 0 0 0 172.48 768L160 965.12a25.28 25.28 0 0 0 39.04 22.4l168-112A528.64 528.64 0 0 0 512 896c264.96 0 480-192 480-432S776.96 32 512 32z m232.96 531.52c0 13.44-8.96 17.92-19.52 9.92l-115.84-87.04v70.72a23.68 23.68 0 0 1-23.68 23.68h-240.64a23.68 23.68 0 0 1-23.68-23.68v-208.64a23.68 23.68 0 0 1 23.68-23.68h240.64a23.68 23.68 0 0 1 23.68 23.68v70.72l115.52-86.72c10.88-8 19.52-3.84 19.52 9.92z" fill="#231F20" /></svg>